<svg version="1.1" id="Layer_1" xmlns="http://www.w3.org/2000/svg" xmlns:xlink="http://www.w3.org/1999/xlink" x="0px" y="0px"
	 width="100%" viewBox="0 0 1976 680" enable-background="new 0 0 1976 680" xml:space="preserve">
<path fill="none" opacity="1.000000" stroke="none" 
	d="
M1232.000000,681.000000 
	C821.333313,681.000000 411.166656,681.000000 1.000000,681.000000 
	C1.000000,454.333344 1.000000,227.666672 1.000000,1.000000 
	C659.666687,1.000000 1318.333374,1.000000 1977.000000,1.000000 
	C1977.000000,227.666672 1977.000000,454.333344 1977.000000,681.000000 
	C1728.833374,681.000000 1480.666626,681.000000 1232.000000,681.000000 
M343.107697,311.709320 
	C338.179016,323.583801 332.421692,335.193634 328.524780,347.397552 
	C323.282257,363.815704 319.174896,380.619781 315.133514,397.391510 
	C310.856232,415.142120 319.751556,419.129150 330.399994,420.751923 
	C338.426392,421.975098 346.797424,421.248138 354.997650,420.934692 
	C363.773407,420.599152 371.752502,413.359406 373.998932,404.933228 
	C375.106720,400.777954 375.785278,396.462250 377.327728,392.478424 
	C380.625244,383.961609 384.009796,375.630249 390.475006,368.586609 
	C398.321381,360.038330 404.837341,350.285156 412.254730,341.322937 
	C423.247253,328.041016 434.364624,314.852753 445.806885,301.960114 
	C448.384674,299.055573 452.520721,297.534027 456.537140,294.998505 
	C456.293915,299.003876 455.979675,301.427094 456.027618,303.843109 
	C456.304352,317.785187 456.157684,331.763672 457.198242,345.651611 
	C457.786255,353.499451 459.421936,361.571045 462.287537,368.874084 
	C466.427795,379.425476 474.303802,386.869690 485.869141,389.399536 
	C492.412048,390.830780 499.005493,392.034027 505.584778,393.295258 
	C513.765137,394.863464 521.656311,393.043457 529.115173,390.162170 
	C537.841187,386.791382 544.545837,380.598755 550.450684,373.222412 
	C560.935730,360.124603 572.039124,347.523041 582.805664,334.648590 
	C586.976013,329.661743 587.053650,329.573334 591.770813,334.271729 
	C592.361206,334.859772 592.888916,335.533936 593.554016,336.019928 
	C596.791260,338.385498 596.277710,340.894287 593.946045,343.536682 
	C583.932373,354.884796 573.995239,366.301392 563.893921,377.570862 
	C554.834595,387.677765 553.410583,399.781799 562.843384,410.596313 
	C566.212402,414.458832 569.878540,415.333099 573.945557,412.508362 
	C576.837524,410.499817 579.548401,408.102325 581.918091,405.494904 
	C588.089050,398.704926 594.225586,391.864746 600.012329,384.749023 
	C608.655701,374.120697 614.459839,361.320648 625.184631,352.245026 
	C632.619385,345.953491 641.022522,341.206116 650.356079,339.284363 
	C660.092896,337.279510 668.873962,333.564117 677.687317,329.283722 
	C682.922424,326.741241 688.242981,323.294708 694.835876,324.330627 
	C694.936035,326.478851 694.809509,328.330963 695.139954,330.097656 
	C697.015625,340.124847 699.043640,350.123474 700.937500,360.147369 
	C703.336365,372.843781 705.451599,385.598297 708.116577,398.237640 
	C709.107910,402.939026 710.052063,407.246674 708.250732,412.037689 
	C707.394836,414.314148 707.731384,417.457184 708.546143,419.862793 
	C710.738403,426.336212 713.134155,432.791046 716.110291,438.932861 
	C718.489258,443.842041 720.943420,449.351837 724.948303,452.700592 
	C732.772461,459.242950 744.490784,456.307922 750.132690,447.394470 
	C751.117859,445.838013 751.934692,443.825562 751.907715,442.037628 
	C751.783081,433.760223 751.144897,425.489990 751.042969,417.212891 
	C750.878784,403.881592 751.992737,390.448608 750.696350,377.242218 
	C749.480225,364.853821 750.865967,353.002228 752.829834,340.946960 
	C754.885498,328.328583 757.044617,315.648163 757.762512,302.916107 
	C758.324585,292.948883 762.231628,285.524200 769.999573,280.109406 
	C776.411560,275.639771 783.410950,272.016937 790.113708,267.958893 
	C795.673828,264.592682 801.181030,261.139099 806.854004,257.636353 
	C798.348389,251.146454 789.610840,252.329941 780.595764,255.715332 
	C775.028625,257.805939 769.301697,259.470917 762.587036,261.674652 
	C763.149170,256.736725 763.481384,253.001129 764.013184,249.294159 
	C765.861145,236.413528 767.630859,223.518890 769.718384,210.676392 
	C771.240967,201.308929 773.343933,192.037109 774.961060,182.683411 
	C777.331299,168.974106 779.318298,155.196899 781.810059,141.510788 
	C783.739502,130.913071 783.564331,120.597404 779.763000,110.418968 
	C773.635620,94.012283 750.698608,86.913757 737.142151,87.206940 
	C734.748535,87.258705 731.102600,89.359856 730.265503,91.420639 
	C725.787292,102.444878 721.922241,113.723885 718.035095,124.980392 
	C715.522827,132.255585 713.183105,139.599152 711.053833,146.994919 
	C709.463684,152.518265 708.319946,158.170822 707.001953,163.771622 
	C705.193481,171.456757 703.966614,179.338699 701.421021,186.769928 
	C699.655640,191.923569 696.180115,196.515686 693.306091,201.260208 
	C687.215027,211.315643 681.217102,221.436340 674.808838,231.288254 
	C668.204712,241.441284 661.085144,251.257523 654.326233,261.311920 
	C647.395996,271.621155 640.700623,282.088287 633.768921,292.396606 
	C627.902039,301.121490 621.702637,309.624542 615.910339,318.397461 
	C609.757080,327.717224 598.923096,328.608856 591.338867,320.133759 
	C589.345337,317.906128 587.473206,315.570038 585.982727,313.802490 
	C580.266235,320.516174 575.185303,326.188171 570.434082,332.123993 
	C560.208313,344.899292 546.931824,354.207977 534.231323,364.136871 
	C526.007446,370.566071 517.626953,376.773071 506.816498,378.734253 
	C498.432831,380.255188 492.079498,376.719635 492.080353,369.033691 
	C492.081329,360.259796 492.044037,351.402832 493.166412,342.729889 
	C495.330444,326.007721 498.262604,309.383820 500.946716,292.730530 
	C502.420990,283.583740 497.405121,274.942963 488.602936,272.058685 
	C485.981384,271.199707 483.219543,270.641754 480.477814,270.300140 
	C471.996735,269.243439 463.942444,269.962555 457.706482,276.810364 
	C455.373444,279.372284 453.215973,282.096069 450.847717,284.623566 
	C444.493073,291.405487 438.167389,298.219330 431.647797,304.840912 
	C421.359497,315.290161 410.878723,325.549744 400.575104,335.984100 
	C397.569916,339.027435 394.914398,338.393616 392.048157,336.207458 
	C392.930817,332.583710 393.427338,329.145142 394.607025,325.959595 
	C398.453827,315.571533 402.654358,305.314728 406.525299,294.935242 
	C412.068573,280.071472 418.513367,265.322845 416.883118,248.921768 
	C416.435242,244.415878 415.443573,239.321274 412.899414,235.798050 
	C407.314758,228.064255 398.665466,224.121231 389.478394,219.932739 
	C374.009583,250.566925 358.742279,280.802002 343.107697,311.709320 
M855.058716,248.485336 
	C845.459534,257.507446 836.297302,266.775024 828.791016,277.829346 
	C821.312378,288.842865 815.336914,300.519287 811.319153,312.960815 
	C807.136169,325.914001 805.355896,339.406342 805.720398,353.292328 
	C805.952148,362.120697 808.541382,369.648071 812.518799,377.065277 
	C817.302856,385.986664 824.926697,392.192383 833.865784,396.059784 
	C843.395386,400.182678 853.404480,403.785828 863.565186,405.678619 
	C871.986267,407.247314 880.944397,406.296143 889.641907,405.927521 
	C901.175964,405.438690 911.426941,400.404022 920.671753,394.257843 
	C935.145020,384.635590 946.277405,371.297333 957.132629,357.843048 
	C958.139954,356.594482 959.642700,355.745667 961.172668,354.502167 
	C962.568176,359.265564 963.814148,363.354889 964.963196,367.471252 
	C968.344604,379.584747 974.882935,389.180389 986.497131,394.815186 
	C998.524353,400.650330 1010.993347,404.509308 1024.400391,406.233887 
	C1042.739502,408.592865 1059.212524,404.480743 1074.688721,395.068146 
	C1087.601440,387.214722 1096.858154,375.556732 1106.257080,364.109558 
	C1108.673340,361.166779 1110.047852,361.174805 1111.020264,364.817932 
	C1113.076904,372.523682 1115.095947,380.241730 1116.968506,387.993896 
	C1120.956665,404.503754 1128.281250,409.852905 1144.719849,411.854614 
	C1157.755127,413.441956 1168.451904,406.944641 1177.635498,398.664886 
	C1191.339233,386.309875 1199.755127,370.413940 1206.179199,353.268616 
	C1208.301270,347.604980 1212.618286,342.658020 1219.051270,342.149048 
	C1236.840210,340.741547 1254.681152,339.987915 1272.503906,339.017853 
	C1274.895264,338.887695 1277.299927,339.000000 1281.000000,339.000000 
	C1281.000000,351.060181 1280.550171,363.340851 1281.181030,375.565735 
	C1281.519531,382.124176 1282.937988,388.880768 1285.259766,395.022095 
	C1288.558472,403.747253 1301.012451,408.888245 1310.137329,404.058289 
	C1318.983032,399.376099 1323.408691,391.116272 1327.920166,383.071899 
	C1332.124756,375.574677 1335.311768,367.501862 1338.863647,359.644806 
	C1342.275879,352.096710 1345.715698,344.556305 1348.900024,336.911194 
	C1352.871948,327.375519 1356.444214,317.672455 1360.464111,308.157898 
	C1365.226562,296.885834 1370.131836,285.668060 1375.275513,274.565887 
	C1377.757324,269.208923 1380.926880,264.170593 1383.784912,258.987976 
	C1385.351685,260.928558 1385.904541,262.340027 1385.961792,263.771271 
	C1386.364868,273.875641 1387.127319,283.995239 1386.881470,294.088226 
	C1386.583252,306.327545 1391.903076,314.417511 1402.809082,319.404816 
	C1417.236328,326.002380 1426.987793,321.591187 1431.713501,307.959869 
	C1426.094971,311.159851 1420.878540,314.130798 1415.754150,317.049377 
	C1415.180298,312.710999 1414.658813,309.046814 1414.218018,305.372955 
	C1413.454590,299.008942 1412.320190,292.653229 1412.104126,286.268219 
	C1411.770874,276.415619 1410.804199,266.540802 1406.237671,257.901306 
	C1403.487061,252.697540 1399.617798,247.140152 1391.498779,247.825928 
	C1384.221558,248.440598 1381.169067,253.706924 1378.421509,258.571869 
	C1370.261719,273.019928 1362.993042,287.967773 1355.144043,302.595886 
	C1348.286499,315.376648 1341.264893,328.076843 1333.931274,340.587189 
	C1332.730957,342.634766 1329.604858,344.459717 1327.252563,344.614014 
	C1325.626831,344.720642 1323.165161,342.077698 1322.232422,340.114471 
	C1321.168213,337.875000 1320.640869,334.859253 1321.175293,332.470612 
	C1323.669922,321.323242 1325.901123,310.033691 1329.576172,299.255157 
	C1334.002319,286.274170 1340.029785,273.848450 1344.901489,261.006836 
	C1347.901489,253.098923 1348.747681,245.015396 1342.931396,237.611267 
	C1341.418579,235.685410 1340.223022,233.476059 1339.098389,231.285660 
	C1335.055420,223.411850 1322.910767,219.284134 1314.810669,223.057968 
	C1309.087524,225.724289 1306.711304,230.555038 1305.107056,236.388641 
	C1302.774536,244.870926 1299.499268,253.091812 1297.100586,261.558624 
	C1294.434937,270.967896 1292.315063,280.531372 1289.933716,290.021790 
	C1287.638550,299.169434 1285.107178,308.264923 1283.113525,317.477234 
	C1282.420410,320.679932 1277.945801,325.877686 1274.052856,325.965729 
	C1257.113647,326.348785 1240.173706,326.776093 1223.231812,326.889404 
	C1219.953125,326.911377 1216.881592,325.476654 1216.605957,321.203522 
	C1215.843140,309.377411 1215.571777,297.475189 1213.943848,285.764587 
	C1212.829956,277.750732 1210.712402,269.574524 1207.349854,262.248169 
	C1202.695312,252.106735 1195.669556,243.334473 1186.036011,237.155472 
	C1177.298096,231.551025 1169.287720,223.866577 1157.252441,229.900208 
	C1148.340820,234.367752 1139.377686,238.453262 1135.358276,248.361801 
	C1132.984131,254.214355 1132.184692,260.353333 1133.964966,266.673065 
	C1135.986206,273.848480 1137.361572,281.230774 1139.777710,288.261932 
	C1141.610718,293.595795 1141.388428,300.981842 1137.925171,304.551788 
	C1125.768921,317.082428 1113.493408,329.498535 1101.430176,342.117798 
	C1089.031616,355.087585 1075.047729,366.035034 1059.504395,374.885315 
	C1046.746948,382.149323 1033.252686,386.773773 1018.165588,387.268829 
	C1008.115417,387.598602 1002.320679,378.644135 1001.995300,371.124969 
	C1001.550415,360.844147 1002.023865,350.946838 1007.524597,341.554688 
	C1011.589783,334.613556 1013.959839,326.699005 1017.372925,319.351898 
	C1021.969788,309.456543 1026.529541,299.518585 1031.750000,289.950623 
	C1033.889038,286.030396 1037.711182,283.028595 1041.000000,279.349091 
	C1041.000000,284.564362 1041.123047,288.658722 1040.945923,292.740082 
	C1040.862549,294.661743 1040.524414,296.702057 1039.747925,298.441376 
	C1036.500732,305.715698 1037.200562,309.541168 1043.041016,314.552338 
	C1049.752319,320.310699 1056.194946,319.501465 1060.382324,312.105530 
	C1065.233154,303.537720 1067.853760,294.204834 1067.914429,284.388000 
	C1067.973755,274.783142 1066.999268,265.170135 1067.109619,255.567993 
	C1067.192383,248.374313 1067.799438,242.414719 1057.895996,240.621658 
	C1049.915161,239.176712 1042.119141,237.157318 1034.084717,238.535522 
	C1024.761230,240.134872 1017.003296,244.841949 1009.369019,250.610153 
	C992.640808,263.249481 982.136292,279.921906 973.794678,298.689667 
	C969.037476,309.392792 963.486450,319.999756 956.618591,329.430817 
	C950.598816,337.697388 942.359009,344.383759 934.892456,351.552185 
	C922.223816,363.714935 908.115173,373.892975 891.777771,380.539062 
	C882.525940,384.302704 873.148315,387.888123 862.725281,387.062317 
	C853.280151,386.313934 844.255615,378.490173 845.087158,369.055267 
	C845.615906,363.055878 846.441895,356.972992 848.105347,351.207642 
	C850.987854,341.217468 853.823486,331.075317 858.159851,321.680511 
	C862.846375,311.527130 868.891602,301.936890 875.010071,292.534302 
	C878.273132,287.519623 881.026611,281.591644 887.755554,278.914032 
	C887.755554,280.721405 888.049927,282.209595 887.706299,283.531952 
	C885.902527,290.472351 884.189697,297.454803 881.926453,304.249817 
	C880.712219,307.895264 882.017761,310.726166 884.361816,312.480133 
	C887.580078,314.888245 891.504700,316.414246 895.260925,318.000153 
	C896.272949,318.427460 898.114136,318.136932 898.992981,317.441101 
	C907.961853,310.340240 911.121338,300.116272 911.770935,289.522034 
	C912.458252,278.310699 911.205811,266.990204 911.036011,255.713852 
	C910.868042,244.559540 911.118774,244.216705 900.946472,240.582108 
	C891.119690,237.070938 880.933655,236.555267 871.045532,240.550827 
	C865.773071,242.681259 860.799255,245.550568 855.058716,248.485336 
M1421.980103,488.813354 
	C1420.973877,502.983124 1422.850464,516.784912 1428.235596,529.907166 
	C1429.518066,533.032227 1432.846436,537.467590 1435.226562,537.463196 
	C1438.399414,537.457275 1442.937866,534.413208 1444.490234,531.426758 
	C1450.421875,520.016235 1452.487793,507.520630 1454.324341,494.739685 
	C1456.710205,478.137421 1460.292480,461.477875 1465.596924,445.589935 
	C1470.699219,430.307617 1478.049805,415.661987 1485.543701,401.328003 
	C1491.578491,389.784668 1500.222046,379.913269 1509.610474,370.721283 
	C1514.453247,365.979919 1519.174316,360.689362 1522.380249,354.793213 
	C1528.293701,343.917725 1532.684937,332.223816 1538.386841,321.221497 
	C1544.538208,309.352203 1551.388306,297.840363 1558.091431,286.264038 
	C1560.756348,281.661469 1563.845581,277.304535 1566.741577,272.835785 
	C1567.258545,272.937531 1567.775513,273.039276 1568.292358,273.141022 
	C1569.194946,278.577209 1570.656372,283.988770 1570.897217,289.454071 
	C1571.679565,307.199219 1567.478394,324.173523 1561.477295,340.676483 
	C1560.301025,343.911713 1557.339844,346.967804 1554.429077,348.999695 
	C1549.197388,352.651886 1543.025269,354.985168 1537.908325,358.765869 
	C1532.895264,362.469788 1528.138184,366.845154 1524.308838,371.739624 
	C1519.992065,377.257446 1521.848389,384.549438 1527.717163,391.931519 
	C1532.016602,397.339752 1536.133667,402.910736 1540.034302,408.612854 
	C1543.715576,413.994385 1546.680054,414.494354 1550.800293,409.636414 
	C1554.333008,405.471161 1557.838501,401.252472 1560.983276,396.794556 
	C1569.091064,385.301483 1576.797852,373.521820 1585.049805,362.135559 
	C1589.916382,355.420471 1595.720337,349.810913 1604.489014,347.870331 
	C1616.598755,345.190399 1628.558105,341.826172 1640.568970,338.705353 
	C1648.820801,336.561218 1648.857422,336.501312 1652.322144,343.734192 
	C1657.852417,355.279480 1664.254639,366.578094 1663.025024,380.122162 
	C1662.818359,382.398315 1663.488647,385.142731 1662.441650,386.880127 
	C1659.450317,391.844391 1656.256470,396.850403 1652.290161,401.031677 
	C1641.815186,412.074738 1628.240601,420.179352 1621.593506,434.830536 
	C1616.974731,445.010986 1613.686890,454.912476 1623.257202,464.566193 
	C1628.842896,470.200287 1635.869629,473.272308 1643.589966,472.782806 
	C1649.739258,472.392944 1656.122925,470.891510 1661.773193,468.435730 
	C1673.794067,463.211121 1682.832642,453.813782 1691.869629,444.611481 
	C1702.846924,433.433289 1707.963501,420.125946 1706.824951,404.342377 
	C1706.286865,396.882263 1707.640991,389.589508 1713.965576,384.643738 
	C1722.227905,378.182739 1730.865723,372.204224 1739.265991,365.916565 
	C1748.072266,359.324921 1757.843994,353.598236 1765.243042,345.672485 
	C1772.429443,337.974487 1777.574219,328.202759 1782.687134,318.834839 
	C1784.306641,315.867554 1782.940186,311.270630 1782.940186,308.294037 
	C1779.202881,311.429230 1775.373169,314.076294 1772.230957,317.377777 
	C1759.989624,330.240234 1746.844727,342.046387 1731.408936,350.884674 
	C1723.945923,355.157867 1715.896362,358.617035 1707.762573,361.434235 
	C1702.330444,363.315735 1696.145142,362.723938 1693.869507,355.770935 
	C1693.079834,353.358643 1691.747314,351.089325 1690.439331,348.887390 
	C1684.645752,339.133575 1678.017822,329.784637 1673.187744,319.581055 
	C1669.910645,312.658051 1667.247437,305.107971 1668.003662,296.783813 
	C1669.073120,285.012054 1670.487427,273.303375 1676.252441,262.895752 
	C1679.838379,256.422241 1684.149536,249.837082 1689.655762,245.051743 
	C1699.874512,236.170807 1712.324585,236.233032 1724.979004,239.370407 
	C1727.160278,239.911209 1729.664185,239.151047 1732.458984,238.962112 
	C1729.190552,226.393372 1722.298340,218.445602 1710.904297,216.159775 
	C1703.016602,214.577377 1694.664429,215.343262 1686.523315,214.982956 
	C1672.728149,214.372375 1662.071533,221.724030 1652.738770,230.121613 
	C1635.587036,245.554642 1631.940796,265.825134 1634.280518,288.051971 
	C1634.963135,294.537048 1639.666748,300.417542 1637.077515,307.324860 
	C1636.907349,307.779022 1637.309937,308.856689 1637.729736,309.060638 
	C1642.483765,311.369751 1640.578857,315.496521 1639.537354,318.411011 
	C1638.423218,321.528351 1636.137207,325.538788 1633.408081,326.529327 
	C1623.933838,329.968018 1614.171387,332.939880 1604.275635,334.789276 
	C1595.921143,336.350616 1595.780029,335.551147 1595.577271,327.304657 
	C1595.565918,326.838104 1595.115601,326.389069 1595.078369,325.915405 
	C1594.365723,316.875092 1593.911865,307.807220 1592.918579,298.798615 
	C1592.238525,292.629883 1591.379028,286.364502 1589.514038,280.486725 
	C1588.399780,276.974854 1585.844238,273.105927 1582.807251,271.161743 
	C1570.678589,263.397552 1556.248901,267.697266 1549.652588,280.642120 
	C1544.629639,290.499115 1539.039307,300.066010 1533.754150,309.790710 
	C1530.344971,316.063446 1526.834473,322.292572 1523.717651,328.710297 
	C1518.036133,340.408905 1510.166382,350.132599 1499.779419,357.111450 
	C1498.481689,354.016052 1496.504150,351.139923 1496.164673,348.082001 
	C1495.575806,342.776215 1495.616089,337.324768 1496.075684,331.993347 
	C1497.233398,318.565430 1498.177979,305.075714 1500.296631,291.784271 
	C1503.462524,271.922943 1510.313599,252.702728 1510.904907,232.378723 
	C1510.989258,229.481766 1511.215454,225.775818 1509.656372,223.803833 
	C1505.717651,218.821655 1501.196167,214.095917 1496.163452,210.239212 
	C1490.896484,206.203003 1486.660278,207.744308 1484.089478,213.918533 
	C1481.632324,219.819763 1479.574829,225.894348 1477.505615,231.948776 
	C1473.371460,244.044434 1469.452637,256.214325 1465.249146,268.285370 
	C1461.713135,278.439728 1457.567871,288.391144 1454.290771,298.624054 
	C1449.926880,312.249878 1446.037476,326.031647 1442.147217,339.803772 
	C1439.575684,348.907562 1437.052856,358.045715 1435.060181,367.287476 
	C1432.305542,380.062103 1429.661865,392.887329 1427.718506,405.803436 
	C1425.399414,421.216064 1423.720459,436.731659 1422.068726,452.235077 
	C1421.333984,459.131592 1421.149048,466.105499 1421.081665,473.047852 
	C1421.033569,477.986084 1421.599487,482.930298 1421.980103,488.813354 
M1869.509766,564.012573 
	C1866.317261,554.725037 1862.618286,545.573914 1860.069458,536.112976 
	C1857.308838,525.865479 1855.270752,515.386719 1853.541992,504.905884 
	C1850.447876,486.148529 1847.741577,467.325531 1845.037964,448.506317 
	C1843.894653,440.547791 1843.279785,432.514679 1842.226196,424.541718 
	C1840.571899,412.024567 1838.603149,399.547760 1837.051392,387.018707 
	C1836.080200,379.175659 1836.380615,371.113373 1834.795532,363.420380 
	C1831.006958,345.032013 1830.279297,326.464386 1829.964355,307.816620 
	C1829.925903,305.537170 1829.216309,303.272278 1829.136841,300.989594 
	C1828.995117,296.914948 1829.097168,292.831848 1829.097168,289.094299 
	C1832.572632,288.662506 1835.251221,287.940369 1837.890015,288.064606 
	C1856.287598,288.930573 1871.328613,280.563049 1885.183716,270.081329 
	C1898.397705,260.084656 1911.659912,249.987350 1921.956543,236.637619 
	C1929.186279,227.264267 1937.588013,218.731354 1944.224365,208.978043 
	C1955.416382,192.529388 1964.030518,174.920532 1967.358521,154.795349 
	C1970.117554,138.110901 1969.225708,122.085526 1963.898071,106.212502 
	C1962.807129,102.962059 1960.693481,100.066513 1959.458130,96.851074 
	C1952.671265,79.185768 1941.509644,64.851074 1926.520630,53.464836 
	C1925.407715,52.619350 1923.329956,53.044041 1921.700684,52.878292 
	C1922.008545,54.296295 1922.029541,55.861935 1922.671021,57.108215 
	C1926.688354,64.912704 1931.492920,72.379929 1934.807129,80.463020 
	C1940.270142,93.786301 1939.164062,108.046844 1938.938599,122.077049 
	C1938.896973,124.666107 1938.517822,127.420311 1937.552979,129.797379 
	C1928.711792,151.580444 1921.128540,173.905334 1906.654175,193.047791 
	C1896.628906,206.306213 1887.225830,219.994278 1875.588989,231.975800 
	C1862.525635,245.426392 1849.700928,259.109100 1836.806519,272.723236 
	C1835.176025,274.444702 1833.752808,276.362518 1831.434814,279.149689 
	C1829.673462,274.647919 1827.824829,271.320190 1827.084351,267.761932 
	C1825.086060,258.159058 1824.185547,248.293350 1821.696411,238.835388 
	C1818.161377,225.402817 1814.827026,211.690048 1809.185669,199.091614 
	C1800.356201,179.373672 1790.047119,160.278931 1779.599121,141.342651 
	C1774.801514,132.647476 1768.130249,124.994293 1762.409546,116.798210 
	C1753.709473,104.334259 1743.351318,93.309906 1732.681274,82.573227 
	C1731.529419,81.413986 1729.291138,81.334282 1726.253540,80.317566 
	C1727.307129,83.052124 1727.708862,84.417503 1728.334595,85.671021 
	C1738.486450,106.008324 1749.742554,125.879601 1758.525269,146.790222 
	C1766.607544,166.033066 1772.525391,186.246063 1778.443970,206.312668 
	C1781.802856,217.700775 1786.417358,228.895966 1786.177368,241.255539 
	C1786.047485,247.939774 1787.409912,254.663300 1788.228516,261.353271 
	C1789.424561,271.125854 1791.570923,280.863953 1791.808960,290.653290 
	C1792.187988,306.240753 1791.384644,321.859833 1790.951294,337.461945 
	C1790.851074,341.071106 1790.034058,344.657471 1789.878906,348.268616 
	C1789.501099,357.057129 1788.295288,365.969696 1789.273804,374.623016 
	C1791.205200,391.703552 1793.606934,408.812103 1797.245972,425.598694 
	C1802.287231,448.853973 1808.403809,471.889069 1814.593506,494.874756 
	C1816.451782,501.775574 1820.287476,508.121246 1822.872925,514.853516 
	C1829.135498,531.160889 1836.295166,547.025330 1847.063354,560.890686 
	C1853.729126,569.473755 1861.047729,577.562744 1868.337891,585.634583 
	C1869.484009,586.903687 1872.036499,586.902649 1873.938599,587.488892 
	C1874.250122,585.546448 1875.178833,583.457642 1874.759399,581.688660 
	C1873.403442,575.970764 1871.551636,570.370422 1869.509766,564.012573 
M166.036880,387.521942 
	C164.052017,386.892303 161.798935,386.669769 160.125595,385.567322 
	C148.856583,378.142761 147.931915,372.341461 151.292007,359.714508 
	C154.303284,348.398407 162.433624,339.967072 170.057037,331.584991 
	C187.099594,312.846497 207.085938,297.586884 228.323624,283.922485 
	C240.739365,275.934174 253.280701,268.138885 265.620392,260.035706 
	C269.995605,257.162598 273.997650,253.703415 278.039764,250.354568 
	C278.945190,249.604462 279.695282,248.217621 279.761383,247.080017 
	C279.798309,246.444733 278.368774,245.292053 277.450317,245.104126 
	C271.836884,243.955475 266.214722,242.465759 260.531921,242.113022 
	C244.839508,241.138947 229.119186,240.325317 213.402740,240.169357 
	C207.120560,240.107025 202.448975,238.511322 198.780197,232.536667 
	C200.638184,230.432678 202.231598,227.174149 204.788040,225.983688 
	C216.205978,220.666718 227.643784,215.168472 239.567551,211.227737 
	C250.421371,207.640610 261.752777,205.095383 273.492279,205.912109 
	C281.953247,206.500717 290.693451,205.581848 298.840454,207.416428 
	C305.870575,208.999512 311.879028,209.037674 318.353668,206.100296 
	C325.613831,202.806580 334.325409,191.887558 332.735962,185.821472 
	C329.565704,173.722183 326.270355,161.553406 321.554352,150.015121 
	C319.831451,145.799850 314.413208,141.702957 309.839264,140.304474 
	C295.785187,136.007401 281.060272,137.059052 266.506134,136.924194 
	C254.443558,136.812439 242.886261,139.630737 231.943710,143.815948 
	C212.600586,151.214142 195.385452,162.024826 182.768738,179.215424 
	C177.858704,185.905472 174.649323,193.363083 174.253036,201.135132 
	C173.251556,220.776703 181.141434,236.467377 198.177338,247.057220 
	C203.742355,250.516525 205.015411,257.391724 200.072968,261.159088 
	C191.384262,267.782043 182.155365,273.695984 173.157196,279.913330 
	C166.041138,284.830170 158.359253,289.115143 151.954651,294.830475 
	C142.507278,303.261108 135.700058,313.658966 130.405472,325.459839 
	C125.833382,335.650360 123.532883,346.129791 122.168274,356.840485 
	C120.463295,370.222839 125.059639,382.470612 131.524689,394.023193 
	C136.556168,403.014099 143.816925,409.785187 152.467224,415.261841 
	C163.008011,421.935333 174.934708,423.830719 186.846542,423.771179 
	C203.002213,423.690399 219.218796,422.610535 235.278046,420.797272 
	C247.076111,419.465179 258.920441,417.120605 270.282990,413.696747 
	C286.160675,408.912415 299.368134,399.287384 311.108582,387.182251 
	C309.351593,383.907867 307.811584,380.473572 305.751404,377.386475 
	C304.247070,375.132355 303.555786,371.975830 298.910583,373.339478 
	C287.333588,376.738007 275.608917,379.868408 263.744019,381.991272 
	C249.232559,384.587677 234.566956,386.687408 219.876892,387.818817 
	C205.002136,388.964478 190.017075,388.729950 175.078064,388.942200 
	C172.322937,388.981384 169.557114,388.269012 166.036880,387.521942 
M1892.467163,188.977234 
	C1896.438232,184.359970 1900.779297,180.007828 1904.313354,175.077332 
	C1916.592163,157.946503 1908.947144,140.507278 1892.159424,132.192352 
	C1883.199463,127.754425 1873.444336,129.454803 1863.857422,132.794205 
	C1846.394897,138.877014 1833.134399,149.287796 1825.857910,166.551865 
	C1820.187988,180.004501 1821.909668,192.098587 1838.548340,200.204086 
	C1847.773560,204.698059 1857.426392,203.068985 1866.968140,201.500290 
	C1876.434692,199.943970 1884.410522,195.130630 1892.467163,188.977234 
z"/>
<path fill="#F7BC45" opacity="1.000000" stroke="none" 
	d="
M343.291351,311.373169 
	C358.742279,280.802002 374.009583,250.566925 389.478394,219.932739 
	C398.665466,224.121231 407.314758,228.064255 412.899414,235.798050 
	C415.443573,239.321274 416.435242,244.415878 416.883118,248.921768 
	C418.513367,265.322845 412.068573,280.071472 406.525299,294.935242 
	C402.654358,305.314728 398.453827,315.571533 394.607025,325.959595 
	C393.427338,329.145142 392.930817,332.583710 392.048157,336.207458 
	C394.914398,338.393616 397.569916,339.027435 400.575104,335.984100 
	C410.878723,325.549744 421.359497,315.290161 431.647797,304.840912 
	C438.167389,298.219330 444.493073,291.405487 450.847717,284.623566 
	C453.215973,282.096069 455.373444,279.372284 457.706482,276.810364 
	C463.942444,269.962555 471.996735,269.243439 480.477814,270.300140 
	C483.219543,270.641754 485.981384,271.199707 488.602936,272.058685 
	C497.405121,274.942963 502.420990,283.583740 500.946716,292.730530 
	C498.262604,309.383820 495.330444,326.007721 493.166412,342.729889 
	C492.044037,351.402832 492.081329,360.259796 492.080353,369.033691 
	C492.079498,376.719635 498.432831,380.255188 506.816498,378.734253 
	C517.626953,376.773071 526.007446,370.566071 534.231323,364.136871 
	C546.931824,354.207977 560.208313,344.899292 570.434082,332.123993 
	C575.185303,326.188171 580.266235,320.516174 585.982727,313.802490 
	C587.473206,315.570038 589.345337,317.906128 591.338867,320.133759 
	C598.923096,328.608856 609.757080,327.717224 615.910339,318.397461 
	C621.702637,309.624542 627.902039,301.121490 633.768921,292.396606 
	C640.700623,282.088287 647.395996,271.621155 654.326233,261.311920 
	C661.085144,251.257523 668.204712,241.441284 674.808838,231.288254 
	C681.217102,221.436340 687.215027,211.315643 693.306091,201.260208 
	C696.180115,196.515686 699.655640,191.923569 701.421021,186.769928 
	C703.966614,179.338699 705.193481,171.456757 707.001953,163.771622 
	C708.319946,158.170822 709.463684,152.518265 711.053833,146.994919 
	C713.183105,139.599152 715.522827,132.255585 718.035095,124.980392 
	C721.922241,113.723885 725.787292,102.444878 730.265503,91.420639 
	C731.102600,89.359856 734.748535,87.258705 737.142151,87.206940 
	C750.698608,86.913757 773.635620,94.012283 779.763000,110.418968 
	C783.564331,120.597404 783.739502,130.913071 781.810059,141.510788 
	C779.318298,155.196899 777.331299,168.974106 774.961060,182.683411 
	C773.343933,192.037109 771.240967,201.308929 769.718384,210.676392 
	C767.630859,223.518890 765.861145,236.413528 764.013184,249.294159 
	C763.481384,253.001129 763.149170,256.736725 762.587036,261.674652 
	C769.301697,259.470917 775.028625,257.805939 780.595764,255.715332 
	C789.610840,252.329941 798.348389,251.146454 806.854004,257.636353 
	C801.181030,261.139099 795.673828,264.592682 790.113708,267.958893 
	C783.410950,272.016937 776.411560,275.639771 769.999573,280.109406 
	C762.231628,285.524200 758.324585,292.948883 757.762512,302.916107 
	C757.044617,315.648163 754.885498,328.328583 752.829834,340.946960 
	C750.865967,353.002228 749.480225,364.853821 750.696350,377.242218 
	C751.992737,390.448608 750.878784,403.881592 751.042969,417.212891 
	C751.144897,425.489990 751.783081,433.760223 751.907715,442.037628 
	C751.934692,443.825562 751.117859,445.838013 750.132690,447.394470 
	C744.490784,456.307922 732.772461,459.242950 724.948303,452.700592 
	C720.943420,449.351837 718.489258,443.842041 716.110291,438.932861 
	C713.134155,432.791046 710.738403,426.336212 708.546143,419.862793 
	C707.731384,417.457184 707.394836,414.314148 708.250732,412.037689 
	C710.052063,407.246674 709.107910,402.939026 708.116577,398.237640 
	C705.451599,385.598297 703.336365,372.843781 700.937500,360.147369 
	C699.043640,350.123474 697.015625,340.124847 695.139954,330.097656 
	C694.809509,328.330963 694.936035,326.478851 694.835876,324.330627 
	C688.242981,323.294708 682.922424,326.741241 677.687317,329.283722 
	C668.873962,333.564117 660.092896,337.279510 650.356079,339.284363 
	C641.022522,341.206116 632.619385,345.953491 625.184631,352.245026 
	C614.459839,361.320648 608.655701,374.120697 600.012329,384.749023 
	C594.225586,391.864746 588.089050,398.704926 581.918091,405.494904 
	C579.548401,408.102325 576.837524,410.499817 573.945557,412.508362 
	C569.878540,415.333099 566.212402,414.458832 562.843384,410.596313 
	C553.410583,399.781799 554.834595,387.677765 563.893921,377.570862 
	C573.995239,366.301392 583.932373,354.884796 593.946045,343.536682 
	C596.277710,340.894287 596.791260,338.385498 593.554016,336.019928 
	C592.888916,335.533936 592.361206,334.859772 591.770813,334.271729 
	C587.053650,329.573334 586.976013,329.661743 582.805664,334.648590 
	C572.039124,347.523041 560.935730,360.124603 550.450684,373.222412 
	C544.545837,380.598755 537.841187,386.791382 529.115173,390.162170 
	C521.656311,393.043457 513.765137,394.863464 505.584778,393.295258 
	C499.005493,392.034027 492.412048,390.830780 485.869141,389.399536 
	C474.303802,386.869690 466.427795,379.425476 462.287537,368.874084 
	C459.421936,361.571045 457.786255,353.499451 457.198242,345.651611 
	C456.157684,331.763672 456.304352,317.785187 456.027618,303.843109 
	C455.979675,301.427094 456.293915,299.003876 456.537140,294.998505 
	C452.520721,297.534027 448.384674,299.055573 445.806885,301.960114 
	C434.364624,314.852753 423.247253,328.041016 412.254730,341.322937 
	C404.837341,350.285156 398.321381,360.038330 390.475006,368.586609 
	C384.009796,375.630249 380.625244,383.961609 377.327728,392.478424 
	C375.785278,396.462250 375.106720,400.777954 373.998932,404.933228 
	C371.752502,413.359406 363.773407,420.599152 354.997650,420.934692 
	C346.797424,421.248138 338.426392,421.975098 330.399994,420.751923 
	C319.751556,419.129150 310.856232,415.142120 315.133514,397.391510 
	C319.174896,380.619781 323.282257,363.815704 328.524780,347.397552 
	C332.421692,335.193634 338.179016,323.583801 343.291351,311.373169 
M657.890747,301.265198 
	C657.220886,303.591339 656.551025,305.917511 655.615784,309.165070 
	C657.848938,308.706726 659.349915,308.461517 660.817749,308.086548 
	C667.298157,306.431061 673.725037,304.538025 680.253174,303.103973 
	C691.164001,300.707153 698.459717,291.467255 698.035339,280.652496 
	C697.535339,267.914185 697.336609,255.164108 696.994629,242.419449 
	C696.948242,240.691528 696.828796,238.965546 696.737793,237.128815 
	C695.114258,237.545273 693.972961,237.717987 692.941895,238.152481 
	C692.416809,238.373749 692.169617,239.182770 691.661926,239.527466 
	C681.337158,246.537598 677.703247,258.400818 671.204895,268.131287 
	C664.688232,277.889099 659.637634,288.540802 657.890747,301.265198 
z"/>
<path fill="#F7BC45" opacity="1.000000" stroke="none" 
	d="
M855.374634,248.285858 
	C860.799255,245.550568 865.773071,242.681259 871.045532,240.550827 
	C880.933655,236.555267 891.119690,237.070938 900.946472,240.582108 
	C911.118774,244.216705 910.868042,244.559540 911.036011,255.713852 
	C911.205811,266.990204 912.458252,278.310699 911.770935,289.522034 
	C911.121338,300.116272 907.961853,310.340240 898.992981,317.441101 
	C898.114136,318.136932 896.272949,318.427460 895.260925,318.000153 
	C891.504700,316.414246 887.580078,314.888245 884.361816,312.480133 
	C882.017761,310.726166 880.712219,307.895264 881.926453,304.249817 
	C884.189697,297.454803 885.902527,290.472351 887.706299,283.531952 
	C888.049927,282.209595 887.755554,280.721405 887.755554,278.914032 
	C881.026611,281.591644 878.273132,287.519623 875.010071,292.534302 
	C868.891602,301.936890 862.846375,311.527130 858.159851,321.680511 
	C853.823486,331.075317 850.987854,341.217468 848.105347,351.207642 
	C846.441895,356.972992 845.615906,363.055878 845.087158,369.055267 
	C844.255615,378.490173 853.280151,386.313934 862.725281,387.062317 
	C873.148315,387.888123 882.525940,384.302704 891.777771,380.539062 
	C908.115173,373.892975 922.223816,363.714935 934.892456,351.552185 
	C942.359009,344.383759 950.598816,337.697388 956.618591,329.430817 
	C963.486450,319.999756 969.037476,309.392792 973.794678,298.689667 
	C982.136292,279.921906 992.640808,263.249481 1009.369019,250.610153 
	C1017.003296,244.841949 1024.761230,240.134872 1034.084717,238.535522 
	C1042.119141,237.157318 1049.915161,239.176712 1057.895996,240.621658 
	C1067.799438,242.414719 1067.192383,248.374313 1067.109619,255.567993 
	C1066.999268,265.170135 1067.973755,274.783142 1067.914429,284.388000 
	C1067.853760,294.204834 1065.233154,303.537720 1060.382324,312.105530 
	C1056.194946,319.501465 1049.752319,320.310699 1043.041016,314.552338 
	C1037.200562,309.541168 1036.500732,305.715698 1039.747925,298.441376 
	C1040.524414,296.702057 1040.862549,294.661743 1040.945923,292.740082 
	C1041.123047,288.658722 1041.000000,284.564362 1041.000000,279.349091 
	C1037.711182,283.028595 1033.889038,286.030396 1031.750000,289.950623 
	C1026.529541,299.518585 1021.969788,309.456543 1017.372925,319.351898 
	C1013.959839,326.699005 1011.589783,334.613556 1007.524597,341.554688 
	C1002.023865,350.946838 1001.550415,360.844147 1001.995300,371.124969 
	C1002.320679,378.644135 1008.115417,387.598602 1018.165588,387.268829 
	C1033.252686,386.773773 1046.746948,382.149323 1059.504395,374.885315 
	C1075.047729,366.035034 1089.031616,355.087585 1101.430176,342.117798 
	C1113.493408,329.498535 1125.768921,317.082428 1137.925171,304.551788 
	C1141.388428,300.981842 1141.610718,293.595795 1139.777710,288.261932 
	C1137.361572,281.230774 1135.986206,273.848480 1133.964966,266.673065 
	C1132.184692,260.353333 1132.984131,254.214355 1135.358276,248.361801 
	C1139.377686,238.453262 1148.340820,234.367752 1157.252441,229.900208 
	C1169.287720,223.866577 1177.298096,231.551025 1186.036011,237.155472 
	C1195.669556,243.334473 1202.695312,252.106735 1207.349854,262.248169 
	C1210.712402,269.574524 1212.829956,277.750732 1213.943848,285.764587 
	C1215.571777,297.475189 1215.843140,309.377411 1216.605957,321.203522 
	C1216.881592,325.476654 1219.953125,326.911377 1223.231812,326.889404 
	C1240.173706,326.776093 1257.113647,326.348785 1274.052856,325.965729 
	C1277.945801,325.877686 1282.420410,320.679932 1283.113525,317.477234 
	C1285.107178,308.264923 1287.638550,299.169434 1289.933716,290.021790 
	C1292.315063,280.531372 1294.434937,270.967896 1297.100586,261.558624 
	C1299.499268,253.091812 1302.774536,244.870926 1305.107056,236.388641 
	C1306.711304,230.555038 1309.087524,225.724289 1314.810669,223.057968 
	C1322.910767,219.284134 1335.055420,223.411850 1339.098389,231.285660 
	C1340.223022,233.476059 1341.418579,235.685410 1342.931396,237.611267 
	C1348.747681,245.015396 1347.901489,253.098923 1344.901489,261.006836 
	C1340.029785,273.848450 1334.002319,286.274170 1329.576172,299.255157 
	C1325.901123,310.033691 1323.669922,321.323242 1321.175293,332.470612 
	C1320.640869,334.859253 1321.168213,337.875000 1322.232422,340.114471 
	C1323.165161,342.077698 1325.626831,344.720642 1327.252563,344.614014 
	C1329.604858,344.459717 1332.730957,342.634766 1333.931274,340.587189 
	C1341.264893,328.076843 1348.286499,315.376648 1355.144043,302.595886 
	C1362.993042,287.967773 1370.261719,273.019928 1378.421509,258.571869 
	C1381.169067,253.706924 1384.221558,248.440598 1391.498779,247.825928 
	C1399.617798,247.140152 1403.487061,252.697540 1406.237671,257.901306 
	C1410.804199,266.540802 1411.770874,276.415619 1412.104126,286.268219 
	C1412.320190,292.653229 1413.454590,299.008942 1414.218018,305.372955 
	C1414.658813,309.046814 1415.180298,312.710999 1415.754150,317.049377 
	C1420.878540,314.130798 1426.094971,311.159851 1431.713501,307.959869 
	C1426.987793,321.591187 1417.236328,326.002380 1402.809082,319.404816 
	C1391.903076,314.417511 1386.583252,306.327545 1386.881470,294.088226 
	C1387.127319,283.995239 1386.364868,273.875641 1385.961792,263.771271 
	C1385.904541,262.340027 1385.351685,260.928558 1383.784912,258.987976 
	C1380.926880,264.170593 1377.757324,269.208923 1375.275513,274.565887 
	C1370.131836,285.668060 1365.226562,296.885834 1360.464111,308.157898 
	C1356.444214,317.672455 1352.871948,327.375519 1348.900024,336.911194 
	C1345.715698,344.556305 1342.275879,352.096710 1338.863647,359.644806 
	C1335.311768,367.501862 1332.124756,375.574677 1327.920166,383.071899 
	C1323.408691,391.116272 1318.983032,399.376099 1310.137329,404.058289 
	C1301.012451,408.888245 1288.558472,403.747253 1285.259766,395.022095 
	C1282.937988,388.880768 1281.519531,382.124176 1281.181030,375.565735 
	C1280.550171,363.340851 1281.000000,351.060181 1281.000000,339.000000 
	C1277.299927,339.000000 1274.895264,338.887695 1272.503906,339.017853 
	C1254.681152,339.987915 1236.840210,340.741547 1219.051270,342.149048 
	C1212.618286,342.658020 1208.301270,347.604980 1206.179199,353.268616 
	C1199.755127,370.413940 1191.339233,386.309875 1177.635498,398.664886 
	C1168.451904,406.944641 1157.755127,413.441956 1144.719849,411.854614 
	C1128.281250,409.852905 1120.956665,404.503754 1116.968506,387.993896 
	C1115.095947,380.241730 1113.076904,372.523682 1111.020264,364.817932 
	C1110.047852,361.174805 1108.673340,361.166779 1106.257080,364.109558 
	C1096.858154,375.556732 1087.601440,387.214722 1074.688721,395.068146 
	C1059.212524,404.480743 1042.739502,408.592865 1024.400391,406.233887 
	C1010.993347,404.509308 998.524353,400.650330 986.497131,394.815186 
	C974.882935,389.180389 968.344604,379.584747 964.963196,367.471252 
	C963.814148,363.354889 962.568176,359.265564 961.172668,354.502167 
	C959.642700,355.745667 958.139954,356.594482 957.132629,357.843048 
	C946.277405,371.297333 935.145020,384.635590 920.671753,394.257843 
	C911.426941,400.404022 901.175964,405.438690 889.641907,405.927521 
	C880.944397,406.296143 871.986267,407.247314 863.565186,405.678619 
	C853.404480,403.785828 843.395386,400.182678 833.865784,396.059784 
	C824.926697,392.192383 817.302856,385.986664 812.518799,377.065277 
	C808.541382,369.648071 805.952148,362.120697 805.720398,353.292328 
	C805.355896,339.406342 807.136169,325.914001 811.319153,312.960815 
	C815.336914,300.519287 821.312378,288.842865 828.791016,277.829346 
	C836.297302,266.775024 845.459534,257.507446 855.374634,248.285858 
M1148.000000,268.143982 
	C1148.321533,269.733948 1148.263062,271.539520 1149.023682,272.880493 
	C1156.427246,285.933044 1163.817871,298.997711 1171.530396,311.868195 
	C1175.606812,318.670715 1184.218018,321.867676 1190.717041,319.687439 
	C1197.098999,317.546478 1200.118042,312.477203 1199.957275,303.430359 
	C1199.842773,296.989319 1199.749512,290.499512 1198.897705,284.131622 
	C1197.708252,275.236542 1196.053467,266.384735 1194.168091,257.606750 
	C1192.169312,248.301208 1185.298706,243.351379 1177.175781,239.494400 
	C1168.489380,235.369873 1158.281738,237.027481 1153.111328,244.788681 
	C1148.605835,251.551758 1147.408813,259.225433 1148.000000,268.143982 
M1170.536499,380.010437 
	C1177.442871,367.643524 1184.349365,355.276611 1191.763794,342.000031 
	C1186.730469,342.000031 1182.751709,341.597168 1178.902588,342.130646 
	C1175.954834,342.539215 1172.761230,343.569427 1170.390869,345.300659 
	C1163.259888,350.508728 1158.864502,357.921875 1157.001709,366.370453 
	C1155.425049,373.520996 1153.922729,381.106293 1159.948486,387.466125 
	C1163.254272,390.955261 1164.340088,390.905975 1166.750122,386.620819 
	C1167.872314,384.625580 1168.987183,382.626221 1170.536499,380.010437 
z"/>
<path fill="#F7BC45" opacity="1.000000" stroke="none" 
	d="
M1421.935791,488.342590 
	C1421.599487,482.930298 1421.033569,477.986084 1421.081665,473.047852 
	C1421.149048,466.105499 1421.333984,459.131592 1422.068726,452.235077 
	C1423.720459,436.731659 1425.399414,421.216064 1427.718506,405.803436 
	C1429.661865,392.887329 1432.305542,380.062103 1435.060181,367.287476 
	C1437.052856,358.045715 1439.575684,348.907562 1442.147217,339.803772 
	C1446.037476,326.031647 1449.926880,312.249878 1454.290771,298.624054 
	C1457.567871,288.391144 1461.713135,278.439728 1465.249146,268.285370 
	C1469.452637,256.214325 1473.371460,244.044434 1477.505615,231.948776 
	C1479.574829,225.894348 1481.632324,219.819763 1484.089478,213.918533 
	C1486.660278,207.744308 1490.896484,206.203003 1496.163452,210.239212 
	C1501.196167,214.095917 1505.717651,218.821655 1509.656372,223.803833 
	C1511.215454,225.775818 1510.989258,229.481766 1510.904907,232.378723 
	C1510.313599,252.702728 1503.462524,271.922943 1500.296631,291.784271 
	C1498.177979,305.075714 1497.233398,318.565430 1496.075684,331.993347 
	C1495.616089,337.324768 1495.575806,342.776215 1496.164673,348.082001 
	C1496.504150,351.139923 1498.481689,354.016052 1499.779419,357.111450 
	C1510.166382,350.132599 1518.036133,340.408905 1523.717651,328.710297 
	C1526.834473,322.292572 1530.344971,316.063446 1533.754150,309.790710 
	C1539.039307,300.066010 1544.629639,290.499115 1549.652588,280.642120 
	C1556.248901,267.697266 1570.678589,263.397552 1582.807251,271.161743 
	C1585.844238,273.105927 1588.399780,276.974854 1589.514038,280.486725 
	C1591.379028,286.364502 1592.238525,292.629883 1592.918579,298.798615 
	C1593.911865,307.807220 1594.365723,316.875092 1595.078369,325.915405 
	C1595.115601,326.389069 1595.565918,326.838104 1595.577271,327.304657 
	C1595.780029,335.551147 1595.921143,336.350616 1604.275635,334.789276 
	C1614.171387,332.939880 1623.933838,329.968018 1633.408081,326.529327 
	C1636.137207,325.538788 1638.423218,321.528351 1639.537354,318.411011 
	C1640.578857,315.496521 1642.483765,311.369751 1637.729736,309.060638 
	C1637.309937,308.856689 1636.907349,307.779022 1637.077515,307.324860 
	C1639.666748,300.417542 1634.963135,294.537048 1634.280518,288.051971 
	C1631.940796,265.825134 1635.587036,245.554642 1652.738770,230.121613 
	C1662.071533,221.724030 1672.728149,214.372375 1686.523315,214.982956 
	C1694.664429,215.343262 1703.016602,214.577377 1710.904297,216.159775 
	C1722.298340,218.445602 1729.190552,226.393372 1732.458984,238.962112 
	C1729.664185,239.151047 1727.160278,239.911209 1724.979004,239.370407 
	C1712.324585,236.233032 1699.874512,236.170807 1689.655762,245.051743 
	C1684.149536,249.837082 1679.838379,256.422241 1676.252441,262.895752 
	C1670.487427,273.303375 1669.073120,285.012054 1668.003662,296.783813 
	C1667.247437,305.107971 1669.910645,312.658051 1673.187744,319.581055 
	C1678.017822,329.784637 1684.645752,339.133575 1690.439331,348.887390 
	C1691.747314,351.089325 1693.079834,353.358643 1693.869507,355.770935 
	C1696.145142,362.723938 1702.330444,363.315735 1707.762573,361.434235 
	C1715.896362,358.617035 1723.945923,355.157867 1731.408936,350.884674 
	C1746.844727,342.046387 1759.989624,330.240234 1772.230957,317.377777 
	C1775.373169,314.076294 1779.202881,311.429230 1782.940186,308.294037 
	C1782.940186,311.270630 1784.306641,315.867554 1782.687134,318.834839 
	C1777.574219,328.202759 1772.429443,337.974487 1765.243042,345.672485 
	C1757.843994,353.598236 1748.072266,359.324921 1739.265991,365.916565 
	C1730.865723,372.204224 1722.227905,378.182739 1713.965576,384.643738 
	C1707.640991,389.589508 1706.286865,396.882263 1706.824951,404.342377 
	C1707.963501,420.125946 1702.846924,433.433289 1691.869629,444.611481 
	C1682.832642,453.813782 1673.794067,463.211121 1661.773193,468.435730 
	C1656.122925,470.891510 1649.739258,472.392944 1643.589966,472.782806 
	C1635.869629,473.272308 1628.842896,470.200287 1623.257202,464.566193 
	C1613.686890,454.912476 1616.974731,445.010986 1621.593506,434.830536 
	C1628.240601,420.179352 1641.815186,412.074738 1652.290161,401.031677 
	C1656.256470,396.850403 1659.450317,391.844391 1662.441650,386.880127 
	C1663.488647,385.142731 1662.818359,382.398315 1663.025024,380.122162 
	C1664.254639,366.578094 1657.852417,355.279480 1652.322144,343.734192 
	C1648.857422,336.501312 1648.820801,336.561218 1640.568970,338.705353 
	C1628.558105,341.826172 1616.598755,345.190399 1604.489014,347.870331 
	C1595.720337,349.810913 1589.916382,355.420471 1585.049805,362.135559 
	C1576.797852,373.521820 1569.091064,385.301483 1560.983276,396.794556 
	C1557.838501,401.252472 1554.333008,405.471161 1550.800293,409.636414 
	C1546.680054,414.494354 1543.715576,413.994385 1540.034302,408.612854 
	C1536.133667,402.910736 1532.016602,397.339752 1527.717163,391.931519 
	C1521.848389,384.549438 1519.992065,377.257446 1524.308838,371.739624 
	C1528.138184,366.845154 1532.895264,362.469788 1537.908325,358.765869 
	C1543.025269,354.985168 1549.197388,352.651886 1554.429077,348.999695 
	C1557.339844,346.967804 1560.301025,343.911713 1561.477295,340.676483 
	C1567.478394,324.173523 1571.679565,307.199219 1570.897217,289.454071 
	C1570.656372,283.988770 1569.194946,278.577209 1568.292358,273.141022 
	C1567.775513,273.039276 1567.258545,272.937531 1566.741577,272.835785 
	C1563.845581,277.304535 1560.756348,281.661469 1558.091431,286.264038 
	C1551.388306,297.840363 1544.538208,309.352203 1538.386841,321.221497 
	C1532.684937,332.223816 1528.293701,343.917725 1522.380249,354.793213 
	C1519.174316,360.689362 1514.453247,365.979919 1509.610474,370.721283 
	C1500.222046,379.913269 1491.578491,389.784668 1485.543701,401.328003 
	C1478.049805,415.661987 1470.699219,430.307617 1465.596924,445.589935 
	C1460.292480,461.477875 1456.710205,478.137421 1454.324341,494.739685 
	C1452.487793,507.520630 1450.421875,520.016235 1444.490234,531.426758 
	C1442.937866,534.413208 1438.399414,537.457275 1435.226562,537.463196 
	C1432.846436,537.467590 1429.518066,533.032227 1428.235596,529.907166 
	C1422.850464,516.784912 1420.973877,502.983124 1421.935791,488.342590 
M1656.557007,450.952148 
	C1663.279907,439.260315 1667.878418,427.031403 1666.738525,411.692291 
	C1660.623169,416.024536 1655.557983,419.477875 1650.636963,423.125824 
	C1638.794800,431.904602 1627.651855,441.195923 1624.514282,456.824036 
	C1623.558472,461.584564 1627.745728,467.314606 1632.426147,466.095978 
	C1641.704224,463.680298 1651.571167,461.826599 1656.557007,450.952148 
M1540.042236,363.069275 
	C1531.230225,370.305359 1531.589600,374.206543 1537.008911,381.854584 
	C1544.329590,376.786224 1551.073120,371.330597 1551.806396,361.247528 
	C1547.888916,361.878876 1544.377075,362.444855 1540.042236,363.069275 
z"/>
<path fill="#F7BC45" opacity="1.000000" stroke="none" 
	d="
M1869.700317,564.368652 
	C1871.551636,570.370422 1873.403442,575.970764 1874.759399,581.688660 
	C1875.178833,583.457642 1874.250122,585.546448 1873.938721,587.488892 
	C1872.036499,586.902649 1869.484009,586.903687 1868.337891,585.634583 
	C1861.047729,577.562744 1853.729126,569.473755 1847.063354,560.890686 
	C1836.295166,547.025330 1829.135498,531.160889 1822.872925,514.853516 
	C1820.287476,508.121246 1816.451782,501.775574 1814.593506,494.874756 
	C1808.403809,471.889069 1802.287231,448.853973 1797.245972,425.598694 
	C1793.606934,408.812103 1791.205200,391.703552 1789.273804,374.623016 
	C1788.295288,365.969696 1789.501099,357.057129 1789.878906,348.268616 
	C1790.034058,344.657471 1790.851074,341.071106 1790.951294,337.461945 
	C1791.384644,321.859833 1792.187988,306.240753 1791.808960,290.653290 
	C1791.570923,280.863953 1789.424561,271.125854 1788.228516,261.353271 
	C1787.409912,254.663300 1786.047485,247.939774 1786.177368,241.255539 
	C1786.417358,228.895966 1781.802856,217.700775 1778.443970,206.312668 
	C1772.525391,186.246063 1766.607544,166.033066 1758.525269,146.790222 
	C1749.742554,125.879601 1738.486450,106.008324 1728.334595,85.671021 
	C1727.708862,84.417503 1727.307129,83.052124 1726.253540,80.317566 
	C1729.291138,81.334282 1731.529419,81.413986 1732.681274,82.573227 
	C1743.351318,93.309906 1753.709473,104.334259 1762.409546,116.798210 
	C1768.130249,124.994293 1774.801514,132.647476 1779.599121,141.342651 
	C1790.047119,160.278931 1800.356201,179.373672 1809.185669,199.091614 
	C1814.827026,211.690048 1818.161377,225.402817 1821.696411,238.835388 
	C1824.185547,248.293350 1825.086060,258.159058 1827.084351,267.761932 
	C1827.824829,271.320190 1829.673462,274.647919 1831.434814,279.149689 
	C1833.752808,276.362518 1835.176025,274.444702 1836.806519,272.723236 
	C1849.700928,259.109100 1862.525635,245.426392 1875.588989,231.975800 
	C1887.225830,219.994278 1896.628906,206.306213 1906.654175,193.047791 
	C1921.128540,173.905334 1928.711792,151.580444 1937.552979,129.797379 
	C1938.517822,127.420311 1938.896973,124.666107 1938.938599,122.077049 
	C1939.164062,108.046844 1940.270142,93.786301 1934.807129,80.463020 
	C1931.492920,72.379929 1926.688354,64.912704 1922.671021,57.108215 
	C1922.029541,55.861935 1922.008545,54.296295 1921.700684,52.878288 
	C1923.329956,53.044041 1925.407715,52.619350 1926.520630,53.464836 
	C1941.509644,64.851074 1952.671265,79.185768 1959.458130,96.851074 
	C1960.693481,100.066513 1962.807129,102.962059 1963.898071,106.212502 
	C1969.225708,122.085526 1970.117554,138.110901 1967.358521,154.795349 
	C1964.030518,174.920532 1955.416382,192.529388 1944.224365,208.978043 
	C1937.588013,218.731354 1929.186279,227.264267 1921.956543,236.637619 
	C1911.659912,249.987350 1898.397705,260.084656 1885.183716,270.081329 
	C1871.328613,280.563049 1856.287598,288.930573 1837.890015,288.064606 
	C1835.251221,287.940369 1832.572632,288.662506 1829.097168,289.094299 
	C1829.097168,292.831848 1828.995117,296.914948 1829.136841,300.989594 
	C1829.216309,303.272278 1829.925903,305.537170 1829.964355,307.816620 
	C1830.279297,326.464386 1831.006958,345.032013 1834.795532,363.420380 
	C1836.380615,371.113373 1836.080200,379.175659 1837.051392,387.018707 
	C1838.603149,399.547760 1840.571899,412.024567 1842.226196,424.541718 
	C1843.279785,432.514679 1843.894653,440.547791 1845.037964,448.506317 
	C1847.741577,467.325531 1850.447876,486.148529 1853.541992,504.905884 
	C1855.270752,515.386719 1857.308838,525.865479 1860.069458,536.112976 
	C1862.618286,545.573914 1866.317261,554.725037 1869.700317,564.368652 
z"/>
<path fill="#F7BC45" opacity="1.000000" stroke="none" 
	d="
M166.416565,387.712708 
	C169.557114,388.269012 172.322937,388.981384 175.078064,388.942200 
	C190.017075,388.729950 205.002136,388.964478 219.876892,387.818817 
	C234.566956,386.687408 249.232559,384.587677 263.744019,381.991272 
	C275.608917,379.868408 287.333588,376.738007 298.910583,373.339478 
	C303.555786,371.975830 304.247070,375.132355 305.751404,377.386475 
	C307.811584,380.473572 309.351593,383.907867 311.108582,387.182251 
	C299.368134,399.287384 286.160675,408.912415 270.282990,413.696747 
	C258.920441,417.120605 247.076111,419.465179 235.278046,420.797272 
	C219.218796,422.610535 203.002213,423.690399 186.846542,423.771179 
	C174.934708,423.830719 163.008011,421.935333 152.467224,415.261841 
	C143.816925,409.785187 136.556168,403.014099 131.524689,394.023193 
	C125.059639,382.470612 120.463295,370.222839 122.168274,356.840485 
	C123.532883,346.129791 125.833382,335.650360 130.405472,325.459839 
	C135.700058,313.658966 142.507278,303.261108 151.954651,294.830475 
	C158.359253,289.115143 166.041138,284.830170 173.157196,279.913330 
	C182.155365,273.695984 191.384262,267.782043 200.072968,261.159088 
	C205.015411,257.391724 203.742355,250.516525 198.177338,247.057220 
	C181.141434,236.467377 173.251556,220.776703 174.253036,201.135132 
	C174.649323,193.363083 177.858704,185.905472 182.768738,179.215424 
	C195.385452,162.024826 212.600586,151.214142 231.943710,143.815948 
	C242.886261,139.630737 254.443558,136.812439 266.506134,136.924194 
	C281.060272,137.059052 295.785187,136.007401 309.839264,140.304474 
	C314.413208,141.702957 319.831451,145.799850 321.554352,150.015121 
	C326.270355,161.553406 329.565704,173.722183 332.735962,185.821472 
	C334.325409,191.887558 325.613831,202.806580 318.353668,206.100296 
	C311.879028,209.037674 305.870575,208.999512 298.840454,207.416428 
	C290.693451,205.581848 281.953247,206.500717 273.492279,205.912109 
	C261.752777,205.095383 250.421371,207.640610 239.567551,211.227737 
	C227.643784,215.168472 216.205978,220.666718 204.788040,225.983688 
	C202.231598,227.174149 200.638184,230.432678 198.780197,232.536667 
	C202.448975,238.511322 207.120560,240.107025 213.402740,240.169357 
	C229.119186,240.325317 244.839508,241.138947 260.531921,242.113022 
	C266.214722,242.465759 271.836884,243.955475 277.450317,245.104126 
	C278.368774,245.292053 279.798309,246.444733 279.761383,247.080017 
	C279.695282,248.217621 278.945190,249.604462 278.039764,250.354568 
	C273.997650,253.703415 269.995605,257.162598 265.620392,260.035706 
	C253.280701,268.138885 240.739365,275.934174 228.323624,283.922485 
	C207.085938,297.586884 187.099594,312.846497 170.057037,331.584991 
	C162.433624,339.967072 154.303284,348.398407 151.292007,359.714508 
	C147.931915,372.341461 148.856583,378.142761 160.125595,385.567322 
	C161.798935,386.669769 164.052017,386.892303 166.416565,387.712708 
z"/>
<path fill="#F7BC45" opacity="1.000000" stroke="none" 
	d="
M1892.210571,189.234589 
	C1884.410522,195.130630 1876.434692,199.943970 1866.968140,201.500290 
	C1857.426392,203.068985 1847.773560,204.698059 1838.548340,200.204086 
	C1821.909668,192.098587 1820.187988,180.004501 1825.857910,166.551865 
	C1833.134399,149.287796 1846.394897,138.877014 1863.857422,132.794205 
	C1873.444336,129.454803 1883.199463,127.754425 1892.159424,132.192352 
	C1908.947144,140.507278 1916.592163,157.946503 1904.313354,175.077332 
	C1900.779297,180.007828 1896.438232,184.359970 1892.210571,189.234589 
M1874.077515,163.465851 
	C1878.407349,160.808548 1878.644531,160.448013 1878.179077,157.021545 
	C1867.256592,162.267929 1858.567505,170.053162 1851.404663,179.737930 
	C1860.918823,177.485489 1866.528076,169.716751 1874.077515,163.465851 
z"/>
<path fill="none" opacity="1.000000" stroke="none" 
	d="
M657.948853,300.851501 
	C659.637634,288.540802 664.688232,277.889099 671.204895,268.131287 
	C677.703247,258.400818 681.337158,246.537598 691.661926,239.527466 
	C692.169617,239.182770 692.416809,238.373749 692.941895,238.152481 
	C693.972961,237.717987 695.114258,237.545273 696.737793,237.128815 
	C696.828796,238.965546 696.948242,240.691528 696.994629,242.419449 
	C697.336609,255.164108 697.535339,267.914185 698.035339,280.652496 
	C698.459717,291.467255 691.164001,300.707153 680.253174,303.103973 
	C673.725037,304.538025 667.298157,306.431061 660.817749,308.086548 
	C659.349915,308.461517 657.848938,308.706726 655.615784,309.165070 
	C656.551025,305.917511 657.220886,303.591339 657.948853,300.851501 
z"/>
<path fill="none" opacity="1.000000" stroke="none" 
	d="
M1148.000000,267.686890 
	C1147.408813,259.225433 1148.605835,251.551758 1153.111328,244.788681 
	C1158.281738,237.027481 1168.489380,235.369873 1177.175781,239.494400 
	C1185.298706,243.351379 1192.169312,248.301208 1194.168091,257.606750 
	C1196.053467,266.384735 1197.708252,275.236542 1198.897705,284.131622 
	C1199.749512,290.499512 1199.842773,296.989319 1199.957275,303.430359 
	C1200.118042,312.477203 1197.098999,317.546478 1190.717041,319.687439 
	C1184.218018,321.867676 1175.606812,318.670715 1171.530396,311.868195 
	C1163.817871,298.997711 1156.427246,285.933044 1149.023682,272.880493 
	C1148.263062,271.539520 1148.321533,269.733948 1148.000000,267.686890 
z"/>
<path fill="none" opacity="1.000000" stroke="none" 
	d="
M1170.320801,380.319580 
	C1168.987183,382.626221 1167.872314,384.625580 1166.750122,386.620819 
	C1164.340088,390.905975 1163.254272,390.955261 1159.948486,387.466125 
	C1153.922729,381.106293 1155.425049,373.520996 1157.001709,366.370453 
	C1158.864502,357.921875 1163.259888,350.508728 1170.390869,345.300659 
	C1172.761230,343.569427 1175.954834,342.539215 1178.902588,342.130646 
	C1182.751709,341.597168 1186.730469,342.000031 1191.763794,342.000031 
	C1184.349365,355.276611 1177.442871,367.643524 1170.320801,380.319580 
z"/>
<path fill="none" opacity="1.000000" stroke="none" 
	d="
M1656.292725,451.213623 
	C1651.571167,461.826599 1641.704224,463.680298 1632.426147,466.095978 
	C1627.745728,467.314606 1623.558472,461.584564 1624.514282,456.824036 
	C1627.651855,441.195923 1638.794800,431.904602 1650.636963,423.125824 
	C1655.557983,419.477875 1660.623169,416.024536 1666.738525,411.692291 
	C1667.878418,427.031403 1663.279907,439.260315 1656.292725,451.213623 
z"/>
<path fill="none" opacity="1.000000" stroke="none" 
	d="
M1540.453857,363.040039 
	C1544.377075,362.444855 1547.888916,361.878876 1551.806396,361.247528 
	C1551.073120,371.330597 1544.329590,376.786224 1537.008911,381.854584 
	C1531.589600,374.206543 1531.230225,370.305359 1540.453857,363.040039 
z"/>
<path fill="none" opacity="1.000000" stroke="none" 
	d="
M1873.815674,163.716125 
	C1866.528076,169.716751 1860.918823,177.485489 1851.404663,179.737930 
	C1858.567505,170.053162 1867.256592,162.267929 1878.179077,157.021545 
	C1878.644531,160.448013 1878.407349,160.808548 1873.815674,163.716125 
z"/>
</svg>