<?xml version="1.0" standalone="no"?>
<!DOCTYPE svg PUBLIC "-//W3C//DTD SVG 20010904//EN"
 "http://www.w3.org/TR/2001/REC-SVG-20010904/DTD/svg10.dtd">
<svg version="1.0" xmlns="http://www.w3.org/2000/svg"
 width="300.000000pt" height="300.000000pt" viewBox="0 0 300.000000 300.000000"
 preserveAspectRatio="xMidYMid meet">
<metadata>
Created by potrace 1.10, written by Peter Selinger 2001-2011
</metadata>
<g transform="translate(0.000000,300.000000) scale(0.100000,-0.100000)"
fill="#000000" stroke="none">
<path d="M1627 2075 c-11 -165 -75 -556 -95 -577 -4 -4 -77 -14 -162 -22 -245
-25 -285 -33 -321 -67 -29 -27 -31 -33 -27 -83 3 -34 17 -79 36 -118 77 -152
182 -205 287 -143 68 39 142 168 191 330 10 33 22 66 27 73 6 7 35 12 77 12
l67 0 22 -82 c27 -104 58 -175 71 -162 6 6 -2 42 -19 94 -16 47 -32 100 -36
118 -6 31 -5 32 24 32 17 0 31 5 31 10 0 6 -15 10 -34 10 -33 0 -35 2 -44 48
-30 140 -62 422 -62 548 0 64 -3 84 -13 84 -11 0 -16 -27 -20 -105z m27 -274
c3 -44 15 -128 26 -187 10 -60 18 -109 17 -110 -9 -6 -127 -13 -127 -7 0 4 11
62 24 128 13 66 27 150 31 188 4 37 11 67 15 67 4 0 10 -36 14 -79z m-144
-388 c-44 -139 -83 -223 -132 -286 -38 -47 -75 -67 -128 -67 -36 0 -47 6 -90
50 -60 61 -102 146 -108 215 -7 87 15 97 268 125 52 5 109 12 125 14 17 1 42
4 56 5 l27 1 -18 -57z"/>
<path d="M615 1952 c-84 -61 -154 -162 -155 -222 0 -32 25 -69 56 -80 33 -13
30 -21 -17 -50 -57 -35 -132 -120 -164 -184 -49 -100 -43 -175 16 -232 27 -26
37 -29 92 -29 48 0 75 6 121 29 65 32 171 127 237 213 42 54 44 55 47 30 4
-30 20 -36 28 -9 11 36 47 102 57 102 5 0 7 -18 3 -44 -12 -77 37 -96 80 -31
9 13 14 30 12 37 -3 7 -12 -1 -22 -20 -24 -46 -41 -36 -41 24 0 60 -22 70 -66
28 -28 -27 -29 -27 -29 -6 0 13 -6 22 -15 22 -10 0 -15 -10 -15 -30 0 -24 -21
-50 -117 -147 -165 -166 -269 -216 -336 -162 -32 24 -51 89 -42 138 24 130
182 288 318 318 39 8 51 25 22 31 -9 2 -39 -3 -66 -12 -44 -15 -52 -15 -79 -1
-69 36 -49 119 55 222 100 100 136 96 80 -9 -29 -54 -31 -68 -10 -68 9 0 29
28 47 65 38 76 33 98 -23 103 -26 2 -45 -5 -74 -26z"/>
<path d="M2622 1528 c-6 -6 -12 -20 -12 -30 0 -25 -36 -23 -43 2 -9 37 -84 17
-88 -23 -1 -7 -4 2 -8 18 -9 41 -25 34 -29 -14 -2 -25 -11 -46 -28 -61 -26
-25 -27 -24 -28 30 -1 29 -4 35 -23 34 -19 0 -22 3 -16 24 5 20 2 23 -13 20
-12 -2 -19 -12 -20 -28 0 -48 -34 -72 -34 -26 0 21 -22 56 -35 56 -20 0 -55
-23 -60 -40 -7 -24 -93 -70 -129 -70 -32 0 -43 33 -21 66 10 16 23 24 38 22
12 -2 24 2 27 7 3 6 -9 11 -26 13 -26 3 -37 -3 -60 -31 -55 -65 -156 -99 -169
-57 -9 30 20 71 48 68 12 -2 23 2 25 7 5 18 -49 17 -70 -2 -32 -29 -41 -62
-23 -89 22 -33 80 -33 130 1 20 15 38 25 39 23 23 -54 80 -64 138 -25 l36 25
19 -26 20 -27 57 29 c31 16 59 33 62 37 3 5 12 9 20 9 10 0 14 -10 12 -33 -4
-62 19 -73 64 -30 l28 26 -7 -96 c-4 -69 -3 -97 5 -97 14 0 19 23 27 125 6 78
27 134 53 143 27 9 25 -30 -3 -52 -17 -13 -25 -28 -21 -34 13 -21 39 -13 73
25 31 34 35 35 50 20 15 -15 15 -18 0 -35 -22 -24 -21 -29 2 -42 29 -15 51 -2
51 31 0 22 7 32 31 44 17 9 29 19 26 21 -3 3 -20 -2 -38 -11 -31 -16 -33 -16
-46 1 -18 25 -17 48 3 40 10 -4 14 -1 12 6 -6 18 -31 21 -46 6z m-394 -69 c9
-14 10 -25 4 -31 -15 -15 -32 0 -32 28 0 30 11 31 28 3z"/>
</g>
</svg>
