<svg version="1.1" id="Layer_1" xmlns="http://www.w3.org/2000/svg" xmlns:xlink="http://www.w3.org/1999/xlink" x="0px" y="0px"
	 width="100%" viewBox="0 0 2000 1000" enable-background="new 0 0 2100 1500" xml:space="preserve">
<path fill="#FFFFFF" opacity="1.000000" stroke="none" 
	d="
M1130.000000,1501.000000 
	C753.333313,1501.000000 377.166656,1501.000000 1.000000,1501.000000 
	C1.000000,1001.000000 1.000000,501.000000 1.000000,1.000000 
	C701.000000,1.000000 1401.000000,1.000000 2101.000000,1.000000 
	C2101.000000,501.000000 2101.000000,1001.000000 2101.000000,1501.000000 
	C1777.500000,1501.000000 1454.000000,1501.000000 1130.000000,1501.000000 
M448.000336,725.734924 
	C450.548340,708.722534 452.847687,691.667603 455.744598,674.714844 
	C457.296448,665.633362 452.741119,656.130005 444.118103,653.141479 
	C441.362701,652.186340 438.408600,651.682251 435.502136,651.308472 
	C427.016083,650.217163 418.971130,650.964722 412.726013,657.792297 
	C410.387451,660.348938 408.234985,663.077393 405.866699,665.604797 
	C399.512054,672.386475 393.185852,679.199646 386.666565,685.821350 
	C376.378662,696.270752 365.898560,706.530762 355.595947,716.965942 
	C352.601288,719.999207 349.937225,719.409912 347.055115,717.220093 
	C347.927155,713.609436 348.412537,710.167603 349.591217,706.982361 
	C353.435516,696.593506 357.630859,686.334961 361.509460,675.958374 
	C367.063965,661.098083 373.504211,646.351562 371.882843,629.950867 
	C371.437256,625.443237 370.455994,620.350098 367.920197,616.818237 
	C362.349792,609.059814 353.685486,605.125977 344.902710,601.137756 
	C344.373779,602.631897 344.131989,603.757874 343.607147,604.731262 
	C334.925446,620.832703 326.043213,636.828674 317.559875,653.033569 
	C312.370178,662.946899 307.562500,673.076355 302.973236,683.284058 
	C296.160828,698.436584 288.764282,713.422241 283.340210,729.076294 
	C277.867340,744.871155 274.306305,761.347107 270.258270,777.612000 
	C265.909973,795.083191 273.626953,800.003296 285.598450,801.770081 
	C293.635864,802.956299 302.001892,802.277527 310.197968,801.914917 
	C316.995575,801.614258 322.656036,798.179565 325.760406,792.245239 
	C328.457794,787.088989 329.741425,781.199097 331.712830,775.655823 
	C335.002258,766.406799 338.513397,757.485229 345.320587,749.847656 
	C356.086975,737.768005 365.898438,724.840088 376.191620,712.334900 
	C382.994904,704.069641 389.948761,695.928345 396.806519,687.707642 
	C400.775879,682.949341 404.551605,677.950623 411.906433,677.042603 
	C411.551910,678.462158 411.035858,679.511292 411.070129,680.541992 
	C411.692719,699.254272 411.748596,718.016296 413.282013,736.656189 
	C414.279266,748.779114 419.781342,759.824768 430.820892,765.890259 
	C437.948792,769.806580 446.340942,771.816650 454.410522,773.535156 
	C467.651581,776.354858 480.869934,775.159973 491.889648,766.789124 
	C498.994080,761.392395 504.918396,754.311157 510.845764,747.525574 
	C520.470093,736.507812 529.723877,725.162903 538.989990,713.838196 
	C540.980957,711.404907 542.698120,711.415771 544.780273,713.298645 
	C546.138000,714.526428 547.259460,716.040710 548.703369,717.142822 
	C552.036133,719.686646 551.020874,722.161438 548.807678,724.674744 
	C538.806030,736.032837 528.830688,747.414673 518.763184,758.714233 
	C509.616272,768.980591 508.605408,781.040955 517.925415,791.775452 
	C520.684570,794.953308 525.105225,796.865784 529.070007,793.370667 
	C534.057068,788.974487 538.412964,783.871460 543.254028,779.298706 
	C553.305664,769.803894 560.075500,757.849976 568.251709,746.934937 
	C573.305176,740.188660 579.859436,734.372314 586.466431,729.038330 
	C593.159302,723.634949 601.488831,721.566589 609.841492,719.260620 
	C619.930115,716.475403 629.359009,711.347961 639.166077,707.468567 
	C642.474854,706.159790 646.066589,705.566223 649.550171,704.640076 
	C651.826294,717.666809 653.804016,729.517944 655.985413,741.331421 
	C658.568726,755.321899 661.379272,769.270386 663.955444,783.262146 
	C664.347656,785.392212 664.475281,787.784241 663.920166,789.837402 
	C661.881592,797.378479 663.338928,804.427307 666.667786,811.138550 
	C669.423523,816.694397 672.692261,821.995056 675.713196,827.420288 
	C682.402954,839.434570 694.841675,841.088074 703.504211,830.779236 
	C705.428162,828.489685 706.848511,824.956116 706.843201,821.998291 
	C706.806519,801.390503 706.333130,780.783569 706.000183,760.176331 
	C705.986755,759.343323 706.125061,758.477051 705.945496,757.682129 
	C703.287476,745.915466 705.873596,734.408142 707.554626,722.841797 
	C709.439941,709.869141 711.948914,696.923889 712.753906,683.878235 
	C713.368774,673.913025 717.255188,666.502258 725.032593,661.098145 
	C731.451904,656.637756 738.446350,653.009521 745.147766,648.949524 
	C750.706299,645.581970 756.209229,642.122742 761.850586,638.633728 
	C753.339783,632.121765 744.588257,633.350952 735.566833,636.734497 
	C730.007080,638.819763 724.286438,640.476318 717.579834,642.671814 
	C718.146301,637.708496 718.479614,633.969604 719.013489,630.259583 
	C720.866638,617.380615 722.645508,604.488159 724.733765,591.646545 
	C726.257141,582.278748 728.345215,573.004150 729.962891,563.650146 
	C732.333679,549.941528 734.341003,536.168701 736.821838,522.480957 
	C738.742249,511.885406 738.559998,501.568878 734.750671,491.389099 
	C728.614685,474.991547 705.604187,467.890594 692.110718,468.208221 
	C689.722900,468.264435 686.096680,470.384796 685.258118,472.451141 
	C680.783875,483.476562 676.920471,494.755432 673.033447,506.011414 
	C670.520996,513.286865 668.176208,520.629089 666.046753,528.024963 
	C664.456665,533.547729 663.298401,539.196838 662.006592,544.803162 
	C660.268616,552.345337 659.189758,560.108459 656.680359,567.380737 
	C654.850281,572.684265 651.253296,577.400635 648.291260,582.286194 
	C642.196411,592.338867 636.197449,602.458557 629.789246,612.310120 
	C623.184998,622.463013 616.068665,632.281372 609.309753,642.335693 
	C602.379578,652.644653 595.681091,663.109436 588.749756,673.417542 
	C582.882935,682.142456 576.696594,690.653931 570.893127,699.419678 
	C564.836365,708.567993 553.869446,709.614197 546.680603,701.454956 
	C544.598938,699.092346 542.647339,696.615112 541.101746,694.751831 
	C533.824097,703.349976 527.959778,711.465759 520.887451,718.338501 
	C511.677887,727.288330 501.897980,735.767944 491.637207,743.484070 
	C482.590515,750.287170 473.755798,757.812683 461.789978,759.739990 
	C453.384583,761.093811 446.338806,757.846863 446.975433,748.007019 
	C447.434753,740.907898 447.666656,733.794067 448.000336,725.734924 
M1062.826294,743.121216 
	C1063.903931,744.055420 1065.621948,744.803955 1065.955444,745.953918 
	C1068.130127,753.454590 1070.256836,760.987061 1071.925781,768.612793 
	C1075.637573,785.574402 1084.268799,791.479431 1100.821411,792.887817 
	C1113.705200,793.983948 1124.090942,787.465942 1133.071777,779.243591 
	C1146.546265,766.906860 1154.900269,751.184448 1161.193237,734.165283 
	C1163.228638,728.660889 1167.530518,723.847168 1173.661499,723.188049 
	C1187.760498,721.672363 1201.943726,720.879089 1216.108276,720.060181 
	C1222.302002,719.702209 1228.533691,720.000000 1236.000000,720.000000 
	C1236.000000,732.153442 1235.561646,744.435608 1236.179565,756.664307 
	C1236.502441,763.055603 1238.076782,769.561035 1240.165894,775.643982 
	C1243.295776,784.757507 1256.281006,790.055176 1265.679077,784.810242 
	C1274.082031,780.120789 1278.540283,772.205933 1282.808472,764.444580 
	C1287.609009,755.715393 1290.958008,746.192078 1295.008545,737.045288 
	C1300.542236,724.549683 1306.252930,712.131409 1311.684692,699.592102 
	C1318.158936,684.645935 1324.301025,669.555359 1330.836426,654.636597 
	C1333.028809,649.631836 1335.986938,644.962524 1338.594971,640.139893 
	C1339.078735,640.250854 1339.562622,640.361816 1340.046387,640.472778 
	C1340.364258,642.433411 1340.896118,644.386597 1340.964844,646.355957 
	C1341.370361,657.959839 1341.641357,669.568481 1342.039551,681.172668 
	C1342.083008,682.439392 1342.593140,683.705750 1342.981567,684.942566 
	C1345.941162,694.369446 1353.437500,698.945435 1361.891602,702.368835 
	C1369.940674,705.628174 1379.319336,702.595520 1383.832642,695.410583 
	C1384.950928,693.630371 1385.866089,691.722595 1387.610840,688.523804 
	C1381.201416,692.130127 1375.910522,695.107178 1370.646729,698.068909 
	C1369.680786,689.224243 1368.798950,681.117432 1367.908691,673.011597 
	C1367.273193,667.225220 1366.769287,661.419678 1365.951660,655.658936 
	C1364.636597,646.393799 1362.763916,637.401062 1354.703125,631.096436 
	C1351.093384,628.273193 1343.725220,628.171631 1340.228760,631.206238 
	C1332.868774,637.593994 1330.069214,646.752869 1325.640381,654.894226 
	C1318.809814,667.450439 1312.448120,680.261536 1305.635010,692.827637 
	C1300.578979,702.152649 1295.385498,711.428833 1289.675537,720.357178 
	C1288.070312,722.867004 1284.060913,725.845764 1281.813354,725.386108 
	C1279.464355,724.905640 1277.692993,720.661377 1276.114624,717.815369 
	C1275.482300,716.675293 1275.749023,714.804077 1276.100098,713.388062 
	C1278.888306,702.142090 1281.121460,690.696472 1284.841431,679.759766 
	C1289.204834,666.931824 1295.155151,654.652588 1299.908081,641.944946 
	C1302.788940,634.242249 1303.978638,626.289490 1298.063354,619.025085 
	C1296.526245,617.137390 1295.344238,614.892395 1294.325928,612.662292 
	C1289.990479,603.167419 1276.915649,600.551758 1268.897949,604.579224 
	C1263.583496,607.248901 1261.623169,612.037537 1260.091309,617.438904 
	C1257.690186,625.905334 1254.494385,634.146362 1252.092651,642.612610 
	C1249.378418,652.180847 1247.173828,661.893616 1244.740112,671.541565 
	C1242.501099,680.417969 1240.114136,689.260132 1238.062256,698.179382 
	C1236.925049,703.121887 1233.015137,706.859192 1227.840088,706.986877 
	C1212.901489,707.355591 1197.962524,707.752686 1183.021240,707.970520 
	C1172.570312,708.122925 1171.244507,706.447693 1170.933594,696.125061 
	C1170.613647,685.501099 1170.604858,674.756836 1168.916138,664.314880 
	C1167.058228,652.827576 1162.785889,642.179504 1155.535889,632.433411 
	C1148.811279,623.393677 1140.309814,617.161377 1130.973633,611.796631 
	C1127.438354,609.765137 1122.642578,608.622131 1118.637451,609.058411 
	C1114.082764,609.554626 1109.600464,611.938904 1105.388916,614.093384 
	C1097.712280,618.020630 1091.176636,623.696411 1089.225952,632.277527 
	C1086.335449,644.992615 1089.323486,657.305725 1094.536011,669.033264 
	C1096.717407,673.941162 1096.552979,681.646118 1093.488892,684.983459 
	C1088.331299,690.601013 1083.161133,696.214233 1077.809448,701.645081 
	C1067.516113,712.090454 1057.564087,722.943481 1046.575684,732.610168 
	C1037.501343,740.592957 1027.359863,747.442261 1017.281128,754.180542 
	C1007.591980,760.658569 996.838867,765.143799 985.248596,766.934204 
	C979.576599,767.810364 973.704041,768.082703 967.991394,767.670532 
	C965.598389,767.497925 962.780090,765.302856 961.194702,763.231567 
	C954.506836,754.493408 956.075195,743.986938 957.674011,734.537292 
	C959.007202,726.657227 964.067322,719.397705 967.537842,711.891541 
	C972.809998,700.489014 978.279602,689.175293 983.381836,677.697815 
	C986.340942,671.041321 989.887451,665.039917 996.000000,661.118835 
	C996.000000,665.347534 996.171997,669.395996 995.932251,673.419922 
	C995.799133,675.654053 995.317688,677.999207 994.406677,680.031372 
	C991.286194,686.991333 993.313354,693.717529 999.747498,696.871155 
	C1008.474915,701.148804 1011.953430,699.940613 1016.381592,691.199402 
	C1020.841492,682.395752 1023.093567,673.047363 1022.955872,663.212036 
	C1022.833069,654.435608 1022.058838,645.663574 1022.085632,636.891174 
	C1022.107605,629.682312 1023.051208,623.326294 1012.726807,621.559753 
	C1004.745239,620.194153 996.980347,618.256714 988.930054,619.593750 
	C979.544617,621.152527 971.872864,626.007385 964.233704,631.713318 
	C947.980896,643.853149 937.051392,659.760742 929.622314,678.094910 
	C923.202087,693.939331 914.991943,708.408447 902.922546,720.542603 
	C889.163879,734.375061 874.616577,747.227234 857.194763,756.415710 
	C845.070435,762.810120 832.727417,768.241150 818.569336,768.055847 
	C808.548462,767.924622 798.848572,759.116272 800.052002,749.395630 
	C800.752747,743.735168 801.413147,737.966492 803.080322,732.550903 
	C806.326294,722.006470 809.576660,711.362854 814.117065,701.345886 
	C818.597900,691.460266 824.369080,682.105225 830.175598,672.896729 
	C833.275513,667.980652 837.645447,663.865417 841.442139,659.388672 
	C841.953430,659.720703 842.464722,660.052734 842.975952,660.384766 
	C842.876709,661.815247 842.997009,663.303040 842.641235,664.666565 
	C840.830811,671.606567 839.122986,678.587463 836.915283,685.403809 
	C835.737366,689.040649 837.143738,691.801514 839.479126,693.577087 
	C842.553589,695.914612 846.299622,697.452759 849.918762,698.940857 
	C851.069641,699.414124 853.131348,699.123840 854.106873,698.344727 
	C862.874878,691.342468 866.218506,681.269226 866.746521,670.875122 
	C867.443604,657.154480 866.088928,643.340759 866.154114,629.569641 
	C866.172791,625.619873 864.247742,624.364441 861.426514,623.245056 
	C860.375244,622.827942 859.113281,622.938354 858.066528,622.514221 
	C839.899658,615.154663 823.444641,619.185486 808.771301,630.897522 
	C794.559021,642.241638 783.553101,656.593994 775.355896,672.725464 
	C770.516174,682.249451 766.929810,692.535034 763.868774,702.802795 
	C760.849426,712.930847 761.075928,723.588928 760.789917,734.167969 
	C760.549744,743.053345 763.464233,750.552612 767.449402,757.975891 
	C772.319885,767.048279 780.121216,773.320984 789.159851,777.302551 
	C798.512085,781.422180 808.428406,784.862976 818.446411,786.683960 
	C826.880554,788.217041 835.825684,787.279480 844.524475,786.931641 
	C856.064087,786.470154 866.327576,781.456665 875.580078,775.333435 
	C890.074890,765.740662 901.182861,752.365967 912.083862,738.952576 
	C913.108948,737.691162 914.521667,736.744690 916.158203,735.294128 
	C917.578857,740.173157 918.835083,744.241577 919.945984,748.349243 
	C923.286987,760.703430 930.051880,770.285095 941.831970,775.972778 
	C953.877869,781.788757 966.367981,785.554443 979.769104,787.282349 
	C997.408508,789.556763 1013.442017,785.722473 1028.349976,776.964722 
	C1042.343872,768.743958 1052.593750,756.387451 1062.826294,743.121216 
M1582.644409,849.203308 
	C1587.227417,850.802002 1591.863037,853.832642 1596.381348,853.667053 
	C1603.326782,853.412537 1610.598022,851.929504 1617.003418,849.236938 
	C1629.244873,844.091187 1638.332642,834.412048 1647.419434,825.033203 
	C1658.058716,814.051575 1662.931152,800.902283 1661.836914,785.534668 
	C1661.287720,777.822266 1662.753906,770.484070 1669.184814,765.428101 
	C1677.304565,759.044556 1685.801636,753.142639 1694.088623,746.969727 
	C1702.776123,740.498596 1712.476318,734.951660 1719.763550,727.158325 
	C1727.076660,719.337463 1732.396118,709.486328 1737.651855,700.005188 
	C1739.299316,697.033325 1737.908813,692.377380 1737.908813,687.993164 
	C1733.474854,692.274658 1729.713867,695.633362 1726.264404,699.286316 
	C1714.413696,711.835571 1701.568359,723.237183 1686.536133,731.777100 
	C1679.056274,736.026367 1671.014404,739.454834 1662.914062,742.392151 
	C1655.879761,744.942993 1652.722046,743.171265 1648.801025,736.441345 
	C1647.593384,734.368774 1646.761963,732.075256 1645.534058,730.016479 
	C1639.721191,720.270386 1633.104614,710.918823 1628.220947,700.733032 
	C1624.901367,693.809509 1622.244629,686.222961 1623.006836,677.935425 
	C1624.087646,666.183533 1625.414917,654.445679 1631.222656,644.036011 
	C1634.832642,637.565735 1639.042480,630.914185 1644.534302,626.121338 
	C1654.724121,617.228943 1667.177246,617.179810 1679.852539,620.316162 
	C1682.067139,620.864136 1684.587158,620.178467 1687.417236,620.040588 
	C1684.400635,607.635071 1677.563721,599.738708 1666.516479,597.290039 
	C1658.524902,595.518738 1649.956543,596.407776 1641.652710,595.972534 
	C1628.015747,595.257935 1617.484985,602.552856 1608.176147,610.683105 
	C1590.736816,625.914551 1587.156494,646.347168 1589.068604,668.508362 
	C1589.644775,675.184998 1594.560181,681.126587 1592.070679,688.211182 
	C1591.901001,688.693970 1592.245850,689.772644 1592.653809,689.980164 
	C1597.550537,692.472107 1595.325806,696.568848 1594.451538,699.807800 
	C1593.505249,703.313354 1592.129639,706.968750 1587.681641,708.134399 
	C1578.223389,710.613098 1568.957031,714.012207 1559.381348,715.797241 
	C1551.073242,717.346008 1550.935669,716.592773 1550.393799,707.957031 
	C1550.373779,707.637817 1550.121460,707.334167 1550.096313,707.013977 
	C1549.387329,697.972473 1548.914673,688.905396 1547.921021,679.895691 
	C1547.240601,673.725525 1546.396240,667.459656 1544.548218,661.574768 
	C1543.441162,658.048828 1540.929443,654.124023 1537.894531,652.190979 
	C1525.732422,644.444458 1511.362549,648.581604 1504.705200,661.571045 
	C1499.657837,671.419067 1494.095093,681.002258 1488.808960,690.728882 
	C1485.399658,697.001831 1481.876587,703.224304 1478.756226,709.640381 
	C1473.054199,721.364807 1465.197632,731.151245 1454.748169,738.112244 
	C1453.484375,735.094299 1451.521851,732.217407 1451.167236,729.154358 
	C1450.572510,724.017883 1450.629761,718.730835 1451.072144,713.563660 
	C1452.236206,699.966919 1453.133789,686.301514 1455.279175,672.845459 
	C1458.445923,652.982483 1465.263916,633.761841 1465.957397,613.436218 
	C1466.092896,609.466003 1466.489136,605.518738 1462.982300,602.392944 
	C1459.566895,599.348877 1456.678711,595.697388 1453.176758,592.769836 
	C1445.829712,586.627686 1440.592651,588.715881 1437.918213,598.076050 
	C1435.991089,604.820068 1433.382935,611.373230 1430.990845,617.979736 
	C1427.732544,626.978577 1424.241211,635.895569 1421.124390,644.942200 
	C1417.629761,655.085083 1414.495117,665.351257 1411.104980,675.530823 
	C1407.843384,685.324402 1404.060181,694.962646 1401.223022,704.874207 
	C1397.622559,717.452209 1394.627808,730.209106 1391.590576,742.941040 
	C1388.901245,754.215332 1386.162842,765.497803 1384.093628,776.894165 
	C1382.249634,787.051025 1381.893433,797.492737 1379.813477,807.588745 
	C1375.938354,826.397949 1377.330811,845.468201 1376.120117,864.398743 
	C1375.700439,870.958008 1376.712280,877.604004 1376.989746,884.213745 
	C1377.436157,894.848389 1380.569336,904.818115 1384.883545,914.386353 
	C1387.508911,920.208801 1392.351440,921.214539 1396.039307,916.085022 
	C1400.236084,910.247437 1404.005371,903.520447 1405.731567,896.622253 
	C1408.462402,885.709656 1408.800415,874.218872 1411.140137,863.182434 
	C1413.846680,850.415039 1417.004395,837.667725 1421.132324,825.300964 
	C1424.434204,815.409363 1429.735229,806.204102 1433.698608,796.510132 
	C1441.121094,778.355103 1452.175293,763.027588 1467.021973,750.135803 
	C1471.477661,746.266846 1474.857788,740.761597 1477.629150,735.433044 
	C1483.421265,724.296204 1488.139648,712.600891 1493.934326,701.465454 
	C1499.883789,690.032898 1506.538086,678.964111 1512.990356,667.797668 
	C1515.731201,663.054443 1518.742920,658.467712 1521.631470,653.809875 
	C1522.180664,653.916626 1522.729980,654.023376 1523.279297,654.130127 
	C1524.186157,659.555420 1525.668701,664.956909 1525.894409,670.410400 
	C1526.635376,688.320312 1522.505615,705.465759 1516.256470,722.079529 
	C1515.096558,725.163086 1512.260498,728.069824 1509.463867,729.987183 
	C1504.059570,733.692322 1497.757935,736.133484 1492.528809,740.036865 
	C1487.548462,743.754578 1482.788574,748.180115 1479.156006,753.183350 
	C1474.890991,759.057800 1476.707275,765.391541 1482.693848,772.921448 
	C1486.993408,778.329285 1491.123535,783.890991 1495.017456,789.596802 
	C1498.789429,795.124207 1501.790771,795.509521 1506.138428,790.296387 
	C1509.531494,786.227661 1512.933594,782.140503 1515.980225,777.814087 
	C1524.079102,766.312256 1531.794067,754.536011 1540.046387,743.147644 
	C1544.912476,736.432312 1550.708740,730.812622 1559.480103,728.871399 
	C1571.591675,726.191101 1583.552734,722.826965 1595.565674,719.707092 
	C1603.822021,717.562866 1603.858276,717.504150 1607.321655,724.733032 
	C1612.853760,736.279907 1619.240967,747.580383 1618.038086,761.127808 
	C1617.848022,763.269470 1618.528931,765.658630 1617.809082,767.554382 
	C1614.168579,777.140808 1606.809448,784.225159 1599.029907,789.969788 
	C1589.278198,797.170959 1581.905396,805.890259 1576.445923,816.316345 
	C1570.585205,827.508728 1568.465332,839.083069 1582.644409,849.203308 
M1894.000000,480.716553 
	C1894.415894,495.783722 1893.622925,510.320923 1887.296631,524.733765 
	C1879.629883,542.200562 1872.487793,559.792542 1860.920776,575.112183 
	C1852.208130,586.651611 1843.665405,598.392944 1834.065674,609.170105 
	C1822.354248,622.317627 1809.552856,634.490051 1797.359497,647.215027 
	C1793.769653,650.961365 1790.642578,655.151123 1786.513306,660.080688 
	C1784.748413,655.727844 1782.838501,652.443298 1782.096924,648.913391 
	C1780.114380,639.475830 1779.281860,629.759583 1776.800293,620.472595 
	C1773.088745,606.582153 1769.523315,592.453430 1763.783569,579.351318 
	C1755.440918,560.307495 1746.082520,541.576782 1735.516357,523.681458 
	C1727.385986,509.911316 1717.007568,497.414032 1707.087280,484.775818 
	C1701.211548,477.290070 1694.378662,470.538391 1687.740845,463.684479 
	C1686.578369,462.484131 1684.249878,462.412811 1681.383667,461.463593 
	C1682.288574,464.010986 1682.556885,465.117676 1683.052734,466.110748 
	C1693.209229,486.447632 1704.505981,506.306061 1713.247314,527.232361 
	C1721.546387,547.100220 1727.586792,567.959229 1733.814697,588.625244 
	C1737.149292,599.690186 1741.446167,610.629456 1741.207275,622.642578 
	C1741.077759,629.164246 1742.385254,635.726135 1743.188965,642.252014 
	C1744.392334,652.023804 1746.564453,661.759155 1746.806885,671.547546 
	C1747.192871,687.136230 1746.334717,702.755859 1745.980103,718.361877 
	C1745.961670,719.175720 1745.704468,719.981445 1745.601074,720.796326 
	C1744.137207,732.338867 1742.222168,743.864014 1744.048950,755.551086 
	C1746.706055,772.551880 1748.601196,789.718689 1752.236084,806.508423 
	C1757.271729,829.767944 1762.289185,853.184692 1769.763550,875.721924 
	C1778.064087,900.750061 1788.485962,925.217590 1805.139648,946.237610 
	C1810.775513,953.351135 1817.030029,959.992493 1823.279053,966.586975 
	C1824.488525,967.863403 1826.985352,967.919922 1828.888428,968.539124 
	C1829.156006,966.453796 1830.008911,964.237305 1829.576660,962.308838 
	C1828.471069,957.376343 1826.924927,952.528015 1825.317139,947.725647 
	C1821.730835,937.013306 1817.486328,926.491516 1814.479858,915.623718 
	C1811.781616,905.869995 1810.082520,895.805481 1808.469727,885.793213 
	C1805.445312,867.019897 1802.714355,848.197632 1800.041382,829.370178 
	C1798.933228,821.564636 1798.444092,813.672485 1797.395996,805.856934 
	C1795.718506,793.349243 1793.642090,780.893860 1792.059692,768.375183 
	C1791.047729,760.370056 1791.382080,752.135742 1789.777710,744.276611 
	C1786.123901,726.377991 1785.328003,708.313965 1784.965210,690.165527 
	C1784.909546,687.385498 1784.224609,684.620972 1784.121094,681.838379 
	C1783.970093,677.778748 1784.082275,673.709290 1784.082275,669.525513 
	C1786.249268,669.721741 1787.515869,670.008301 1788.749268,669.903381 
	C1790.197021,669.780151 1791.634033,668.976929 1793.044312,669.052856 
	C1811.095703,670.025391 1825.978394,661.810364 1839.539429,651.610535 
	C1852.893555,641.566406 1865.547852,630.658752 1876.916138,618.058167 
	C1891.608276,601.773315 1904.406372,584.496338 1913.635132,564.669800 
	C1921.690796,547.363647 1925.259033,529.034241 1923.877808,509.957916 
	C1923.419556,503.629730 1922.723145,496.984009 1920.381470,491.192657 
	C1914.485229,476.609222 1908.685059,461.752380 1897.859131,449.894257 
	C1892.575317,444.106689 1886.397339,439.120331 1880.447632,433.975372 
	C1879.713623,433.340668 1877.887939,433.968445 1876.568115,434.011169 
	C1876.734009,435.188599 1876.583496,436.541962 1877.122559,437.512024 
	C1879.098022,441.066956 1881.376953,444.451813 1883.407715,447.977844 
	C1889.093872,457.851410 1892.477783,468.506958 1894.000000,480.716553 
M159.976288,681.481079 
	C167.817154,675.924927 175.517563,670.156189 183.531662,664.862305 
	C195.712311,656.815857 208.183899,649.210266 220.378311,641.184082 
	C224.888641,638.215332 229.023758,634.658752 233.213730,631.228333 
	C235.374512,629.459229 236.359421,626.912415 232.723953,626.176331 
	C225.665024,624.747131 218.493164,623.550110 211.315567,623.106201 
	C199.567245,622.379639 187.774963,622.387451 176.005402,621.968445 
	C171.725555,621.816040 167.220428,622.057983 163.257187,620.769409 
	C159.915939,619.683044 156.949310,616.884460 154.479736,614.227539 
	C154.067261,613.783752 156.557877,609.407654 158.532623,608.210754 
	C164.398270,604.655640 170.576843,601.563843 176.822357,598.704285 
	C182.322205,596.185913 187.913971,593.522705 193.753830,592.166199 
	C205.071350,589.537231 216.295380,586.006592 228.224106,586.920898 
	C236.844681,587.581604 245.786179,586.525818 254.061630,588.466003 
	C261.159821,590.130188 267.156525,589.864136 273.570435,587.039185 
	C280.869751,583.824280 289.230591,572.634033 287.728821,566.583130 
	C285.138397,556.146240 282.301331,545.738708 278.871185,535.553406 
	C276.627594,528.891357 272.290131,523.015503 265.156647,521.141235 
	C250.454407,517.278381 235.320129,517.907104 220.261765,517.960815 
	C208.580078,518.002502 197.375824,520.812500 186.729965,524.921936 
	C167.383942,532.389709 150.148895,543.145874 137.668396,560.443787 
	C132.639328,567.414001 129.363693,575.110291 129.186890,583.379883 
	C128.775238,602.634460 136.785248,617.629883 153.303726,628.320740 
	C159.528412,632.349426 160.344574,637.729309 154.823441,642.271606 
	C146.530991,649.093933 137.226624,654.683044 128.379181,660.834778 
	C120.874832,666.052673 112.843948,670.690918 106.062737,676.727722 
	C96.849861,684.929199 90.490845,695.274231 85.302155,706.703552 
	C80.751518,716.727417 78.540085,727.075684 77.179001,737.613037 
	C75.428986,751.161316 80.099968,763.539856 86.670738,775.251831 
	C91.644585,784.117371 98.856880,790.672485 107.273537,796.150330 
	C117.761597,802.976074 129.718948,804.775513 141.627136,804.762817 
	C156.614151,804.746765 171.613113,803.167908 186.580093,801.937012 
	C195.571793,801.197632 204.739578,800.744995 213.430283,798.571899 
	C233.718613,793.499023 251.640427,783.839783 266.002960,768.070312 
	C265.364532,766.821411 264.794159,765.644348 264.170074,764.496521 
	C262.393402,761.228516 261.313843,756.371643 258.605713,755.155273 
	C255.815186,753.901917 251.433151,756.215759 247.741837,756.940247 
	C232.177155,759.995239 216.681763,763.495850 201.022079,765.945129 
	C188.207062,767.949524 175.220139,769.135925 162.263290,769.867126 
	C150.967590,770.504700 139.595047,770.305359 128.281906,769.847229 
	C123.857414,769.668030 118.903343,768.746460 115.226799,766.481140 
	C103.719131,759.390503 102.580513,753.286133 106.460739,740.816223 
	C108.633720,733.832886 113.511322,727.495605 117.969177,721.457031 
	C129.447708,705.908142 143.908234,693.352966 159.976288,681.481079 
M1818.433105,583.000122 
	C1823.002197,581.803284 1827.705200,580.968872 1832.114502,579.339539 
	C1843.883301,574.990356 1851.832886,565.859924 1859.117676,556.280212 
	C1871.725342,539.700928 1863.986816,520.837341 1846.432617,512.984192 
	C1837.542114,509.006927 1828.301636,510.635284 1819.034424,513.767212 
	C1801.444458,519.711853 1788.047607,530.122925 1780.977783,547.483948 
	C1776.390869,558.747803 1775.749023,566.011414 1785.021118,575.513000 
	C1794.246582,584.966919 1805.673828,584.955811 1818.433105,583.000122 
z"/>
<path fill="#F7BC45" opacity="1.000000" stroke="none" 
	d="
M448.000183,726.210815 
	C447.666656,733.794067 447.434753,740.907898 446.975433,748.007019 
	C446.338806,757.846863 453.384583,761.093811 461.789978,759.739990 
	C473.755798,757.812683 482.590515,750.287170 491.637207,743.484070 
	C501.897980,735.767944 511.677887,727.288330 520.887451,718.338501 
	C527.959778,711.465759 533.824097,703.349976 541.101746,694.751831 
	C542.647339,696.615112 544.598938,699.092346 546.680603,701.454956 
	C553.869446,709.614197 564.836365,708.567993 570.893127,699.419678 
	C576.696594,690.653931 582.882935,682.142456 588.749756,673.417542 
	C595.681091,663.109436 602.379578,652.644653 609.309753,642.335693 
	C616.068665,632.281372 623.184998,622.463013 629.789246,612.310120 
	C636.197449,602.458557 642.196411,592.338867 648.291260,582.286194 
	C651.253296,577.400635 654.850281,572.684265 656.680359,567.380737 
	C659.189758,560.108459 660.268616,552.345337 662.006592,544.803162 
	C663.298401,539.196838 664.456665,533.547729 666.046753,528.024963 
	C668.176208,520.629089 670.520996,513.286865 673.033447,506.011414 
	C676.920471,494.755432 680.783875,483.476562 685.258118,472.451141 
	C686.096680,470.384796 689.722900,468.264435 692.110718,468.208221 
	C705.604187,467.890594 728.614685,474.991547 734.750671,491.389099 
	C738.559998,501.568878 738.742249,511.885406 736.821838,522.480957 
	C734.341003,536.168701 732.333679,549.941528 729.962891,563.650146 
	C728.345215,573.004150 726.257141,582.278748 724.733765,591.646545 
	C722.645508,604.488159 720.866638,617.380615 719.013489,630.259583 
	C718.479614,633.969604 718.146301,637.708496 717.579834,642.671814 
	C724.286438,640.476318 730.007080,638.819763 735.566833,636.734497 
	C744.588257,633.350952 753.339783,632.121765 761.850586,638.633728 
	C756.209229,642.122742 750.706299,645.581970 745.147766,648.949524 
	C738.446350,653.009521 731.451904,656.637756 725.032593,661.098145 
	C717.255188,666.502258 713.368774,673.913025 712.753906,683.878235 
	C711.948914,696.923889 709.439941,709.869141 707.554626,722.841797 
	C705.873596,734.408142 703.287476,745.915466 705.945496,757.682129 
	C706.125061,758.477051 705.986755,759.343323 706.000183,760.176331 
	C706.333130,780.783569 706.806519,801.390503 706.843201,821.998291 
	C706.848511,824.956116 705.428162,828.489685 703.504211,830.779236 
	C694.841675,841.088074 682.402954,839.434570 675.713196,827.420288 
	C672.692261,821.995056 669.423523,816.694397 666.667786,811.138550 
	C663.338928,804.427307 661.881592,797.378479 663.920166,789.837402 
	C664.475281,787.784241 664.347656,785.392212 663.955444,783.262146 
	C661.379272,769.270386 658.568726,755.321899 655.985413,741.331421 
	C653.804016,729.517944 651.826294,717.666809 649.550171,704.640076 
	C646.066589,705.566223 642.474854,706.159790 639.166077,707.468567 
	C629.359009,711.347961 619.930115,716.475403 609.841492,719.260620 
	C601.488831,721.566589 593.159302,723.634949 586.466431,729.038330 
	C579.859436,734.372314 573.305176,740.188660 568.251709,746.934937 
	C560.075500,757.849976 553.305664,769.803894 543.254028,779.298706 
	C538.412964,783.871460 534.057068,788.974487 529.070007,793.370667 
	C525.105225,796.865784 520.684570,794.953308 517.925415,791.775452 
	C508.605408,781.040955 509.616272,768.980591 518.763184,758.714233 
	C528.830688,747.414673 538.806030,736.032837 548.807678,724.674744 
	C551.020874,722.161438 552.036133,719.686646 548.703369,717.142822 
	C547.259460,716.040710 546.138000,714.526428 544.780273,713.298645 
	C542.698120,711.415771 540.980957,711.404907 538.989990,713.838196 
	C529.723877,725.162903 520.470093,736.507812 510.845764,747.525574 
	C504.918396,754.311157 498.994080,761.392395 491.889648,766.789124 
	C480.869934,775.159973 467.651581,776.354858 454.410522,773.535156 
	C446.340942,771.816650 437.948792,769.806580 430.820892,765.890259 
	C419.781342,759.824768 414.279266,748.779114 413.282013,736.656189 
	C411.748596,718.016296 411.692719,699.254272 411.070129,680.541992 
	C411.035858,679.511292 411.551910,678.462158 411.906433,677.042603 
	C404.551605,677.950623 400.775879,682.949341 396.806519,687.707642 
	C389.948761,695.928345 382.994904,704.069641 376.191620,712.334900 
	C365.898438,724.840088 356.086975,737.768005 345.320587,749.847656 
	C338.513397,757.485229 335.002258,766.406799 331.712830,775.655823 
	C329.741425,781.199097 328.457794,787.088989 325.760406,792.245239 
	C322.656036,798.179565 316.995575,801.614258 310.197968,801.914917 
	C302.001892,802.277527 293.635864,802.956299 285.598450,801.770081 
	C273.626953,800.003296 265.909973,795.083191 270.258270,777.612000 
	C274.306305,761.347107 277.867340,744.871155 283.340210,729.076294 
	C288.764282,713.422241 296.160828,698.436584 302.973236,683.284058 
	C307.562500,673.076355 312.370178,662.946899 317.559875,653.033569 
	C326.043213,636.828674 334.925446,620.832703 343.607147,604.731262 
	C344.131989,603.757874 344.373779,602.631897 344.902710,601.137756 
	C353.685486,605.125977 362.349792,609.059814 367.920197,616.818237 
	C370.455994,620.350098 371.437256,625.443237 371.882843,629.950867 
	C373.504211,646.351562 367.063965,661.098083 361.509460,675.958374 
	C357.630859,686.334961 353.435516,696.593506 349.591217,706.982361 
	C348.412537,710.167603 347.927155,713.609436 347.055115,717.220093 
	C349.937225,719.409912 352.601288,719.999207 355.595947,716.965942 
	C365.898560,706.530762 376.378662,696.270752 386.666565,685.821350 
	C393.185852,679.199646 399.512054,672.386475 405.866699,665.604797 
	C408.234985,663.077393 410.387451,660.348938 412.726013,657.792297 
	C418.971130,650.964722 427.016083,650.217163 435.502136,651.308472 
	C438.408600,651.682251 441.362701,652.186340 444.118103,653.141479 
	C452.741119,656.130005 457.296448,665.633362 455.744598,674.714844 
	C452.847687,691.667603 450.548340,708.722534 448.000183,726.210815 
M628.883362,645.314087 
	C619.089661,658.513916 613.637451,673.410950 611.192932,690.176392 
	C612.874695,689.830078 614.113525,689.632751 615.321228,689.316711 
	C621.952209,687.581604 628.528564,685.607483 635.212158,684.110901 
	C646.209717,681.648254 653.451294,672.527100 653.033325,661.676025 
	C652.542297,648.929749 652.336670,636.172485 651.994568,623.420349 
	C651.948181,621.691772 651.828247,619.965088 651.703491,617.456055 
	C649.543884,618.783203 648.084412,619.631653 646.673950,620.554932 
	C637.792725,626.368042 634.545288,636.332275 628.883362,645.314087 
z"/>
<path fill="#F7BC45" opacity="1.000000" stroke="none" 
	d="
M1062.508179,743.327332 
	C1052.593750,756.387451 1042.343872,768.743958 1028.349976,776.964722 
	C1013.442017,785.722473 997.408508,789.556763 979.769104,787.282349 
	C966.367981,785.554443 953.877869,781.788757 941.831970,775.972778 
	C930.051880,770.285095 923.286987,760.703430 919.945984,748.349243 
	C918.835083,744.241577 917.578857,740.173157 916.158203,735.294128 
	C914.521667,736.744690 913.108948,737.691162 912.083862,738.952576 
	C901.182861,752.365967 890.074890,765.740662 875.580078,775.333435 
	C866.327576,781.456665 856.064087,786.470154 844.524475,786.931641 
	C835.825684,787.279480 826.880554,788.217041 818.446411,786.683960 
	C808.428406,784.862976 798.512085,781.422180 789.159851,777.302551 
	C780.121216,773.320984 772.319885,767.048279 767.449402,757.975891 
	C763.464233,750.552612 760.549744,743.053345 760.789917,734.167969 
	C761.075928,723.588928 760.849426,712.930847 763.868774,702.802795 
	C766.929810,692.535034 770.516174,682.249451 775.355896,672.725464 
	C783.553101,656.593994 794.559021,642.241638 808.771301,630.897522 
	C823.444641,619.185486 839.899658,615.154663 858.066528,622.514221 
	C859.113281,622.938354 860.375244,622.827942 861.426514,623.245056 
	C864.247742,624.364441 866.172791,625.619873 866.154114,629.569641 
	C866.088928,643.340759 867.443604,657.154480 866.746521,670.875122 
	C866.218506,681.269226 862.874878,691.342468 854.106873,698.344727 
	C853.131348,699.123840 851.069641,699.414124 849.918762,698.940857 
	C846.299622,697.452759 842.553589,695.914612 839.479126,693.577087 
	C837.143738,691.801514 835.737366,689.040649 836.915283,685.403809 
	C839.122986,678.587463 840.830811,671.606567 842.641235,664.666565 
	C842.997009,663.303040 842.876709,661.815247 842.975952,660.384766 
	C842.464722,660.052734 841.953430,659.720703 841.442139,659.388672 
	C837.645447,663.865417 833.275513,667.980652 830.175598,672.896729 
	C824.369080,682.105225 818.597900,691.460266 814.117065,701.345886 
	C809.576660,711.362854 806.326294,722.006470 803.080322,732.550903 
	C801.413147,737.966492 800.752747,743.735168 800.052002,749.395630 
	C798.848572,759.116272 808.548462,767.924622 818.569336,768.055847 
	C832.727417,768.241150 845.070435,762.810120 857.194763,756.415710 
	C874.616577,747.227234 889.163879,734.375061 902.922546,720.542603 
	C914.991943,708.408447 923.202087,693.939331 929.622314,678.094910 
	C937.051392,659.760742 947.980896,643.853149 964.233704,631.713318 
	C971.872864,626.007385 979.544617,621.152527 988.930054,619.593750 
	C996.980347,618.256714 1004.745239,620.194153 1012.726807,621.559753 
	C1023.051208,623.326294 1022.107605,629.682312 1022.085632,636.891174 
	C1022.058838,645.663574 1022.833069,654.435608 1022.955872,663.212036 
	C1023.093567,673.047363 1020.841492,682.395752 1016.381592,691.199402 
	C1011.953430,699.940613 1008.474915,701.148804 999.747498,696.871155 
	C993.313354,693.717529 991.286194,686.991333 994.406677,680.031372 
	C995.317688,677.999207 995.799133,675.654053 995.932251,673.419922 
	C996.171997,669.395996 996.000000,665.347534 996.000000,661.118835 
	C989.887451,665.039917 986.340942,671.041321 983.381836,677.697815 
	C978.279602,689.175293 972.809998,700.489014 967.537842,711.891541 
	C964.067322,719.397705 959.007202,726.657227 957.674011,734.537292 
	C956.075195,743.986938 954.506836,754.493408 961.194702,763.231567 
	C962.780090,765.302856 965.598389,767.497925 967.991394,767.670532 
	C973.704041,768.082703 979.576599,767.810364 985.248596,766.934204 
	C996.838867,765.143799 1007.591980,760.658569 1017.281128,754.180542 
	C1027.359863,747.442261 1037.501343,740.592957 1046.575684,732.610168 
	C1057.564087,722.943481 1067.516113,712.090454 1077.809448,701.645081 
	C1083.161133,696.214233 1088.331299,690.601013 1093.488892,684.983459 
	C1096.552979,681.646118 1096.717407,673.941162 1094.536011,669.033264 
	C1089.323486,657.305725 1086.335449,644.992615 1089.225952,632.277527 
	C1091.176636,623.696411 1097.712280,618.020630 1105.388916,614.093384 
	C1109.600464,611.938904 1114.082764,609.554626 1118.637451,609.058411 
	C1122.642578,608.622131 1127.438354,609.765137 1130.973633,611.796631 
	C1140.309814,617.161377 1148.811279,623.393677 1155.535889,632.433411 
	C1162.785889,642.179504 1167.058228,652.827576 1168.916138,664.314880 
	C1170.604858,674.756836 1170.613647,685.501099 1170.933594,696.125061 
	C1171.244507,706.447693 1172.570312,708.122925 1183.021240,707.970520 
	C1197.962524,707.752686 1212.901489,707.355591 1227.840088,706.986877 
	C1233.015137,706.859192 1236.925049,703.121887 1238.062256,698.179382 
	C1240.114136,689.260132 1242.501099,680.417969 1244.740112,671.541565 
	C1247.173828,661.893616 1249.378418,652.180847 1252.092651,642.612610 
	C1254.494385,634.146362 1257.690186,625.905334 1260.091309,617.438904 
	C1261.623169,612.037537 1263.583496,607.248901 1268.897949,604.579224 
	C1276.915649,600.551758 1289.990479,603.167419 1294.325928,612.662292 
	C1295.344238,614.892395 1296.526245,617.137390 1298.063354,619.025085 
	C1303.978638,626.289490 1302.788940,634.242249 1299.908081,641.944946 
	C1295.155151,654.652588 1289.204834,666.931824 1284.841431,679.759766 
	C1281.121460,690.696472 1278.888306,702.142090 1276.100098,713.388062 
	C1275.749023,714.804077 1275.482300,716.675293 1276.114624,717.815369 
	C1277.692993,720.661377 1279.464355,724.905640 1281.813354,725.386108 
	C1284.060913,725.845764 1288.070312,722.867004 1289.675537,720.357178 
	C1295.385498,711.428833 1300.578979,702.152649 1305.635010,692.827637 
	C1312.448120,680.261536 1318.809814,667.450439 1325.640381,654.894226 
	C1330.069214,646.752869 1332.868774,637.593994 1340.228760,631.206238 
	C1343.725220,628.171631 1351.093384,628.273193 1354.703125,631.096436 
	C1362.763916,637.401062 1364.636597,646.393799 1365.951660,655.658936 
	C1366.769287,661.419678 1367.273193,667.225220 1367.908691,673.011597 
	C1368.798950,681.117432 1369.680786,689.224243 1370.646729,698.068909 
	C1375.910522,695.107178 1381.201416,692.130127 1387.610840,688.523804 
	C1385.866089,691.722595 1384.950928,693.630371 1383.832642,695.410583 
	C1379.319336,702.595520 1369.940674,705.628174 1361.891602,702.368835 
	C1353.437500,698.945435 1345.941162,694.369446 1342.981567,684.942566 
	C1342.593140,683.705750 1342.083008,682.439392 1342.039551,681.172668 
	C1341.641357,669.568481 1341.370361,657.959839 1340.964844,646.355957 
	C1340.896118,644.386597 1340.364258,642.433411 1340.046387,640.472778 
	C1339.562622,640.361816 1339.078735,640.250854 1338.594971,640.139893 
	C1335.986938,644.962524 1333.028809,649.631836 1330.836426,654.636597 
	C1324.301025,669.555359 1318.158936,684.645935 1311.684692,699.592102 
	C1306.252930,712.131409 1300.542236,724.549683 1295.008545,737.045288 
	C1290.958008,746.192078 1287.609009,755.715393 1282.808472,764.444580 
	C1278.540283,772.205933 1274.082031,780.120789 1265.679077,784.810242 
	C1256.281006,790.055176 1243.295776,784.757507 1240.165894,775.643982 
	C1238.076782,769.561035 1236.502441,763.055603 1236.179565,756.664307 
	C1235.561646,744.435608 1236.000000,732.153442 1236.000000,720.000000 
	C1228.533691,720.000000 1222.302002,719.702209 1216.108276,720.060181 
	C1201.943726,720.879089 1187.760498,721.672363 1173.661499,723.188049 
	C1167.530518,723.847168 1163.228638,728.660889 1161.193237,734.165283 
	C1154.900269,751.184448 1146.546265,766.906860 1133.071777,779.243591 
	C1124.090942,787.465942 1113.705200,793.983948 1100.821411,792.887817 
	C1084.268799,791.479431 1075.637573,785.574402 1071.925781,768.612793 
	C1070.256836,760.987061 1068.130127,753.454590 1065.955444,745.953918 
	C1065.621948,744.803955 1063.903931,744.055420 1062.508179,743.327332 
M1152.029907,650.552856 
	C1149.697754,640.438782 1148.547607,629.817017 1138.246094,623.671448 
	C1130.345337,618.958008 1122.108643,615.611450 1113.105469,621.003174 
	C1106.106079,625.194946 1104.228882,632.510925 1103.188599,639.726318 
	C1102.523804,644.338623 1102.363770,649.807617 1104.233032,653.849365 
	C1109.150757,664.482910 1114.927979,674.777771 1121.105957,684.747009 
	C1124.634521,690.440857 1127.702881,696.834900 1134.572998,699.896484 
	C1142.710205,703.522583 1151.765747,700.188171 1153.867432,691.614563 
	C1157.167358,678.153320 1153.639282,664.784485 1152.029907,650.552856 
M1120.891724,769.382019 
	C1129.369507,754.172424 1137.847290,738.962891 1146.542603,723.362976 
	C1128.886108,722.722473 1130.256714,721.585083 1121.578735,729.869934 
	C1119.052734,732.281372 1117.070801,735.392578 1115.316406,738.456177 
	C1111.197021,745.649353 1110.263184,753.590027 1111.123047,761.673218 
	C1111.693481,767.034851 1116.685181,771.146057 1120.891724,769.382019 
z"/>
<path fill="#F7BC45" opacity="1.000000" stroke="none" 
	d="
M1582.372070,848.921875 
	C1568.465332,839.083069 1570.585205,827.508728 1576.445923,816.316345 
	C1581.905396,805.890259 1589.278198,797.170959 1599.029907,789.969788 
	C1606.809448,784.225159 1614.168579,777.140808 1617.809082,767.554382 
	C1618.528931,765.658630 1617.848022,763.269470 1618.038086,761.127808 
	C1619.240967,747.580383 1612.853760,736.279907 1607.321655,724.733032 
	C1603.858276,717.504150 1603.822021,717.562866 1595.565674,719.707092 
	C1583.552734,722.826965 1571.591675,726.191101 1559.480103,728.871399 
	C1550.708740,730.812622 1544.912476,736.432312 1540.046387,743.147644 
	C1531.794067,754.536011 1524.079102,766.312256 1515.980225,777.814087 
	C1512.933594,782.140503 1509.531494,786.227661 1506.138428,790.296387 
	C1501.790771,795.509521 1498.789429,795.124207 1495.017456,789.596802 
	C1491.123535,783.890991 1486.993408,778.329285 1482.693848,772.921448 
	C1476.707275,765.391541 1474.890991,759.057800 1479.156006,753.183350 
	C1482.788574,748.180115 1487.548462,743.754578 1492.528809,740.036865 
	C1497.757935,736.133484 1504.059570,733.692322 1509.463867,729.987183 
	C1512.260498,728.069824 1515.096558,725.163086 1516.256470,722.079529 
	C1522.505615,705.465759 1526.635376,688.320312 1525.894409,670.410400 
	C1525.668701,664.956909 1524.186157,659.555420 1523.279297,654.130127 
	C1522.729980,654.023376 1522.180664,653.916626 1521.631470,653.809875 
	C1518.742920,658.467712 1515.731201,663.054443 1512.990356,667.797668 
	C1506.538086,678.964111 1499.883789,690.032898 1493.934326,701.465454 
	C1488.139648,712.600891 1483.421265,724.296204 1477.629150,735.433044 
	C1474.857788,740.761597 1471.477661,746.266846 1467.021973,750.135803 
	C1452.175293,763.027588 1441.121094,778.355103 1433.698608,796.510132 
	C1429.735229,806.204102 1424.434204,815.409363 1421.132324,825.300964 
	C1417.004395,837.667725 1413.846680,850.415039 1411.140137,863.182434 
	C1408.800415,874.218872 1408.462402,885.709656 1405.731567,896.622253 
	C1404.005371,903.520447 1400.236084,910.247437 1396.039307,916.085022 
	C1392.351440,921.214539 1387.508911,920.208801 1384.883545,914.386353 
	C1380.569336,904.818115 1377.436157,894.848389 1376.989746,884.213745 
	C1376.712280,877.604004 1375.700439,870.958008 1376.120117,864.398743 
	C1377.330811,845.468201 1375.938354,826.397949 1379.813477,807.588745 
	C1381.893433,797.492737 1382.249634,787.051025 1384.093628,776.894165 
	C1386.162842,765.497803 1388.901245,754.215332 1391.590576,742.941040 
	C1394.627808,730.209106 1397.622559,717.452209 1401.223022,704.874207 
	C1404.060181,694.962646 1407.843384,685.324402 1411.104980,675.530823 
	C1414.495117,665.351257 1417.629761,655.085083 1421.124390,644.942200 
	C1424.241211,635.895569 1427.732544,626.978577 1430.990845,617.979736 
	C1433.382935,611.373230 1435.991089,604.820068 1437.918213,598.076050 
	C1440.592651,588.715881 1445.829712,586.627686 1453.176758,592.769836 
	C1456.678711,595.697388 1459.566895,599.348877 1462.982300,602.392944 
	C1466.489136,605.518738 1466.092896,609.466003 1465.957397,613.436218 
	C1465.263916,633.761841 1458.445923,652.982483 1455.279175,672.845459 
	C1453.133789,686.301514 1452.236206,699.966919 1451.072144,713.563660 
	C1450.629761,718.730835 1450.572510,724.017883 1451.167236,729.154358 
	C1451.521851,732.217407 1453.484375,735.094299 1454.748169,738.112244 
	C1465.197632,731.151245 1473.054199,721.364807 1478.756226,709.640381 
	C1481.876587,703.224304 1485.399658,697.001831 1488.808960,690.728882 
	C1494.095093,681.002258 1499.657837,671.419067 1504.705200,661.571045 
	C1511.362549,648.581604 1525.732422,644.444458 1537.894531,652.190979 
	C1540.929443,654.124023 1543.441162,658.048828 1544.548218,661.574768 
	C1546.396240,667.459656 1547.240601,673.725525 1547.921021,679.895691 
	C1548.914673,688.905396 1549.387329,697.972473 1550.096313,707.013977 
	C1550.121460,707.334167 1550.373779,707.637817 1550.393799,707.957031 
	C1550.935669,716.592773 1551.073242,717.346008 1559.381348,715.797241 
	C1568.957031,714.012207 1578.223389,710.613098 1587.681641,708.134399 
	C1592.129639,706.968750 1593.505249,703.313354 1594.451538,699.807800 
	C1595.325806,696.568848 1597.550537,692.472107 1592.653809,689.980164 
	C1592.245850,689.772644 1591.901001,688.693970 1592.070679,688.211182 
	C1594.560181,681.126587 1589.644775,675.184998 1589.068604,668.508362 
	C1587.156494,646.347168 1590.736816,625.914551 1608.176147,610.683105 
	C1617.484985,602.552856 1628.015747,595.257935 1641.652710,595.972534 
	C1649.956543,596.407776 1658.524902,595.518738 1666.516479,597.290039 
	C1677.563721,599.738708 1684.400635,607.635071 1687.417236,620.040588 
	C1684.587158,620.178467 1682.067139,620.864136 1679.852539,620.316162 
	C1667.177246,617.179810 1654.724121,617.228943 1644.534302,626.121338 
	C1639.042480,630.914185 1634.832642,637.565735 1631.222656,644.036011 
	C1625.414917,654.445679 1624.087646,666.183533 1623.006836,677.935425 
	C1622.244629,686.222961 1624.901367,693.809509 1628.220947,700.733032 
	C1633.104614,710.918823 1639.721191,720.270386 1645.534058,730.016479 
	C1646.761963,732.075256 1647.593384,734.368774 1648.801025,736.441345 
	C1652.722046,743.171265 1655.879761,744.942993 1662.914062,742.392151 
	C1671.014404,739.454834 1679.056274,736.026367 1686.536133,731.777100 
	C1701.568359,723.237183 1714.413696,711.835571 1726.264404,699.286316 
	C1729.713867,695.633362 1733.474854,692.274658 1737.908813,687.993164 
	C1737.908813,692.377380 1739.299316,697.033325 1737.651855,700.005188 
	C1732.396118,709.486328 1727.076660,719.337463 1719.763550,727.158325 
	C1712.476318,734.951660 1702.776123,740.498596 1694.088623,746.969727 
	C1685.801636,753.142639 1677.304565,759.044556 1669.184814,765.428101 
	C1662.753906,770.484070 1661.287720,777.822266 1661.836914,785.534668 
	C1662.931152,800.902283 1658.058716,814.051575 1647.419434,825.033203 
	C1638.332642,834.412048 1629.244873,844.091187 1617.003418,849.236938 
	C1610.598022,851.929504 1603.326782,853.412537 1596.381348,853.667053 
	C1591.863037,853.832642 1587.227417,850.802002 1582.372070,848.921875 
M1582.922852,845.437439 
	C1586.595093,848.797485 1590.037354,846.288574 1593.673584,845.202209 
	C1599.698486,843.402039 1605.053589,841.417969 1609.095703,835.712036 
	C1615.689819,826.404236 1619.160522,816.044678 1621.685303,805.258240 
	C1622.506714,801.749023 1621.814209,797.885437 1621.814209,793.598511 
	C1620.201294,794.288208 1619.246582,794.505554 1618.520752,795.036133 
	C1610.857300,800.637939 1602.965576,805.969543 1595.662598,812.011292 
	C1587.132202,819.068604 1581.113037,828.045959 1579.260742,839.171509 
	C1578.969482,840.920349 1581.203613,843.089722 1582.922852,845.437439 
M1494.484619,761.012512 
	C1501.020264,756.421570 1506.187988,750.959900 1506.776733,742.157715 
	C1503.204102,742.819580 1500.062256,743.521606 1496.884277,743.962585 
	C1491.950806,744.647156 1489.364746,748.421570 1488.652954,752.307373 
	C1488.088013,755.391052 1490.244873,758.973267 1491.193237,762.334106 
	C1492.120972,762.065002 1493.048706,761.795959 1494.484619,761.012512 
z"/>
<path fill="#F7BC45" opacity="1.000000" stroke="none" 
	d="
M1894.000000,480.245911 
	C1892.477783,468.506958 1889.093872,457.851410 1883.407715,447.977844 
	C1881.376953,444.451813 1879.098022,441.066956 1877.122559,437.512024 
	C1876.583496,436.541962 1876.734009,435.188599 1876.568115,434.011169 
	C1877.887939,433.968445 1879.713623,433.340668 1880.447632,433.975372 
	C1886.397339,439.120331 1892.575317,444.106689 1897.859131,449.894257 
	C1908.685059,461.752380 1914.485229,476.609222 1920.381470,491.192657 
	C1922.723145,496.984009 1923.419556,503.629730 1923.877808,509.957916 
	C1925.259033,529.034241 1921.690796,547.363647 1913.635132,564.669800 
	C1904.406372,584.496338 1891.608276,601.773315 1876.916138,618.058167 
	C1865.547852,630.658752 1852.893555,641.566406 1839.539429,651.610535 
	C1825.978394,661.810364 1811.095703,670.025391 1793.044312,669.052856 
	C1791.634033,668.976929 1790.197021,669.780151 1788.749268,669.903381 
	C1787.515869,670.008301 1786.249268,669.721741 1784.082275,669.525513 
	C1784.082275,673.709290 1783.970093,677.778748 1784.121094,681.838379 
	C1784.224609,684.620972 1784.909546,687.385498 1784.965210,690.165527 
	C1785.328003,708.313965 1786.123901,726.377991 1789.777710,744.276611 
	C1791.382080,752.135742 1791.047729,760.370056 1792.059692,768.375183 
	C1793.642090,780.893860 1795.718506,793.349243 1797.395996,805.856934 
	C1798.444092,813.672485 1798.933228,821.564636 1800.041382,829.370178 
	C1802.714355,848.197632 1805.445312,867.019897 1808.469727,885.793213 
	C1810.082520,895.805481 1811.781616,905.869995 1814.479858,915.623718 
	C1817.486328,926.491516 1821.730835,937.013306 1825.317139,947.725647 
	C1826.924927,952.528015 1828.471069,957.376343 1829.576660,962.308838 
	C1830.008911,964.237305 1829.156006,966.453796 1828.888428,968.539124 
	C1826.985352,967.919922 1824.488525,967.863403 1823.279053,966.586975 
	C1817.030029,959.992493 1810.775513,953.351135 1805.139648,946.237610 
	C1788.485962,925.217590 1778.064087,900.750061 1769.763550,875.721924 
	C1762.289185,853.184692 1757.271729,829.767944 1752.236084,806.508423 
	C1748.601196,789.718689 1746.706055,772.551880 1744.048950,755.551086 
	C1742.222168,743.864014 1744.137207,732.338867 1745.601074,720.796326 
	C1745.704468,719.981445 1745.961670,719.175720 1745.980103,718.361877 
	C1746.334717,702.755859 1747.192871,687.136230 1746.806885,671.547546 
	C1746.564453,661.759155 1744.392334,652.023804 1743.188965,642.252014 
	C1742.385254,635.726135 1741.077759,629.164246 1741.207275,622.642578 
	C1741.446167,610.629456 1737.149292,599.690186 1733.814697,588.625244 
	C1727.586792,567.959229 1721.546387,547.100220 1713.247314,527.232361 
	C1704.505981,506.306061 1693.209229,486.447632 1683.052734,466.110748 
	C1682.556885,465.117676 1682.288574,464.010986 1681.383667,461.463593 
	C1684.249878,462.412811 1686.578369,462.484131 1687.740845,463.684479 
	C1694.378662,470.538391 1701.211548,477.290070 1707.087280,484.775818 
	C1717.007568,497.414032 1727.385986,509.911316 1735.516357,523.681458 
	C1746.082520,541.576782 1755.440918,560.307495 1763.783569,579.351318 
	C1769.523315,592.453430 1773.088745,606.582153 1776.800293,620.472595 
	C1779.281860,629.759583 1780.114380,639.475830 1782.096924,648.913391 
	C1782.838501,652.443298 1784.748413,655.727844 1786.513306,660.080688 
	C1790.642578,655.151123 1793.769653,650.961365 1797.359497,647.215027 
	C1809.552856,634.490051 1822.354248,622.317627 1834.065674,609.170105 
	C1843.665405,598.392944 1852.208130,586.651611 1860.920776,575.112183 
	C1872.487793,559.792542 1879.629883,542.200562 1887.296631,524.733765 
	C1893.622925,510.320923 1894.415894,495.783722 1894.000000,480.245911 
z"/>
<path fill="#F7BC45" opacity="1.000000" stroke="none" 
	d="
M159.670822,681.690674 
	C143.908234,693.352966 129.447708,705.908142 117.969177,721.457031 
	C113.511322,727.495605 108.633720,733.832886 106.460739,740.816223 
	C102.580513,753.286133 103.719131,759.390503 115.226799,766.481140 
	C118.903343,768.746460 123.857414,769.668030 128.281906,769.847229 
	C139.595047,770.305359 150.967590,770.504700 162.263290,769.867126 
	C175.220139,769.135925 188.207062,767.949524 201.022079,765.945129 
	C216.681763,763.495850 232.177155,759.995239 247.741837,756.940247 
	C251.433151,756.215759 255.815186,753.901917 258.605713,755.155273 
	C261.313843,756.371643 262.393402,761.228516 264.170074,764.496521 
	C264.794159,765.644348 265.364532,766.821411 266.002960,768.070312 
	C251.640427,783.839783 233.718613,793.499023 213.430283,798.571899 
	C204.739578,800.744995 195.571793,801.197632 186.580093,801.937012 
	C171.613113,803.167908 156.614151,804.746765 141.627136,804.762817 
	C129.718948,804.775513 117.761597,802.976074 107.273537,796.150330 
	C98.856880,790.672485 91.644585,784.117371 86.670738,775.251831 
	C80.099968,763.539856 75.428986,751.161316 77.179001,737.613037 
	C78.540085,727.075684 80.751518,716.727417 85.302155,706.703552 
	C90.490845,695.274231 96.849861,684.929199 106.062737,676.727722 
	C112.843948,670.690918 120.874832,666.052673 128.379181,660.834778 
	C137.226624,654.683044 146.530991,649.093933 154.823441,642.271606 
	C160.344574,637.729309 159.528412,632.349426 153.303726,628.320740 
	C136.785248,617.629883 128.775238,602.634460 129.186890,583.379883 
	C129.363693,575.110291 132.639328,567.414001 137.668396,560.443787 
	C150.148895,543.145874 167.383942,532.389709 186.729965,524.921936 
	C197.375824,520.812500 208.580078,518.002502 220.261765,517.960815 
	C235.320129,517.907104 250.454407,517.278381 265.156647,521.141235 
	C272.290131,523.015503 276.627594,528.891357 278.871185,535.553406 
	C282.301331,545.738708 285.138397,556.146240 287.728821,566.583130 
	C289.230591,572.634033 280.869751,583.824280 273.570435,587.039185 
	C267.156525,589.864136 261.159821,590.130188 254.061630,588.466003 
	C245.786179,586.525818 236.844681,587.581604 228.224106,586.920898 
	C216.295380,586.006592 205.071350,589.537231 193.753830,592.166199 
	C187.913971,593.522705 182.322205,596.185913 176.822357,598.704285 
	C170.576843,601.563843 164.398270,604.655640 158.532623,608.210754 
	C156.557877,609.407654 154.067261,613.783752 154.479736,614.227539 
	C156.949310,616.884460 159.915939,619.683044 163.257187,620.769409 
	C167.220428,622.057983 171.725555,621.816040 176.005402,621.968445 
	C187.774963,622.387451 199.567245,622.379639 211.315567,623.106201 
	C218.493164,623.550110 225.665024,624.747131 232.723953,626.176331 
	C236.359421,626.912415 235.374512,629.459229 233.213730,631.228333 
	C229.023758,634.658752 224.888641,638.215332 220.378311,641.184082 
	C208.183899,649.210266 195.712311,656.815857 183.531662,664.862305 
	C175.517563,670.156189 167.817154,675.924927 159.670822,681.690674 
z"/>
<path fill="#F7BC45" opacity="1.000000" stroke="none" 
	d="
M1817.985596,583.002197 
	C1805.673828,584.955811 1794.246582,584.966919 1785.021118,575.513000 
	C1775.749023,566.011414 1776.390869,558.747803 1780.977783,547.483948 
	C1788.047607,530.122925 1801.444458,519.711853 1819.034424,513.767212 
	C1828.301636,510.635284 1837.542114,509.006927 1846.432617,512.984192 
	C1863.986816,520.837341 1871.725342,539.700928 1859.117676,556.280212 
	C1851.832886,565.859924 1843.883301,574.990356 1832.114502,579.339539 
	C1827.705200,580.968872 1823.002197,581.803284 1817.985596,583.002197 
M1817.505859,547.996338 
	C1813.558350,551.984680 1809.610840,555.972961 1805.135498,560.494568 
	C1811.587646,560.905823 1833.442017,542.900391 1833.415771,537.541321 
	C1828.082397,540.982849 1823.052124,544.228760 1817.505859,547.996338 
z"/>
<path fill="#FFFFFF" opacity="1.000000" stroke="none" 
	d="
M628.936096,644.954956 
	C634.545288,636.332275 637.792725,626.368042 646.673950,620.554932 
	C648.084412,619.631653 649.543884,618.783203 651.703491,617.456055 
	C651.828247,619.965088 651.948181,621.691772 651.994568,623.420349 
	C652.336670,636.172485 652.542297,648.929749 653.033325,661.676025 
	C653.451294,672.527100 646.209717,681.648254 635.212158,684.110901 
	C628.528564,685.607483 621.952209,687.581604 615.321228,689.316711 
	C614.113525,689.632751 612.874695,689.830078 611.192932,690.176392 
	C613.637451,673.410950 619.089661,658.513916 628.936096,644.954956 
z"/>
<path fill="#FFFFFF" opacity="1.000000" stroke="none" 
	d="
M1152.091064,650.984009 
	C1153.639282,664.784485 1157.167358,678.153320 1153.867432,691.614563 
	C1151.765747,700.188171 1142.710205,703.522583 1134.572998,699.896484 
	C1127.702881,696.834900 1124.634521,690.440857 1121.105957,684.747009 
	C1114.927979,674.777771 1109.150757,664.482910 1104.233032,653.849365 
	C1102.363770,649.807617 1102.523804,644.338623 1103.188599,639.726318 
	C1104.228882,632.510925 1106.106079,625.194946 1113.105469,621.003174 
	C1122.108643,615.611450 1130.345337,618.958008 1138.246094,623.671448 
	C1148.547607,629.817017 1149.697754,640.438782 1152.091064,650.984009 
z"/>
<path fill="#FFFFFF" opacity="1.000000" stroke="none" 
	d="
M1120.670166,769.684326 
	C1116.685181,771.146057 1111.693481,767.034851 1111.123047,761.673218 
	C1110.263184,753.590027 1111.197021,745.649353 1115.316406,738.456177 
	C1117.070801,735.392578 1119.052734,732.281372 1121.578735,729.869934 
	C1130.256714,721.585083 1128.886108,722.722473 1146.542603,723.362976 
	C1137.847290,738.962891 1129.369507,754.172424 1120.670166,769.684326 
z"/>
<path fill="#FFFFFF" opacity="1.000000" stroke="none" 
	d="
M1582.596436,845.251038 
	C1581.203613,843.089722 1578.969482,840.920349 1579.260742,839.171509 
	C1581.113037,828.045959 1587.132202,819.068604 1595.662598,812.011292 
	C1602.965576,805.969543 1610.857300,800.637939 1618.520752,795.036133 
	C1619.246582,794.505554 1620.201294,794.288208 1621.814209,793.598511 
	C1621.814209,797.885437 1622.506714,801.749023 1621.685303,805.258240 
	C1619.160522,816.044678 1615.689819,826.404236 1609.095703,835.712036 
	C1605.053589,841.417969 1599.698486,843.402039 1593.673584,845.202209 
	C1590.037354,846.288574 1586.595093,848.797485 1582.596436,845.251038 
z"/>
<path fill="#FFFFFF" opacity="1.000000" stroke="none" 
	d="
M1494.230469,761.269653 
	C1493.048706,761.795959 1492.120972,762.065002 1491.193237,762.334106 
	C1490.244873,758.973267 1488.088013,755.391052 1488.652954,752.307373 
	C1489.364746,748.421570 1491.950806,744.647156 1496.884277,743.962585 
	C1500.062256,743.521606 1503.204102,742.819580 1506.776733,742.157715 
	C1506.187988,750.959900 1501.020264,756.421570 1494.230469,761.269653 
z"/>
<path fill="#FFFFFF" opacity="1.000000" stroke="none" 
	d="
M1817.763916,547.735474 
	C1823.052124,544.228760 1828.082397,540.982849 1833.415771,537.541321 
	C1833.442017,542.900391 1811.587646,560.905823 1805.135498,560.494568 
	C1809.610840,555.972961 1813.558350,551.984680 1817.763916,547.735474 
z"/>
</svg>