<svg version="1.1" id="Layer_1" xmlns="http://www.w3.org/2000/svg" xmlns:xlink="http://www.w3.org/1999/xlink" x="0px" y="0px"
	 width="100%" viewBox="0 0 894 418" enable-background="new 0 0 894 418" xml:space="preserve">

<path fill="#e9edd5" opacity="1.000000" stroke="none" 
	d="
M302.970490,278.440857 
	C301.351685,273.415985 302.121582,268.955078 304.311951,264.344116 
	C314.095154,243.749252 323.606445,223.025223 333.217041,202.348358 
	C333.427582,201.895401 333.668396,201.455978 333.866394,200.997849 
	C338.143280,191.103973 335.996826,187.773468 325.231720,187.920853 
	C319.758911,187.995773 313.971283,189.340790 310.566071,181.979050 
	C308.968292,194.677979 307.503845,206.415466 306.012543,218.149551 
	C303.245026,239.925232 300.562500,261.712738 297.576874,283.458557 
	C297.128113,286.727264 295.231842,289.797302 294.005157,292.959229 
	C293.291138,292.948242 292.577148,292.937286 291.863159,292.926300 
	C291.026520,288.911560 289.369110,284.870483 289.496765,280.886658 
	C290.019257,264.585205 290.892059,248.287750 292.018188,232.015289 
	C292.833008,220.240997 294.272125,208.510422 295.364899,196.754028 
	C295.474701,195.572937 295.113770,194.348099 294.971313,193.143555 
	C293.786194,193.778595 292.129395,194.109177 291.491486,195.097427 
	C286.894897,202.218430 282.387604,209.403473 278.075653,216.700363 
	C270.974823,228.716705 264.117828,240.877563 256.968170,252.864243 
	C255.728531,254.942490 253.689041,256.627960 251.779556,258.204895 
	C247.731918,261.547607 243.028503,263.712189 237.984711,261.166840 
	C232.807968,258.554413 232.555740,253.155045 232.469421,248.094910 
	C232.414169,244.855835 232.759750,241.609909 232.980118,237.302139 
	C225.335983,242.433685 218.639832,246.955078 211.917358,251.437042 
	C186.206970,268.578552 159.458191,283.659576 129.910461,293.323883 
	C111.808350,299.244629 93.614449,303.042419 74.597527,298.021301 
	C49.564934,291.411804 38.398922,268.643646 49.139843,245.157013 
	C64.230171,212.159729 85.027054,182.899521 109.100266,155.932877 
	C113.834564,150.629562 119.827972,146.470947 125.002274,141.534515 
	C131.565598,135.272919 131.796143,131.665665 125.840332,124.976646 
	C116.473434,114.456619 113.881714,102.085403 116.058144,88.692307 
	C119.201233,69.350578 127.763176,52.903255 144.631424,42.031078 
	C154.314651,35.789894 165.059937,33.398331 175.811707,39.546196 
	C186.675705,45.758232 191.769669,55.715328 192.117004,68.084297 
	C192.318848,75.271912 190.545044,78.136650 182.084427,84.577446 
	C180.982254,79.217369 179.275208,74.498306 179.177094,69.746033 
	C178.915161,57.058765 168.789612,49.632065 157.106888,54.660759 
	C152.991470,56.432190 148.935333,59.476418 146.139938,62.969971 
	C137.180954,74.166534 133.140411,87.223206 134.054230,101.599060 
	C134.676422,111.387161 141.526260,117.371056 152.733322,119.061859 
	C162.502319,120.535698 172.197296,122.500320 181.404587,124.154587 
	C181.170273,135.580704 173.695770,139.329697 166.156219,142.697800 
	C148.794144,150.453903 133.658249,161.326599 122.187584,176.395157 
	C111.321175,190.669937 101.322365,205.656998 91.721161,220.824036 
	C85.785202,230.201080 81.234596,240.464218 76.226334,250.412277 
	C75.121765,252.606308 74.519142,255.110062 74.016022,257.539673 
	C72.150795,266.547180 74.982887,271.434601 83.834198,274.127350 
	C86.982155,275.085052 90.454628,274.998505 93.578674,276.008270 
	C104.317451,279.479248 113.169456,273.441467 121.902077,269.619873 
	C158.629288,253.547211 194.986588,236.628006 231.414734,219.878265 
	C232.706711,219.284225 233.967789,217.288315 234.144470,215.814072 
	C235.589035,203.761505 236.725708,191.672501 238.053680,179.605331 
	C238.761902,173.169800 242.077942,169.300949 247.512772,168.218399 
	C254.175964,166.891190 259.546570,169.994095 260.131622,176.768021 
	C260.697357,183.318222 259.692017,189.995407 259.523499,196.620560 
	C259.395660,201.646927 259.498169,206.679153 259.498169,211.708755 
	C260.226990,211.988281 260.955811,212.267792 261.684662,212.547302 
	C264.110443,210.065613 266.995758,207.885635 268.865112,205.038589 
	C272.605591,199.341751 275.718628,193.237106 279.222778,187.379807 
	C283.114807,180.874130 288.763153,176.291519 295.701935,173.401764 
	C302.817413,170.438416 305.831940,171.546890 309.440186,177.603241 
	C320.402924,174.068802 331.284698,170.704544 342.061859,167.033157 
	C348.789520,164.741272 353.614746,160.225281 356.978821,153.803741 
	C373.201691,122.836525 389.465027,91.888298 406.057281,61.118435 
	C409.892090,54.006924 414.481689,47.101196 419.800354,41.046288 
	C425.382080,34.691921 429.673584,35.772369 433.663971,43.241924 
	C438.475311,52.248215 437.670044,61.675297 435.888794,71.284660 
	C432.192413,91.225494 428.487885,111.172173 425.336731,131.202988 
	C424.127106,138.892105 424.593597,146.831848 423.946686,154.628387 
	C423.648560,158.221481 423.237457,162.122208 421.623962,165.233276 
	C415.251770,177.519470 413.493988,190.825851 412.088562,204.252335 
	C411.240143,212.357635 411.007507,220.554306 409.665649,228.570572 
	C408.901428,233.136063 410.050293,236.457779 413.073517,239.336487 
	C418.282715,244.296677 419.578278,250.261490 417.059662,256.668427 
	C414.100922,264.195068 410.737671,271.611298 406.883575,278.713928 
	C405.308899,281.615875 402.228638,283.916748 399.408478,285.881226 
	C393.839050,289.760773 388.614655,288.775757 386.493469,282.473755 
	C383.879425,274.707489 381.100189,266.304779 381.528625,258.345947 
	C382.517975,239.966278 385.357086,221.683395 387.538269,203.372253 
	C388.245911,197.431610 389.493317,191.548279 390.037628,185.597000 
	C390.663574,178.753265 387.009521,175.405502 380.303833,175.800400 
	C366.358856,176.621582 356.839050,183.077286 351.065948,196.176285 
	C340.933685,219.166138 330.073944,241.836777 319.408691,264.589447 
	C316.146729,271.548370 312.056976,277.800262 302.970490,278.440857 
M403.075317,101.755829 
	C400.051697,104.243446 396.066559,106.161530 394.190491,109.328857 
	C389.198395,117.757004 385.062897,126.697456 380.690704,135.485901 
	C378.248322,140.395340 375.791046,145.318680 373.750031,150.400223 
	C371.901123,155.003464 373.094116,156.731018 377.962891,157.726669 
	C388.996552,159.982986 394.730316,156.339310 397.350494,145.439713 
	C398.786713,139.465149 400.410614,133.531631 401.687012,127.523758 
	C403.440582,119.269691 405.841156,111.021645 403.075317,101.755829 
z"/>
<path fill="#e9edd5" opacity="1.000000" stroke="none" 
	d="
M684.821167,157.802979 
	C689.713562,152.136154 694.167969,146.538956 699.158081,141.469025 
	C701.144714,139.450531 704.182678,138.154480 706.977783,137.310776 
	C712.325317,135.696640 714.557922,137.382156 717.606995,142.100388 
	C721.208435,147.673294 720.802979,153.252197 719.277954,157.697693 
	C724.539673,162.359253 729.491089,166.003510 733.475647,170.503799 
	C736.843689,174.307724 738.995911,174.155426 742.155945,170.614334 
	C745.137451,167.273239 748.334595,164.020050 751.881409,161.309967 
	C758.877869,155.964111 766.632568,157.259048 772.037415,164.269470 
	C775.992615,169.399582 777.843567,175.345551 776.774048,181.630936 
	C773.618286,200.176743 769.883972,218.696121 761.464417,235.658127 
	C757.609680,243.423843 752.478394,250.914368 746.467651,257.116364 
	C742.890564,260.807312 736.647766,262.413086 731.302429,263.772949 
	C723.672974,265.713928 721.365906,267.573761 719.924072,275.395508 
	C714.985718,302.185608 710.025085,328.971954 704.923950,355.731384 
	C704.150391,359.789520 703.312622,364.149048 701.194397,367.554230 
	C698.798706,371.405640 694.925171,374.337769 691.289856,378.086670 
	C686.737732,371.183929 684.136108,365.520325 684.415283,358.075439 
	C685.650208,325.139008 692.740540,292.984070 696.722107,260.423401 
	C699.968384,233.875427 703.541809,207.366974 706.665955,180.805252 
	C707.035278,177.664917 706.326782,173.760696 704.658142,171.139954 
	C700.068176,163.930695 697.459961,163.868652 692.467163,171.515656 
	C684.288086,184.042725 675.756226,196.521423 669.304504,209.948532 
	C661.189941,226.836563 654.780273,244.567657 648.103271,262.113190 
	C644.335449,272.014221 639.474365,280.470978 628.902466,283.813293 
	C619.225830,275.644104 622.353577,265.018219 623.440918,254.937912 
	C625.811401,232.960159 628.402405,211.005096 631.070007,189.061020 
	C632.216187,179.632858 633.772339,170.203476 639.258972,162.115921 
	C646.020142,152.149628 655.328735,152.760391 660.285950,163.609604 
	C662.593018,168.658783 663.952576,174.140915 665.842285,179.724258 
	C674.093079,174.210434 679.063293,165.897186 684.821167,157.802979 
M753.944702,175.276520 
	C751.808716,178.219772 749.244995,180.946259 747.622009,184.149399 
	C743.725525,191.839844 740.415527,199.826172 736.570251,207.544342 
	C734.904907,210.887024 734.731567,213.998993 736.744995,216.932999 
	C740.278320,222.082047 744.111633,227.025238 748.191772,232.559875 
	C756.700867,215.588455 762.527405,198.892624 764.589417,181.088547 
	C764.848938,178.847702 762.965515,175.610413 761.065613,174.131470 
	C759.804382,173.149719 756.745056,174.477829 753.944702,175.276520 
z"/>
<path fill="#e9edd5" opacity="1.000000" stroke="none" 
	d="
M821.457764,138.220688 
	C823.835022,140.514511 827.116211,142.511902 827.562622,145.014877 
	C829.137756,153.846848 828.001526,162.642838 823.979858,170.793060 
	C821.051147,176.728333 818.370728,176.934769 813.941284,171.998932 
	C807.830261,165.189316 805.607117,165.658600 802.582275,174.578400 
	C801.517639,177.717804 800.778564,180.969971 799.948486,184.185516 
	C799.583374,185.600037 799.362122,187.051697 798.900696,189.361862 
	C804.329346,190.287064 809.476074,191.322128 814.669495,191.997971 
	C818.618286,192.511841 822.657532,192.338058 826.602783,192.869385 
	C844.076782,195.222717 853.058533,207.937057 849.584961,225.267441 
	C847.134094,237.495270 841.256531,248.073532 833.265076,257.431458 
	C818.039795,275.260345 801.320129,291.526184 780.078186,302.046173 
	C774.323425,304.896210 767.344788,306.094330 760.843628,306.433380 
	C750.081543,306.994629 742.924500,297.286346 746.829773,287.118103 
	C749.392212,280.446259 753.371155,273.888733 758.181091,268.616943 
	C764.405701,261.794495 771.935669,256.107666 779.239624,250.358795 
	C781.455017,248.615097 784.783020,248.284988 787.601440,247.307434 
	C788.023315,247.782227 788.445190,248.257004 788.867065,248.731781 
	C787.863281,251.387375 787.184998,254.231491 785.781311,256.655487 
	C783.534668,260.535156 780.331177,263.912689 778.443298,267.930603 
	C777.103638,270.781921 777.265381,274.338654 776.757019,277.580566 
	C779.983215,276.750916 783.856873,276.777985 786.309326,274.924561 
	C792.648254,270.134003 798.894836,264.994171 804.187927,259.103851 
	C810.948608,251.580399 816.771545,243.209549 822.913940,235.139496 
	C824.010132,233.699326 824.798035,231.992813 825.551514,230.329224 
	C828.106934,224.687469 831.190430,218.877274 826.716187,212.953781 
	C822.157288,206.918167 815.389954,207.060776 808.573059,207.019455 
	C800.668335,206.971573 792.614380,206.976562 784.905579,205.497513 
	C775.685242,203.728424 773.273254,196.905212 778.403503,188.970871 
	C787.891418,174.297043 797.774109,159.877914 807.213989,145.173950 
	C810.601440,139.897522 815.129456,137.897217 821.457764,138.220688 
z"/>
<path fill="#e9edd5" opacity="1.000000" stroke="none" 
	d="
M623.681641,197.353867 
	C624.245728,219.298050 619.608459,239.557480 607.927368,257.662354 
	C604.066650,263.646240 598.721741,269.228912 592.854431,273.236908 
	C583.009888,279.961761 572.107910,277.441956 566.435974,267.001526 
	C562.730591,260.180969 560.124084,252.195312 559.295776,244.487534 
	C556.916626,222.349716 563.707703,202.060974 575.086670,183.394058 
	C577.752258,179.021149 582.639465,175.585815 587.202271,172.908020 
	C591.422668,170.431213 596.670044,172.388275 599.224976,176.028198 
	C602.138611,180.179214 600.551819,183.810043 597.876221,187.420792 
	C586.368774,202.950134 580.742310,220.605225 578.827820,239.683670 
	C578.054016,247.395493 579.982422,254.145004 584.487061,260.621033 
	C590.803894,258.053192 595.883484,254.686569 598.517883,247.440247 
	C603.579468,233.517181 609.475159,219.800110 610.284607,204.861359 
	C610.708679,197.036438 609.533081,189.048599 608.389709,181.235352 
	C607.109436,172.485809 607.649353,169.982117 613.830383,166.240616 
	C621.780640,174.958344 622.483337,186.002365 623.681641,197.353867 
z"/>
<path fill="#e9edd5" opacity="1.000000" stroke="none" 
	d="
M502.931885,252.963882 
	C494.689301,231.070175 498.112488,197.913727 521.800964,179.125793 
	C527.932739,174.262543 534.109070,169.996429 542.282043,170.010376 
	C548.820435,170.021530 552.069031,172.916885 552.827026,179.495422 
	C553.667236,186.787140 552.595642,193.742828 548.545898,200.626526 
	C546.778870,198.221985 545.257996,195.958084 543.540161,193.855072 
	C539.965271,189.478745 536.910767,189.500565 533.489868,194.018051 
	C527.231201,202.282898 523.595215,211.714432 522.060486,221.879425 
	C521.244690,227.282730 520.924683,232.802063 520.889648,238.272278 
	C520.839783,246.064102 526.884216,250.453751 534.402161,248.147629 
	C537.873108,247.082932 541.122925,245.299591 544.476624,243.850571 
	C546.608826,242.929337 548.671387,241.689209 550.899475,241.180573 
	C555.533752,240.122650 557.970093,242.927155 556.483643,247.434509 
	C556.024536,248.826614 555.316345,250.259979 554.350159,251.342209 
	C545.832520,260.882812 534.939819,265.957062 522.358459,266.542755 
	C513.090820,266.974243 506.753693,261.733734 502.931885,252.963882 
z"/>
<path fill="#e9edd5" opacity="1.000000" stroke="none" 
	d="
M455.779266,265.549438 
	C445.482513,261.365112 442.304352,252.713791 440.684265,243.261765 
	C437.343292,223.769165 439.942627,205.320404 452.498810,189.447189 
	C459.088867,181.116180 466.514313,173.333282 477.585205,170.649460 
	C487.521210,168.240753 492.061951,171.220337 493.405365,181.296036 
	C494.293335,187.956039 492.601166,194.057465 489.071869,200.619690 
	C487.248291,198.105072 485.808807,195.971085 484.217926,193.956680 
	C480.605743,189.382874 477.365784,189.439575 473.828491,194.209976 
	C467.027039,203.382431 463.395813,213.816208 462.016205,225.056595 
	C461.490662,229.338516 461.077362,233.673752 461.129364,237.978439 
	C461.223602,245.773697 467.112549,250.335892 474.576782,248.165222 
	C478.997406,246.879669 483.004303,244.184082 487.418304,242.858887 
	C490.269714,242.002853 495.079742,241.188324 496.270935,242.626144 
	C498.797913,245.676315 496.867188,249.694489 494.035278,252.356537 
	C483.398926,262.354919 471.293213,268.406494 455.779266,265.549438 
z"/>
</svg>