<?xml version="1.0" standalone="no"?>
<!DOCTYPE svg PUBLIC "-//W3C//DTD SVG 20010904//EN"
 "http://www.w3.org/TR/2001/REC-SVG-20010904/DTD/svg10.dtd">
<svg version="1.0" xmlns="http://www.w3.org/2000/svg"
 width="300.000000pt" height="119.000000pt" viewBox="0 0 300.000000 119.000000"
 preserveAspectRatio="xMidYMid meet">
<metadata>
Created by potrace 1.10, written by Peter Selinger 2001-2011
</metadata>
<g transform="translate(0.000000,119.000000) scale(0.100000,-0.100000)"
fill="#000000" stroke="none">
<path d="M1620 1158 c-1 -106 -50 -463 -84 -608 l-12 -55 -97 -7 c-153 -11
-330 -38 -354 -54 -38 -24 -56 -61 -50 -100 15 -90 103 -226 168 -260 35 -18
90 -18 132 0 69 28 146 152 197 316 l27 85 63 8 c74 9 90 5 90 -23 0 -40 62
-210 76 -210 18 0 19 -6 -15 97 -47 142 -47 143 -11 143 16 0 30 5 30 11 0 6
-14 9 -32 7 -31 -3 -32 -2 -44 53 -25 110 -46 287 -52 443 -5 114 -11 161 -19
164 -7 2 -13 -2 -13 -10z m19 -355 c1 -22 10 -94 21 -158 11 -64 20 -123 20
-131 0 -11 -16 -14 -64 -14 l-64 0 14 52 c12 49 34 169 49 283 6 39 9 46 16
30 4 -11 8 -39 8 -62z m-129 -339 c0 -29 -51 -168 -87 -236 -66 -126 -138
-175 -208 -142 -64 30 -147 156 -161 243 -9 54 13 87 66 101 30 8 280 41 378
49 6 1 12 -6 12 -15z"/>
<path d="M655 959 c-31 -18 -114 -100 -136 -136 -11 -18 -24 -46 -29 -64 -13
-43 10 -96 44 -105 14 -3 26 -10 26 -14 0 -4 -24 -26 -54 -48 -134 -101 -203
-248 -163 -344 33 -80 131 -101 235 -51 62 30 201 156 248 225 29 42 29 42 32
14 4 -34 22 -29 36 10 28 77 60 100 50 37 -7 -51 13 -81 44 -64 23 12 59 71
44 71 -5 0 -15 -11 -22 -25 -7 -14 -20 -25 -28 -25 -11 0 -13 9 -8 41 6 40 -4
69 -26 69 -6 0 -23 -14 -39 -31 -26 -28 -29 -29 -29 -10 0 13 -6 21 -16 21
-11 0 -14 -5 -10 -16 8 -20 -108 -159 -189 -225 -145 -119 -253 -131 -285 -33
-26 78 8 171 94 262 68 72 129 113 185 124 53 10 73 24 46 34 -9 4 -40 0 -67
-9 -60 -19 -91 -9 -109 34 -10 24 -9 37 6 76 31 82 186 216 185 161 0 -7 -14
-37 -30 -67 -28 -50 -31 -71 -10 -71 18 0 70 104 68 135 -3 27 -7 30 -38 32
-19 2 -44 -2 -55 -8z"/>
<path d="M2023 532 c-13 -2 -32 -17 -44 -33 -44 -62 -150 -90 -157 -42 -4 29
30 63 57 56 12 -3 21 -1 21 6 0 19 -66 13 -85 -9 -22 -24 -24 -78 -4 -91 26
-17 85 -10 121 15 l35 23 9 -21 c14 -33 80 -34 126 -2 35 23 37 24 43 6 8 -26
43 -35 63 -17 9 8 27 18 39 21 11 4 27 13 33 21 23 28 40 17 40 -25 0 -53 24
-64 56 -27 13 15 24 27 26 27 2 0 1 -43 0 -95 -3 -64 0 -95 7 -95 6 0 11 2 11
5 0 3 5 49 11 102 11 101 29 153 54 153 27 0 27 -23 0 -44 -30 -24 -27 -46 6
-46 11 0 24 11 31 25 13 30 43 41 64 24 14 -11 14 -13 0 -21 -23 -13 -20 -45
4 -53 28 -9 51 12 44 39 -4 17 1 25 20 34 14 6 26 16 26 22 0 6 -13 3 -31 -7
-30 -17 -31 -17 -45 1 -18 25 -18 36 1 36 8 0 15 5 15 10 0 12 -30 13 -46 2
-7 -4 -13 -16 -15 -26 -6 -29 -24 -30 -37 -1 -15 32 -45 32 -71 0 -19 -26 -20
-26 -23 -4 -5 38 -28 35 -28 -4 0 -34 -36 -94 -49 -82 -3 4 -6 23 -6 43 0 32
-3 37 -23 35 -19 -3 -22 0 -16 23 5 20 3 25 -7 22 -8 -2 -16 -18 -17 -34 -4
-27 -16 -43 -34 -44 -5 0 -8 14 -8 30 0 18 -6 33 -15 36 -25 10 -61 -4 -72
-28 -6 -13 -31 -33 -55 -46 -78 -38 -122 -23 -96 33 12 26 17 28 56 25 12 -1
22 1 22 4 0 11 -35 22 -57 18z m177 -89 c0 -7 -7 -13 -15 -13 -10 0 -15 10
-15 33 1 30 1 31 15 13 8 -11 15 -26 15 -33z"/>
</g>
</svg>
