<svg version="1.1" id="Layer_1" xmlns="http://www.w3.org/2000/svg" xmlns:xlink="http://www.w3.org/1999/xlink" x="0px" y="0px"
	 width="100%" viewBox="0 0 750 272" enable-background="new 0 0 750 272" xml:space="preserve">
<path fill="#FFFFFF" opacity="1.000000" stroke="none" 
	d="
M540.000000,273.000000 
	C360.043884,273.000000 180.587753,273.000000 1.065815,273.000000 
	C1.065815,182.399414 1.065815,91.798767 1.065815,1.099059 
	C250.999985,1.099059 500.999969,1.099059 750.973999,1.099059 
	C750.973999,91.745621 750.973999,182.372818 750.973999,273.000000 
	C680.798706,273.000000 610.649353,273.000000 540.000000,273.000000 
M595.564087,158.006744 
	C595.564087,158.006744 596.036621,158.007156 596.078064,158.762894 
	C597.616150,161.165329 599.096619,163.607422 600.713501,165.955582 
	C601.707031,167.398499 603.221558,168.549652 603.953125,170.092178 
	C605.491943,173.336899 607.507507,173.661240 609.522827,170.990829 
	C613.489258,165.735229 617.020813,160.152237 620.961121,154.875565 
	C622.653687,152.609009 624.567688,149.807816 626.991028,148.926361 
	C632.816956,146.807358 639.003235,145.679214 645.735962,143.976349 
	C646.990784,146.853333 648.336548,150.196716 649.889221,153.441055 
	C652.492859,158.881424 651.176025,163.034592 646.819641,167.181931 
	C642.646423,171.154907 638.953003,175.763687 635.714355,180.544006 
	C633.217834,184.228912 631.430603,188.596191 635.180603,193.499313 
	C635.517700,196.492004 637.489746,197.169937 640.887390,196.995682 
	C643.109497,198.598419 646.703674,193.086594 648.208740,198.407562 
	C648.367554,198.378799 648.559448,198.397293 648.679443,198.313171 
	C649.223267,197.931992 649.758179,197.536041 650.275879,197.119965 
	C660.343628,189.028503 669.114014,180.288193 668.190369,165.772751 
	C668.084534,164.111008 670.272278,161.886185 671.925476,160.604721 
	C677.818787,156.036514 684.282349,152.148438 689.836853,147.221420 
	C692.784607,144.606659 694.460083,140.464722 696.377136,136.836334 
	C696.970947,135.712372 696.469482,134.009781 696.469482,132.572098 
	C694.064087,133.669327 693.019287,135.260361 691.578186,136.304169 
	C684.225891,141.629379 676.840881,146.916489 669.317688,151.995270 
	C666.333618,154.009750 663.859070,153.488144 662.251221,149.683380 
	C660.704407,146.023331 658.720398,142.508972 656.596558,139.139893 
	C651.939148,131.751709 652.039185,128.114990 657.552795,120.882324 
	C662.167725,114.828712 660.580505,103.941505 654.547363,99.292854 
	C652.407104,97.643730 650.628479,97.506859 649.060059,99.760681 
	C642.707703,108.889198 637.259888,118.222229 640.639893,130.137177 
	C642.926208,138.196320 641.614502,140.048935 633.158630,141.815308 
	C630.962952,142.273956 628.715210,142.482986 626.089844,142.865128 
	C625.565247,137.254456 625.116760,132.145432 624.601440,127.043175 
	C624.165039,122.721672 623.113770,118.580856 618.181030,117.465660 
	C613.523682,116.412704 609.961121,118.679169 607.745850,122.604179 
	C603.586426,129.973541 599.898071,137.612457 595.628296,144.913864 
	C594.210571,147.338318 591.610840,149.071594 589.551514,151.120850 
	C589.497498,148.170349 588.799438,145.053024 589.512268,142.301193 
	C591.510559,134.586533 594.580200,127.131500 596.307068,119.369362 
	C598.104248,111.291527 597.262817,103.264893 590.531372,97.317818 
	C586.291260,93.571777 584.517334,94.024651 582.680786,99.293304 
	C577.759155,113.412613 572.843811,127.546822 568.472412,141.842239 
	C562.054565,162.830276 558.806396,184.334274 560.083862,206.336197 
	C560.299500,210.049377 561.496094,213.821991 562.939758,217.274338 
	C563.356140,218.270111 567.168701,219.175781 567.799377,218.531738 
	C571.351501,214.903931 573.964844,210.938828 574.989685,205.414734 
	C576.655212,196.436951 579.301086,187.473541 582.857788,179.064301 
	C585.994995,171.646912 590.943115,164.995468 595.564087,158.006744 
M259.916260,151.430008 
	C262.794373,149.624802 265.493073,147.385712 268.588440,146.105881 
	C274.783142,143.544601 281.194946,141.508423 287.135071,139.391571 
	C288.937164,149.157089 290.740479,158.928879 292.543518,168.700699 
	C292.603760,169.027130 292.793182,169.397644 292.701324,169.674179 
	C290.782806,175.449860 293.968414,180.068268 296.550201,184.558441 
	C297.758453,186.659760 300.974609,189.436401 302.639038,189.061081 
	C306.007660,188.301468 309.911041,187.190323 309.304962,181.350540 
	C307.722198,166.099716 307.562805,150.843079 310.432281,135.571823 
	C311.874725,127.895332 314.313141,121.937996 322.017273,118.936440 
	C324.867828,117.825867 327.406494,115.914856 330.287201,114.253693 
	C326.948578,111.723381 326.948578,111.723381 313.815582,114.671089 
	C313.924988,112.428505 313.818787,110.267952 314.166931,108.183281 
	C316.190460,96.066223 318.287262,83.961082 320.424774,71.863472 
	C322.444672,60.431278 320.299896,51.769215 305.186157,49.888451 
	C303.620972,49.693680 300.828979,50.968983 300.297882,52.258778 
	C297.525452,58.991634 295.058594,65.877251 292.964844,72.853615 
	C291.448059,77.907532 291.969086,83.983932 289.347565,88.222908 
	C279.035217,104.897812 267.803101,121.002426 256.997284,137.374756 
	C254.483871,141.182938 251.620453,140.072266 248.996887,138.025238 
	C247.915848,137.181763 247.741638,135.176086 247.239685,133.912338 
	C244.601456,137.000473 242.191650,140.121506 239.462326,142.932297 
	C236.686768,145.790695 233.758301,148.554733 230.600800,150.973724 
	C227.058548,153.687454 223.405807,156.440033 219.399277,158.318619 
	C214.320892,160.699768 211.708267,158.817276 211.859116,153.337799 
	C211.977585,149.034561 212.498505,144.731064 213.047318,140.454208 
	C213.595230,136.184387 214.615768,131.968109 215.023560,127.689697 
	C215.344788,124.319588 215.111343,120.383141 211.202118,119.352562 
	C206.896011,118.217369 202.231995,116.518997 198.268845,121.085663 
	C193.144730,126.990097 187.640900,132.566864 182.253494,138.239990 
	C180.277023,140.321289 178.166153,142.274994 176.116608,144.286911 
	C175.580109,143.972733 175.043594,143.658554 174.507095,143.344376 
	C175.036575,141.461685 175.461456,139.541885 176.114258,137.702972 
	C178.498505,130.986603 181.525467,124.439560 183.252670,117.563072 
	C185.623917,108.122467 182.213531,102.842743 172.954834,99.384956 
	C167.760498,109.414940 161.907043,119.147888 157.564285,129.513733 
	C152.511871,141.573486 148.703094,154.160843 144.529480,166.578003 
	C143.344711,170.102859 144.192139,173.808960 148.029221,174.747437 
	C152.113098,175.746246 156.540298,175.636185 160.803818,175.517105 
	C164.567932,175.411957 166.506653,172.847748 167.603668,169.320190 
	C168.783478,165.526352 169.631775,161.274902 171.964386,158.259460 
	C179.482773,148.540283 187.605576,139.287735 195.550278,129.901779 
	C195.969650,129.406311 196.894791,129.338959 198.004166,128.910034 
	C198.004166,135.342133 197.862854,141.282196 198.038742,147.212830 
	C198.276291,155.221451 201.488983,162.008850 209.499954,164.129700 
	C217.231552,166.176590 225.573685,166.596863 231.819672,159.788757 
	C237.076202,154.059128 241.927383,147.957596 247.178116,141.760941 
	C247.822571,142.335251 248.998627,143.383301 250.337158,144.576157 
	C245.843811,149.926971 241.867310,155.271454 237.242661,159.979248 
	C233.454865,163.835159 235.358551,167.592667 237.045547,170.845184 
	C237.732285,172.169250 242.313522,173.061142 243.722565,172.098999 
	C246.852203,169.961990 249.303574,166.685989 251.650391,163.585831 
	C254.457733,159.877319 256.867584,155.867935 259.916260,151.430008 
M353.579926,162.084656 
	C351.372162,161.773010 347.761230,162.135696 347.225342,161.020584 
	C345.742706,157.935455 344.059692,153.677826 345.108978,150.877945 
	C348.526337,141.759247 353.098816,133.070496 357.319244,124.260574 
	C357.717407,123.429436 358.765533,122.909660 360.238129,121.598892 
	C359.262878,125.160515 358.812714,127.796074 357.820282,130.208542 
	C356.110107,134.365738 359.002716,135.653870 361.768402,136.807785 
	C364.967407,138.142517 365.971191,135.716522 367.238617,133.357407 
	C371.605591,125.229050 368.423157,116.773354 368.993011,108.811073 
	C357.235046,102.826965 348.705536,107.833992 341.446930,116.168297 
	C334.999512,123.571236 330.591492,132.299667 329.299377,142.033142 
	C328.244843,149.977051 328.114960,158.325119 335.661224,163.915085 
	C345.817932,171.438751 362.953918,173.739960 374.171143,164.216171 
	C378.075317,160.901413 381.439758,156.951660 385.059784,153.300919 
	C385.770264,152.584396 386.522552,151.909378 387.483002,150.999817 
	C389.877258,163.584625 399.171478,169.482956 413.766937,170.261353 
	C427.397278,170.988251 435.263275,162.412689 443.893860,153.489838 
	C444.316925,156.104889 444.645721,157.870041 444.881927,159.647476 
	C445.570160,164.826614 447.081543,169.819275 452.543365,171.495285 
	C458.015869,173.174576 463.298492,172.087967 467.952667,168.203629 
	C473.798615,163.324615 477.204803,157.019287 479.893829,150.090942 
	C480.492584,148.548203 482.180267,146.488541 483.548553,146.339706 
	C491.229889,145.504288 498.966949,145.180878 507.070740,144.657822 
	C507.070740,149.376373 506.928986,154.352921 507.111511,159.317535 
	C507.286102,164.066147 508.636292,168.345856 513.938416,169.718857 
	C519.221130,171.086807 522.154053,167.826004 524.099548,163.683395 
	C529.185913,152.852844 534.078491,141.930710 538.989624,131.018646 
	C541.378296,125.711136 543.635559,120.344475 545.952332,115.004601 
	C546.392029,115.146515 546.831665,115.288429 547.271301,115.430344 
	C547.017212,118.172729 546.396973,120.942291 546.597961,123.650894 
	C546.874023,127.370483 546.764954,131.748535 548.707092,134.525116 
	C550.412537,136.963318 554.660156,138.556152 557.886353,138.739578 
	C561.218628,138.929016 563.783752,136.131302 565.153259,131.762970 
	C562.333374,133.329742 560.471558,134.364212 558.329712,135.554245 
	C557.554016,128.637497 557.209167,122.488785 556.021423,116.507431 
	C555.556702,114.167206 553.645386,111.224396 551.601868,110.294479 
	C548.476135,108.872116 545.547607,110.641747 543.851379,113.919922 
	C539.424072,122.476357 535.012634,131.043243 530.408508,139.504578 
	C529.031372,142.035400 527.039551,144.231750 525.329285,146.581360 
	C524.707031,146.224854 524.084717,145.868347 523.462402,145.511856 
	C524.311890,142.926559 525.006592,140.277313 526.042847,137.769180 
	C528.264038,132.392899 530.683044,127.098717 532.981995,121.754143 
	C536.825256,112.819366 536.184021,109.637131 529.246460,102.846375 
	C524.507751,98.207916 518.199585,99.215477 516.205383,105.486763 
	C513.098755,115.256088 510.557953,125.215904 508.112030,135.177170 
	C507.513855,137.613403 507.038086,139.192932 504.251221,139.262115 
	C498.769409,139.398178 493.288727,139.615570 487.811157,139.874756 
	C484.502350,140.031326 483.473114,139.141113 483.504608,135.310822 
	C483.597565,123.992294 482.297699,113.080818 471.685699,105.664177 
	C467.406372,102.673347 463.850891,101.102951 459.041077,104.074097 
	C452.988525,107.812920 450.860779,111.272011 451.848053,117.400650 
	C452.294830,120.174164 452.716217,123.103745 453.950531,125.559776 
	C455.476868,128.596893 454.579437,130.380814 452.434998,132.484726 
	C447.923981,136.910568 443.729767,141.659500 439.215546,146.081879 
	C431.007263,154.123215 421.875214,160.726700 410.162964,162.471649 
	C408.573730,162.708420 405.890015,161.547974 405.150391,160.228668 
	C403.841431,157.893829 402.601593,154.705566 403.149109,152.285355 
	C405.553436,141.657364 410.129425,131.910187 416.965576,123.323631 
	C417.061005,123.203751 417.517944,123.371689 418.286133,123.461266 
	C417.602417,125.739906 417.027679,127.955727 416.271912,130.107971 
	C414.909485,133.988022 417.282196,135.701584 420.255951,136.851913 
	C423.484985,138.101028 425.252289,135.868881 425.633789,133.318985 
	C426.858185,125.135468 427.656158,116.888130 428.721039,107.790634 
	C423.240387,107.321983 418.985046,106.218094 414.951202,106.760803 
	C405.311371,108.057739 399.770233,115.172707 395.218231,122.861748 
	C392.356598,127.695450 391.315887,133.829376 387.829773,138.027710 
	C378.868652,148.819458 368.975739,158.823288 353.579926,162.084656 
M121.434814,108.072258 
	C115.798546,107.738052 110.155296,107.483368 104.532982,106.990112 
	C103.612526,106.909355 102.192955,105.867912 102.076408,105.106369 
	C101.955002,104.313049 102.948196,103.060379 103.781471,102.473244 
	C105.260292,101.431244 106.924179,100.577309 108.619431,99.929314 
	C118.766045,96.050842 128.871521,92.859138 140.104843,95.702698 
	C146.575607,97.340698 152.748367,91.978271 151.847473,86.328194 
	C151.196106,82.242943 150.237137,78.102356 148.637466,74.315010 
	C147.788162,72.304161 145.493927,69.931900 143.491241,69.532799 
	C126.621826,66.171089 110.835968,68.607254 97.968735,80.849709 
	C88.812286,89.561562 90.205025,102.780151 100.541313,110.181000 
	C103.658646,112.413017 103.064148,114.177574 100.611580,115.947060 
	C97.109421,118.473824 93.491882,120.863533 89.783424,123.076874 
	C81.328079,128.123337 75.930687,135.448624 73.433891,144.870346 
	C69.507019,159.688538 77.750504,174.319138 92.042824,176.505814 
	C98.648010,177.516388 105.613029,176.294464 112.406502,175.928726 
	C124.352837,175.285599 135.305145,172.120804 144.167084,162.608032 
	C143.029312,160.555374 141.794693,158.327957 140.810257,156.551941 
	C124.497917,161.911530 108.343010,163.386185 92.014252,162.904449 
	C84.214844,162.674347 81.284256,156.818314 85.176170,149.900452 
	C86.948540,146.750061 89.120689,143.500229 91.906143,141.302765 
	C101.669281,133.600632 111.780479,126.339851 121.754356,118.904579 
	C125.284454,116.272987 128.799774,113.621567 132.597992,110.772011 
	C129.362762,106.785484 125.674332,108.277679 121.434814,108.072258 
z"/>
<path fill="#FBBA52" opacity="1.000000" stroke="none" 
	d="
M259.682922,151.709442 
	C256.867584,155.867935 254.457733,159.877319 251.650391,163.585831 
	C249.303574,166.685989 246.852203,169.961990 243.722565,172.098999 
	C242.313522,173.061142 237.732285,172.169250 237.045547,170.845184 
	C235.358551,167.592667 233.454865,163.835159 237.242661,159.979248 
	C241.867310,155.271454 245.843811,149.926971 250.337158,144.576157 
	C248.998627,143.383301 247.822571,142.335251 247.178116,141.760941 
	C241.927383,147.957596 237.076202,154.059128 231.819672,159.788757 
	C225.573685,166.596863 217.231552,166.176590 209.499954,164.129700 
	C201.488983,162.008850 198.276291,155.221451 198.038742,147.212830 
	C197.862854,141.282196 198.004166,135.342133 198.004166,128.910034 
	C196.894791,129.338959 195.969650,129.406311 195.550278,129.901779 
	C187.605576,139.287735 179.482773,148.540283 171.964386,158.259460 
	C169.631775,161.274902 168.783478,165.526352 167.603668,169.320190 
	C166.506653,172.847748 164.567932,175.411957 160.803818,175.517105 
	C156.540298,175.636185 152.113098,175.746246 148.029221,174.747437 
	C144.192139,173.808960 143.344711,170.102859 144.529480,166.578003 
	C148.703094,154.160843 152.511871,141.573486 157.564285,129.513733 
	C161.907043,119.147888 167.760498,109.414940 172.954834,99.384956 
	C182.213531,102.842743 185.623917,108.122467 183.252670,117.563072 
	C181.525467,124.439560 178.498505,130.986603 176.114258,137.702972 
	C175.461456,139.541885 175.036575,141.461685 174.507095,143.344376 
	C175.043594,143.658554 175.580109,143.972733 176.116608,144.286911 
	C178.166153,142.274994 180.277023,140.321289 182.253494,138.239990 
	C187.640900,132.566864 193.144730,126.990097 198.268845,121.085663 
	C202.231995,116.518997 206.896011,118.217369 211.202118,119.352562 
	C215.111343,120.383141 215.344788,124.319588 215.023560,127.689697 
	C214.615768,131.968109 213.595230,136.184387 213.047318,140.454208 
	C212.498505,144.731064 211.977585,149.034561 211.859116,153.337799 
	C211.708267,158.817276 214.320892,160.699768 219.399277,158.318619 
	C223.405807,156.440033 227.058548,153.687454 230.600800,150.973724 
	C233.758301,148.554733 236.686768,145.790695 239.462326,142.932297 
	C242.191650,140.121506 244.601456,137.000473 247.239685,133.912338 
	C247.741638,135.176086 247.915848,137.181763 248.996887,138.025238 
	C251.620453,140.072266 254.483871,141.182938 256.997284,137.374756 
	C267.803101,121.002426 279.035217,104.897812 289.347565,88.222908 
	C291.969086,83.983932 291.448059,77.907532 292.964844,72.853615 
	C295.058594,65.877251 297.525452,58.991634 300.297882,52.258778 
	C300.828979,50.968983 303.620972,49.693680 305.186157,49.888451 
	C320.299896,51.769215 322.444672,60.431278 320.424774,71.863472 
	C318.287262,83.961082 316.190460,96.066223 314.166931,108.183281 
	C313.818787,110.267952 313.924988,112.428505 313.815582,114.671089 
	C326.948578,111.723381 326.948578,111.723381 330.287201,114.253693 
	C327.406494,115.914856 324.867828,117.825867 322.017273,118.936440 
	C314.313141,121.937996 311.874725,127.895332 310.432281,135.571823 
	C307.562805,150.843079 307.722198,166.099716 309.304962,181.350540 
	C309.911041,187.190323 306.007660,188.301468 302.639038,189.061081 
	C300.974609,189.436401 297.758453,186.659760 296.550201,184.558441 
	C293.968414,180.068268 290.782806,175.449860 292.701324,169.674179 
	C292.793182,169.397644 292.603760,169.027130 292.543518,168.700699 
	C290.740479,158.928879 288.937164,149.157089 287.135071,139.391571 
	C281.194946,141.508423 274.783142,143.544601 268.588440,146.105881 
	C265.493073,147.385712 262.794373,149.624802 259.682922,151.709442 
M287.470001,127.391441 
	C287.884064,120.467339 289.695862,113.533684 287.182281,106.344864 
	C282.025665,113.791946 277.372986,121.371597 273.241425,129.225372 
	C271.815704,131.935593 273.649872,134.060532 276.705292,132.985367 
	C280.255249,131.736160 283.521179,129.679825 287.470001,127.391441 
z"/>
<path fill="#FBBA53" opacity="1.000000" stroke="none" 
	d="
M353.978882,162.023041 
	C368.975739,158.823288 378.868652,148.819458 387.829773,138.027710 
	C391.315887,133.829376 392.356598,127.695450 395.218231,122.861748 
	C399.770233,115.172707 405.311371,108.057739 414.951202,106.760803 
	C418.985046,106.218094 423.240387,107.321983 428.721039,107.790634 
	C427.656158,116.888130 426.858185,125.135468 425.633789,133.318985 
	C425.252289,135.868881 423.484985,138.101028 420.255951,136.851913 
	C417.282196,135.701584 414.909485,133.988022 416.271912,130.107971 
	C417.027679,127.955727 417.602417,125.739906 418.286133,123.461266 
	C417.517944,123.371689 417.061005,123.203751 416.965576,123.323631 
	C410.129425,131.910187 405.553436,141.657364 403.149109,152.285355 
	C402.601593,154.705566 403.841431,157.893829 405.150391,160.228668 
	C405.890015,161.547974 408.573730,162.708420 410.162964,162.471649 
	C421.875214,160.726700 431.007263,154.123215 439.215546,146.081879 
	C443.729767,141.659500 447.923981,136.910568 452.434998,132.484726 
	C454.579437,130.380814 455.476868,128.596893 453.950531,125.559776 
	C452.716217,123.103745 452.294830,120.174164 451.848053,117.400650 
	C450.860779,111.272011 452.988525,107.812920 459.041077,104.074097 
	C463.850891,101.102951 467.406372,102.673347 471.685699,105.664177 
	C482.297699,113.080818 483.597565,123.992294 483.504608,135.310822 
	C483.473114,139.141113 484.502350,140.031326 487.811157,139.874756 
	C493.288727,139.615570 498.769409,139.398178 504.251221,139.262115 
	C507.038086,139.192932 507.513855,137.613403 508.112030,135.177170 
	C510.557953,125.215904 513.098755,115.256088 516.205383,105.486763 
	C518.199585,99.215477 524.507751,98.207916 529.246460,102.846375 
	C536.184021,109.637131 536.825256,112.819366 532.981995,121.754143 
	C530.683044,127.098717 528.264038,132.392899 526.042847,137.769180 
	C525.006592,140.277313 524.311890,142.926559 523.462402,145.511856 
	C524.084717,145.868347 524.707031,146.224854 525.329285,146.581360 
	C527.039551,144.231750 529.031372,142.035400 530.408508,139.504578 
	C535.012634,131.043243 539.424072,122.476357 543.851379,113.919922 
	C545.547607,110.641747 548.476135,108.872116 551.601868,110.294479 
	C553.645386,111.224396 555.556702,114.167206 556.021423,116.507431 
	C557.209167,122.488785 557.554016,128.637497 558.329712,135.554245 
	C560.471558,134.364212 562.333374,133.329742 565.153259,131.762970 
	C563.783752,136.131302 561.218628,138.929016 557.886353,138.739578 
	C554.660156,138.556152 550.412537,136.963318 548.707092,134.525116 
	C546.764954,131.748535 546.874023,127.370483 546.597961,123.650894 
	C546.396973,120.942291 547.017212,118.172729 547.271301,115.430344 
	C546.831665,115.288429 546.392029,115.146515 545.952332,115.004601 
	C543.635559,120.344475 541.378296,125.711136 538.989624,131.018646 
	C534.078491,141.930710 529.185913,152.852844 524.099548,163.683395 
	C522.154053,167.826004 519.221130,171.086807 513.938416,169.718857 
	C508.636292,168.345856 507.286102,164.066147 507.111511,159.317535 
	C506.928986,154.352921 507.070740,149.376373 507.070740,144.657822 
	C498.966949,145.180878 491.229889,145.504288 483.548553,146.339706 
	C482.180267,146.488541 480.492584,148.548203 479.893829,150.090942 
	C477.204803,157.019287 473.798615,163.324615 467.952667,168.203629 
	C463.298492,172.087967 458.015869,173.174576 452.543365,171.495285 
	C447.081543,169.819275 445.570160,164.826614 444.881927,159.647476 
	C444.645721,157.870041 444.316925,156.104889 443.893860,153.489838 
	C435.263275,162.412689 427.397278,170.988251 413.766937,170.261353 
	C399.171478,169.482956 389.877258,163.584625 387.483002,150.999817 
	C386.522552,151.909378 385.770264,152.584396 385.059784,153.300919 
	C381.439758,156.951660 378.075317,160.901413 374.171143,164.216171 
	C362.953918,173.739960 345.817932,171.438751 335.661224,163.915085 
	C328.114960,158.325119 328.244843,149.977051 329.299377,142.033142 
	C330.591492,132.299667 334.999512,123.571236 341.446930,116.168297 
	C348.705536,107.833992 357.235046,102.826965 368.993011,108.811073 
	C368.423157,116.773354 371.605591,125.229050 367.238617,133.357407 
	C365.971191,135.716522 364.967407,138.142517 361.768402,136.807785 
	C359.002716,135.653870 356.110107,134.365738 357.820282,130.208542 
	C358.812714,127.796074 359.262878,125.160515 360.238129,121.598892 
	C358.765533,122.909660 357.717407,123.429436 357.319244,124.260574 
	C353.098816,133.070496 348.526337,141.759247 345.108978,150.877945 
	C344.059692,153.677826 345.742706,157.935455 347.225342,161.020584 
	C347.761230,162.135696 351.372162,161.773010 353.978882,162.023041 
M457.999817,115.728188 
	C457.969574,123.905449 462.684601,129.814087 467.894257,135.215820 
	C471.169067,138.611404 476.542969,137.169662 476.643921,132.757462 
	C476.796234,126.099365 476.155914,119.135864 474.152466,112.843452 
	C473.226013,109.933662 468.373016,106.674965 465.141724,106.499878 
	C461.034363,106.277321 458.742249,110.621292 457.999817,115.728188 
M463.662018,162.232178 
	C466.802155,157.183365 469.942261,152.134552 473.082397,147.085754 
	C472.662994,146.623398 472.243591,146.161041 471.824188,145.698685 
	C470.482239,145.782593 469.018372,145.548203 467.820129,146.007248 
	C463.377899,147.709061 459.417480,156.891174 461.190582,161.246307 
	C461.433319,161.842438 462.397491,162.144836 463.662018,162.232178 
M547.174438,113.525635 
	C547.361023,113.538597 547.547546,113.551552 547.734131,113.564529 
	C547.648743,113.446175 547.563354,113.327820 547.174438,113.525635 
M418.189880,121.583374 
	C418.379486,121.603157 418.569092,121.622940 418.758698,121.642723 
	C418.675049,121.526741 418.591431,121.410767 418.189880,121.583374 
z"/>
<path fill="#FBBA52" opacity="1.000000" stroke="none" 
	d="
M634.974243,192.943329 
	C631.430603,188.596191 633.217834,184.228912 635.714355,180.544006 
	C638.953003,175.763687 642.646423,171.154907 646.819641,167.181931 
	C651.176025,163.034592 652.492859,158.881424 649.889221,153.441055 
	C648.336548,150.196716 646.990784,146.853333 645.735962,143.976349 
	C639.003235,145.679214 632.816956,146.807358 626.991028,148.926361 
	C624.567688,149.807816 622.653687,152.609009 620.961121,154.875565 
	C617.020813,160.152237 613.489258,165.735229 609.522827,170.990829 
	C607.507507,173.661240 605.491943,173.336899 603.953125,170.092178 
	C603.221558,168.549652 601.707031,167.398499 600.713501,165.955582 
	C599.096619,163.607422 597.616150,161.165329 596.298584,158.188232 
	C596.766357,156.825394 597.013611,156.037216 597.550232,155.080994 
	C601.130371,153.023300 604.445618,151.174652 607.700928,149.225845 
	C609.218201,148.317520 611.403015,147.524078 611.944641,146.150101 
	C615.221008,137.839279 616.918640,129.230881 615.001770,120.011971 
	C607.926331,131.162292 601.747986,142.674500 596.594299,155.037125 
	C595.916565,156.137451 595.504028,157.071609 595.091553,158.005783 
	C590.943115,164.995468 585.994995,171.646912 582.857788,179.064301 
	C579.301086,187.473541 576.655212,196.436951 574.989685,205.414734 
	C573.964844,210.938828 571.351501,214.903931 567.799377,218.531738 
	C567.168701,219.175781 563.356140,218.270111 562.939758,217.274338 
	C561.496094,213.821991 560.299500,210.049377 560.083862,206.336197 
	C558.806396,184.334274 562.054565,162.830276 568.472412,141.842239 
	C572.843811,127.546822 577.759155,113.412613 582.680786,99.293304 
	C584.517334,94.024651 586.291260,93.571777 590.531372,97.317818 
	C597.262817,103.264893 598.104248,111.291527 596.307068,119.369362 
	C594.580200,127.131500 591.510559,134.586533 589.512268,142.301193 
	C588.799438,145.053024 589.497498,148.170349 589.551514,151.120850 
	C591.610840,149.071594 594.210571,147.338318 595.628296,144.913864 
	C599.898071,137.612457 603.586426,129.973541 607.745850,122.604179 
	C609.961121,118.679169 613.523682,116.412704 618.181030,117.465660 
	C623.113770,118.580856 624.165039,122.721672 624.601440,127.043175 
	C625.116760,132.145432 625.565247,137.254456 626.089844,142.865128 
	C628.715210,142.482986 630.962952,142.273956 633.158630,141.815308 
	C641.614502,140.048935 642.926208,138.196320 640.639893,130.137177 
	C637.259888,118.222229 642.707703,108.889198 649.060059,99.760681 
	C650.628479,97.506859 652.407104,97.643730 654.547363,99.292854 
	C660.580505,103.941505 662.167725,114.828712 657.552795,120.882324 
	C652.039185,128.114990 651.939148,131.751709 656.596558,139.139893 
	C658.720398,142.508972 660.704407,146.023331 662.251221,149.683380 
	C663.859070,153.488144 666.333618,154.009750 669.317688,151.995270 
	C676.840881,146.916489 684.225891,141.629379 691.578186,136.304169 
	C693.019287,135.260361 694.064087,133.669327 696.469482,132.572098 
	C696.469482,134.009781 696.970947,135.712372 696.377136,136.836334 
	C694.460083,140.464722 692.784607,144.606659 689.836853,147.221420 
	C684.282349,152.148438 677.818787,156.036514 671.925476,160.604721 
	C670.272278,161.886185 668.084534,164.111008 668.190369,165.772751 
	C669.114014,180.288193 660.343628,189.028503 650.275879,197.119965 
	C649.758179,197.536041 649.223267,197.931992 648.679443,198.313171 
	C648.559448,198.397293 648.367554,198.378799 648.208984,198.406067 
	C646.703674,193.086594 643.109497,198.598419 640.363586,196.696686 
	C641.627319,194.310837 643.420471,192.228790 645.201233,190.136169 
	C649.425110,185.172546 652.101135,179.603317 651.896545,172.610916 
	C647.284363,175.645370 642.933655,178.854080 639.590149,182.895950 
	C637.320190,185.640106 636.463135,189.553055 634.974243,192.943329 
M606.950745,157.347290 
	C607.642639,156.109909 608.334473,154.872528 609.778381,152.290207 
	C606.901245,153.406174 605.006592,153.648499 603.914978,154.713791 
	C602.970154,155.635864 602.936646,157.491882 602.500305,158.935074 
	C603.824036,158.585739 605.147827,158.236420 606.950745,157.347290 
z"/>
<path fill="#FBBA52" opacity="1.000000" stroke="none" 
	d="
M121.918915,108.063179 
	C125.674332,108.277679 129.362762,106.785484 132.597992,110.772011 
	C128.799774,113.621567 125.284454,116.272987 121.754356,118.904579 
	C111.780479,126.339851 101.669281,133.600632 91.906143,141.302765 
	C89.120689,143.500229 86.948540,146.750061 85.176170,149.900452 
	C81.284256,156.818314 84.214844,162.674347 92.014252,162.904449 
	C108.343010,163.386185 124.497917,161.911530 140.810257,156.551941 
	C141.794693,158.327957 143.029312,160.555374 144.167084,162.608032 
	C135.305145,172.120804 124.352837,175.285599 112.406502,175.928726 
	C105.613029,176.294464 98.648010,177.516388 92.042824,176.505814 
	C77.750504,174.319138 69.507019,159.688538 73.433891,144.870346 
	C75.930687,135.448624 81.328079,128.123337 89.783424,123.076874 
	C93.491882,120.863533 97.109421,118.473824 100.611580,115.947060 
	C103.064148,114.177574 103.658646,112.413017 100.541313,110.181000 
	C90.205025,102.780151 88.812286,89.561562 97.968735,80.849709 
	C110.835968,68.607254 126.621826,66.171089 143.491241,69.532799 
	C145.493927,69.931900 147.788162,72.304161 148.637466,74.315010 
	C150.237137,78.102356 151.196106,82.242943 151.847473,86.328194 
	C152.748367,91.978271 146.575607,97.340698 140.104843,95.702698 
	C128.871521,92.859138 118.766045,96.050842 108.619431,99.929314 
	C106.924179,100.577309 105.260292,101.431244 103.781471,102.473244 
	C102.948196,103.060379 101.955002,104.313049 102.076408,105.106369 
	C102.192955,105.867912 103.612526,106.909355 104.532982,106.990112 
	C110.155296,107.483368 115.798546,107.738052 121.918915,108.063179 
z"/>
<path fill="#FFFBF5" opacity="1.000000" stroke="none" 
	d="
M635.077393,193.221313 
	C636.463135,189.553055 637.320190,185.640106 639.590149,182.895950 
	C642.933655,178.854080 647.284363,175.645370 651.896545,172.610916 
	C652.101135,179.603317 649.425110,185.172546 645.201233,190.136169 
	C643.420471,192.228790 641.627319,194.310837 639.962891,196.680862 
	C637.489746,197.169937 635.517700,196.492004 635.077393,193.221313 
z"/>
<path fill="#FFFCF7" opacity="1.000000" stroke="none" 
	d="
M595.327820,158.006256 
	C595.504028,157.071609 595.916565,156.137451 596.695374,155.130844 
	C597.061707,155.058411 597.260803,155.249054 597.260803,155.249054 
	C597.013611,156.037216 596.766357,156.825394 596.277893,157.810364 
	C596.036621,158.007156 595.564087,158.006744 595.327820,158.006256 
z"/>
<path fill="#FFFDF9" opacity="1.000000" stroke="none" 
	d="
M287.190186,127.682632 
	C283.521179,129.679825 280.255249,131.736160 276.705292,132.985367 
	C273.649872,134.060532 271.815704,131.935593 273.241425,129.225372 
	C277.372986,121.371597 282.025665,113.791946 287.182281,106.344864 
	C289.695862,113.533684 287.884064,120.467339 287.190186,127.682632 
z"/>
<path fill="#FFFEFC" opacity="1.000000" stroke="none" 
	d="
M458.017212,115.319092 
	C458.742249,110.621292 461.034363,106.277321 465.141724,106.499878 
	C468.373016,106.674965 473.226013,109.933662 474.152466,112.843452 
	C476.155914,119.135864 476.796234,126.099365 476.643921,132.757462 
	C476.542969,137.169662 471.169067,138.611404 467.894257,135.215820 
	C462.684601,129.814087 457.969574,123.905449 458.017212,115.319092 
z"/>
<path fill="#FFFDF9" opacity="1.000000" stroke="none" 
	d="
M463.344849,162.407715 
	C462.397491,162.144836 461.433319,161.842438 461.190582,161.246307 
	C459.417480,156.891174 463.377899,147.709061 467.820129,146.007248 
	C469.018372,145.548203 470.482239,145.782593 471.824188,145.698685 
	C472.243591,146.161041 472.662994,146.623398 473.082397,147.085754 
	C469.942261,152.134552 466.802155,157.183365 463.344849,162.407715 
z"/>
<path fill="#FFFFFF" opacity="1.000000" stroke="none" 
	d="
M547.326233,113.367554 
	C547.563354,113.327820 547.648743,113.446175 547.734131,113.564522 
	C547.547546,113.551552 547.361023,113.538597 547.326233,113.367554 
z"/>
<path fill="#FFFFFF" opacity="1.000000" stroke="none" 
	d="
M418.348816,121.439079 
	C418.591431,121.410767 418.675049,121.526741 418.758698,121.642723 
	C418.569092,121.622940 418.379486,121.603157 418.348816,121.439079 
z"/>
<path fill="#FFFCF7" opacity="1.000000" stroke="none" 
	d="
M596.960632,154.964691 
	C601.747986,142.674500 607.926331,131.162292 615.001770,120.011971 
	C616.918640,129.230881 615.221008,137.839279 611.944641,146.150101 
	C611.403015,147.524078 609.218201,148.317520 607.700928,149.225845 
	C604.445618,151.174652 601.130371,153.023300 597.550232,155.080994 
	C597.260803,155.249054 597.061707,155.058411 596.960632,154.964691 
z"/>
<path fill="#FFF9EE" opacity="1.000000" stroke="none" 
	d="
M606.711182,157.617188 
	C605.147827,158.236420 603.824036,158.585739 602.500305,158.935074 
	C602.936646,157.491882 602.970154,155.635864 603.914978,154.713791 
	C605.006592,153.648499 606.901245,153.406174 609.778381,152.290207 
	C608.334473,154.872528 607.642639,156.109909 606.711182,157.617188 
z"/>
</svg>