<svg version="1.1" id="Layer_1" xmlns="http://www.w3.org/2000/svg" xmlns:xlink="http://www.w3.org/1999/xlink" x="0px" y="0px"
	 width="100%" viewBox="0 0 750 272" enable-background="new 0 0 750 272" xml:space="preserve">
<path fill="#FFFFFF" opacity="0.000000" stroke="none" 
	d="
M540.000000,273.000000 
	C360.043884,273.000000 180.587753,273.000000 1.065815,273.000000 
	C1.065815,182.399414 1.065815,91.798767 1.065815,1.099059 
	C250.999985,1.099059 500.999969,1.099059 750.973999,1.099059 
	C750.973999,91.745621 750.973999,182.372818 750.973999,273.000000 
	C680.798706,273.000000 610.649353,273.000000 540.000000,273.000000 
M596.089905,158.763916 
	C597.630249,161.165390 599.114197,163.605698 600.731750,165.953995 
	C601.724670,167.395447 603.234497,168.548431 603.963135,170.090393 
	C605.506470,173.356079 607.530945,173.633530 609.534790,170.972519 
	C613.496460,165.711700 617.021423,160.122849 620.959412,154.843018 
	C622.650024,152.576401 624.572693,149.782639 626.997375,148.903091 
	C632.825134,146.789139 639.011963,145.665009 645.707214,143.976791 
	C646.843079,146.496506 648.076233,149.540009 649.558777,152.456696 
	C652.668030,158.573517 651.181213,163.209366 646.197815,167.884201 
	C641.897461,171.918274 638.350830,176.885406 635.079407,181.841644 
	C632.880798,185.172577 631.796692,189.203629 635.171875,193.482315 
	C635.510071,196.480240 637.476013,197.178513 640.890808,196.996063 
	C643.114563,198.605896 646.686646,193.063004 648.358948,198.869507 
	C659.008789,190.030701 669.128784,181.348984 668.167114,165.696121 
	C668.070190,164.117889 670.013855,161.985077 671.547791,160.812149 
	C677.338501,156.384277 683.700195,152.642746 689.145142,147.846283 
	C692.234314,145.124985 694.135864,140.951401 696.192566,137.222458 
	C696.852173,136.026550 696.295898,134.160034 696.295898,132.600311 
	C695.884521,132.472137 695.473145,132.343948 695.061829,132.215775 
	C694.579895,132.892258 694.177368,133.646271 693.604065,134.233521 
	C686.365173,141.648102 678.746216,148.519424 668.843689,152.332733 
	C665.877625,153.474930 663.902344,153.377457 662.450073,150.082947 
	C660.844849,146.441437 658.916748,142.914871 656.842957,139.512802 
	C651.896179,131.397919 651.947510,128.235184 657.570129,120.850830 
	C662.175842,114.801971 660.537354,103.876839 654.492615,99.266228 
	C652.304810,97.597504 650.572388,97.597359 649.029785,99.826736 
	C642.597534,109.122353 637.137024,118.600006 640.792725,130.705963 
	C643.000732,138.017883 641.747131,139.736313 634.071045,141.578156 
	C631.575928,142.176849 629.008179,142.473068 626.074341,142.976120 
	C625.495911,137.069427 624.934998,131.805481 624.478394,126.532486 
	C624.107422,122.249046 622.785706,118.512497 618.133606,117.478317 
	C613.721619,116.497543 610.167053,118.482971 608.019775,122.265686 
	C603.762268,129.765854 599.978333,137.538208 595.616821,144.974121 
	C594.197205,147.394440 591.589722,149.118027 589.525513,151.160263 
	C589.472473,148.207199 588.776978,145.088013 589.489197,142.332779 
	C591.483643,134.617691 594.581421,127.166039 596.265198,119.398285 
	C598.092468,110.968216 597.197449,102.775139 589.757080,96.742737 
	C586.442078,94.055016 584.237244,94.581696 582.816956,98.794693 
	C578.836487,110.601387 574.463379,122.280746 570.699341,134.154312 
	C563.315308,157.446915 558.653748,181.213562 560.049194,205.810699 
	C560.261230,209.547806 561.282715,213.343918 562.579895,216.873871 
	C563.319336,218.886017 565.421936,221.262970 567.888672,218.616196 
	C571.358337,214.893295 573.947815,210.931946 574.966370,205.400757 
	C576.619690,196.422363 579.290955,187.463013 582.852966,179.055023 
	C585.993774,171.641113 590.940491,164.992264 595.568420,158.007889 
	C595.568420,158.007889 596.047424,158.009552 596.089905,158.763916 
M358.847137,123.855011 
	C359.013672,124.005470 359.180176,124.155922 359.235687,125.057549 
	C358.774170,126.827599 358.520142,128.686340 357.809296,130.349838 
	C356.164642,134.198517 358.862946,135.466949 361.448364,136.686752 
	C364.549774,138.149963 365.764099,136.126678 367.110870,133.671341 
	C371.651245,125.393578 368.413483,116.778206 368.972046,108.809700 
	C357.350494,102.985878 348.872131,107.734329 341.665741,115.939957 
	C335.063324,123.457832 330.721771,132.322006 329.220673,142.227249 
	C327.037994,156.629929 331.770294,164.471039 345.682129,168.829681 
	C358.333893,172.793579 369.665802,169.806427 378.990051,160.177078 
	C381.803558,157.271469 384.401550,154.157150 387.308716,150.902878 
	C389.696045,161.093964 392.251038,164.359390 401.474426,167.852448 
	C414.647614,172.841309 426.632965,170.903656 436.790894,160.728317 
	C439.037201,158.478149 440.891022,155.836166 442.925568,153.374603 
	C444.387756,156.107254 444.661163,157.738373 444.860840,159.378448 
	C445.490936,164.554581 446.915680,169.569565 452.317322,171.391937 
	C457.996765,173.307999 463.363129,172.011353 468.131409,167.983139 
	C473.950409,163.067245 477.301880,156.739182 479.975800,149.807693 
	C480.548248,148.323792 482.391235,146.471603 483.814301,146.317688 
	C491.377319,145.499649 498.992950,145.168427 506.964050,144.644073 
	C506.964050,147.807587 506.837250,151.438156 507.003601,155.055267 
	C507.140320,158.028107 507.202789,161.110718 508.040466,163.923615 
	C509.999603,170.501999 517.124451,172.106949 521.614258,166.996735 
	C523.670959,164.655853 525.447021,161.904510 526.705933,159.054657 
	C532.414856,146.130539 537.873718,133.096146 543.479553,120.126060 
	C544.249634,118.344292 545.338623,116.700363 546.279968,114.992622 
	C547.062073,118.261810 546.422668,121.078705 546.593384,123.845627 
	C546.813293,127.410500 546.684509,131.648361 548.559509,134.271332 
	C550.335938,136.756439 554.423645,138.516800 557.646423,138.786789 
	C561.053894,139.072235 563.684021,136.246078 565.200562,131.636642 
	C562.432800,133.304535 560.623291,134.394974 558.313843,135.786682 
	C557.525330,128.696899 557.179260,122.415154 555.965515,116.305794 
	C555.509705,114.011803 553.455139,111.203957 551.386414,110.261642 
	C548.466309,108.931503 545.613586,110.609665 544.005737,113.697937 
	C539.478455,122.393845 535.007629,131.121262 530.316895,139.728577 
	C528.975586,142.189789 526.960815,144.284042 525.254883,146.546570 
	C524.720764,146.201828 524.186584,145.857101 523.652466,145.512375 
	C524.135315,143.646530 524.406616,141.692719 525.139465,139.930847 
	C527.630615,133.941589 529.732971,127.693916 533.009460,122.151268 
	C537.605042,114.377289 534.845093,108.650009 529.450928,103.073669 
	C524.838501,98.305412 518.264587,99.114052 516.325256,105.230003 
	C513.175171,115.164261 510.568359,125.283302 508.111847,135.416382 
	C507.482788,138.011322 506.641052,139.238174 504.037933,139.309006 
	C498.719513,139.453705 493.399139,139.595016 488.087006,139.877655 
	C484.565704,140.064987 483.370514,139.251678 483.490845,135.105591 
	C483.845734,122.876663 481.582733,111.387222 469.833405,104.442749 
	C467.938843,103.322952 465.273407,101.959900 463.482788,102.483253 
	C456.266571,104.592445 450.209900,108.539124 451.941620,117.693710 
	C452.464661,120.458672 452.842010,123.383339 454.063843,125.849533 
	C455.496643,128.741547 454.527740,130.400299 452.584503,132.343323 
	C447.877441,137.049911 443.466766,142.060822 438.649139,146.647079 
	C431.232513,153.707596 423.182495,159.794510 412.799896,161.992538 
	C406.456024,163.335541 403.622833,161.526840 403.011078,154.945770 
	C402.832520,153.024689 403.037506,150.837921 403.804810,149.098541 
	C407.221588,141.353363 410.857727,133.702911 414.542236,126.079948 
	C415.139648,124.843887 416.380615,123.918869 417.324097,122.850075 
	C417.622589,125.657585 417.045959,128.007751 416.242981,130.277878 
	C414.943726,133.951111 417.272186,135.530426 419.959900,136.738220 
	C423.056244,138.129639 424.339264,136.117233 425.624115,133.636963 
	C429.886322,125.408981 426.899078,116.807083 427.672791,108.731430 
	C420.206024,105.306076 413.410431,105.165466 406.973755,109.767403 
	C400.004120,114.750374 394.941528,121.328636 391.938446,129.275009 
	C389.593994,135.478546 386.146362,140.739059 381.423340,145.336319 
	C373.698730,152.855270 365.503693,159.494461 354.632874,161.942307 
	C347.895294,163.459412 343.090027,159.632843 344.478912,152.822769 
	C346.693939,141.961929 351.515594,132.126404 358.847137,123.855011 
M308.800293,150.364334 
	C309.785400,144.136719 311.518738,137.911774 311.540833,131.680756 
	C311.562042,125.693306 314.734283,123.133659 319.176697,120.738319 
	C322.907684,118.726585 326.465973,116.394547 330.400848,114.023460 
	C324.330353,108.887466 319.363281,113.985901 313.763672,114.813873 
	C313.903748,112.317451 313.825348,110.153755 314.175446,108.061768 
	C316.204651,95.935928 318.291016,83.819214 320.443665,71.714630 
	C322.365723,60.906395 320.465576,52.043705 305.517303,49.723877 
	C302.590790,49.269703 300.989655,49.831821 300.080017,52.402870 
	C297.592010,59.435272 294.993225,66.438324 292.823212,73.570114 
	C291.239624,78.774574 291.510895,84.931129 288.798584,89.334923 
	C278.945465,105.332672 268.250122,120.815987 257.667114,136.353485 
	C256.569275,137.965302 253.751709,139.876312 252.354156,139.476105 
	C250.139664,138.841980 248.450745,136.372406 246.308716,134.475052 
	C246.589630,134.143188 246.114029,134.581451 245.785904,135.111084 
	C240.044876,144.377991 231.330856,150.521606 222.787537,156.794266 
	C221.129044,158.011963 218.856522,158.615341 216.775436,158.984146 
	C213.544617,159.556717 211.570984,158.112549 211.814667,154.590912 
	C212.135376,149.956055 212.434525,145.312332 212.999969,140.703949 
	C213.524567,136.428452 214.635757,132.216888 215.023148,127.935059 
	C215.341339,124.417877 215.184708,120.293312 210.954941,119.256020 
	C206.618576,118.192566 201.991638,116.690567 198.051208,121.284691 
	C192.417694,127.852821 186.322556,134.028366 180.343597,140.294342 
	C178.976318,141.727249 177.278748,142.844986 175.733200,144.107788 
	C175.274307,143.807159 174.815414,143.506531 174.356522,143.205902 
	C174.973541,141.295624 175.532150,139.364090 176.218246,137.478958 
	C178.487579,131.243622 181.384933,125.169136 182.970078,118.767670 
	C185.633163,108.013023 183.298386,104.081665 173.150742,99.346062 
	C170.102417,105.030090 167.032013,110.689751 164.021759,116.381226 
	C156.385071,130.819931 149.399261,145.508148 145.708069,161.566956 
	C142.935638,173.628571 144.401947,175.693085 156.752060,176.024796 
	C157.085144,176.033752 157.420624,176.093445 157.750305,176.068253 
	C162.505768,175.704926 166.337997,174.375061 167.767822,168.954041 
	C168.817032,164.976166 169.997574,160.652817 172.429916,157.491653 
	C179.522598,148.273697 187.256332,139.547668 194.794525,130.676178 
	C195.440994,129.915359 196.500839,129.505768 197.977417,128.531250 
	C197.977417,135.074753 197.857758,140.825455 198.006134,146.569229 
	C198.216110,154.698578 201.073639,161.732239 209.428009,164.028656 
	C217.409058,166.222458 225.793503,166.499710 232.125793,159.487457 
	C237.292313,153.766174 242.085358,147.707642 247.175232,141.642258 
	C247.995605,142.416779 249.060501,143.422134 250.352020,144.641479 
	C246.238510,149.471313 242.458755,154.309952 238.239136,158.728546 
	C235.220764,161.889252 234.636292,165.016403 236.042480,169.041611 
	C237.557037,173.377075 241.314026,174.520599 244.464996,171.033020 
	C248.302246,166.785843 252.357910,162.585968 255.355240,157.766220 
	C259.519226,151.070435 264.343384,146.202591 272.544739,144.738678 
	C276.838104,143.972336 280.795837,141.360916 284.931641,139.646744 
	C285.751434,139.306976 286.692078,139.258942 287.158813,139.162659 
	C288.969025,149.127594 290.719055,158.759491 292.467529,168.391663 
	C292.556061,168.879333 292.809326,169.419998 292.686615,169.850693 
	C290.812012,176.429672 294.770081,181.360580 297.672180,186.429779 
	C298.511993,187.896759 301.717377,189.572601 302.779449,189.040253 
	C305.397919,187.727798 309.635437,188.032013 309.298615,182.653320 
	C308.646332,172.235962 308.904358,161.761612 308.800293,150.364334 
M113.699860,98.029434 
	C122.262001,94.935631 130.832794,93.521942 140.011688,95.691742 
	C146.644745,97.259735 152.871170,91.676460 151.797791,85.892410 
	C151.102341,82.144989 150.341400,78.299637 148.803162,74.858780 
	C147.835464,72.694130 145.613083,69.996407 143.548508,69.588608 
	C126.533020,66.227745 110.571518,68.605141 97.689720,81.153229 
	C88.835739,89.777832 90.356895,102.987274 100.467819,110.125450 
	C103.508797,112.272331 103.251717,114.040421 100.709061,115.874191 
	C97.074776,118.495247 93.289612,120.918915 89.477531,123.279350 
	C79.097046,129.706909 73.496689,139.116898 72.441063,151.125137 
	C71.440384,162.508209 79.724625,174.457413 90.949501,176.112320 
	C98.692657,177.253906 106.808044,176.230286 114.728348,175.724442 
	C125.966942,175.006683 136.046539,171.352066 144.170532,162.579712 
	C142.969666,160.421463 141.788971,158.299454 140.807297,156.535110 
	C124.852921,161.927994 108.858162,163.271957 92.715271,162.957687 
	C84.025719,162.788528 81.032303,156.774490 85.497406,149.221954 
	C87.008942,146.665253 88.927185,144.294373 90.944794,142.100952 
	C99.712608,132.569122 110.243675,125.364059 121.421959,118.949089 
	C125.326225,116.708519 128.739517,113.612427 132.377029,110.907028 
	C132.249878,110.310173 132.122742,109.713310 131.995605,109.116455 
	C129.728729,108.729118 127.474167,108.124756 125.192657,107.995209 
	C118.400612,107.609581 111.592293,107.496292 104.805565,107.046692 
	C103.780373,106.978783 102.836487,105.683647 101.854988,104.956177 
	C102.523232,104.076050 103.007156,102.841019 103.893440,102.380745 
	C106.831551,100.854897 109.914581,99.608101 113.699860,98.029434 
z"/>
<path fill="#F7BC45" opacity="1.000000" stroke="none" 
	d="
M308.792694,150.837616 
	C308.904358,161.761612 308.646332,172.235962 309.298615,182.653320 
	C309.635437,188.032013 305.397919,187.727798 302.779449,189.040253 
	C301.717377,189.572601 298.511993,187.896759 297.672180,186.429779 
	C294.770081,181.360580 290.812012,176.429672 292.686615,169.850693 
	C292.809326,169.419998 292.556061,168.879333 292.467529,168.391663 
	C290.719055,158.759491 288.969025,149.127594 287.158813,139.162659 
	C286.692078,139.258942 285.751434,139.306976 284.931641,139.646744 
	C280.795837,141.360916 276.838104,143.972336 272.544739,144.738678 
	C264.343384,146.202591 259.519226,151.070435 255.355240,157.766220 
	C252.357910,162.585968 248.302246,166.785843 244.464996,171.033020 
	C241.314026,174.520599 237.557037,173.377075 236.042480,169.041611 
	C234.636292,165.016403 235.220764,161.889252 238.239136,158.728546 
	C242.458755,154.309952 246.238510,149.471313 250.352020,144.641479 
	C249.060501,143.422134 247.995605,142.416779 247.175232,141.642258 
	C242.085358,147.707642 237.292313,153.766174 232.125793,159.487457 
	C225.793503,166.499710 217.409058,166.222458 209.428009,164.028656 
	C201.073639,161.732239 198.216110,154.698578 198.006134,146.569229 
	C197.857758,140.825455 197.977417,135.074753 197.977417,128.531250 
	C196.500839,129.505768 195.440994,129.915359 194.794525,130.676178 
	C187.256332,139.547668 179.522598,148.273697 172.429916,157.491653 
	C169.997574,160.652817 168.817032,164.976166 167.767822,168.954041 
	C166.337997,174.375061 162.505768,175.704926 157.750305,176.068253 
	C157.420624,176.093445 157.085144,176.033752 156.752060,176.024796 
	C144.401947,175.693085 142.935638,173.628571 145.708069,161.566956 
	C149.399261,145.508148 156.385071,130.819931 164.021759,116.381226 
	C167.032013,110.689751 170.102417,105.030090 173.150742,99.346062 
	C183.298386,104.081665 185.633163,108.013023 182.970078,118.767670 
	C181.384933,125.169136 178.487579,131.243622 176.218246,137.478958 
	C175.532150,139.364090 174.973541,141.295624 174.356522,143.205902 
	C174.815414,143.506531 175.274307,143.807159 175.733200,144.107788 
	C177.278748,142.844986 178.976318,141.727249 180.343597,140.294342 
	C186.322556,134.028366 192.417694,127.852821 198.051208,121.284691 
	C201.991638,116.690567 206.618576,118.192566 210.954941,119.256020 
	C215.184708,120.293312 215.341339,124.417877 215.023148,127.935059 
	C214.635757,132.216888 213.524567,136.428452 212.999969,140.703949 
	C212.434525,145.312332 212.135376,149.956055 211.814667,154.590912 
	C211.570984,158.112549 213.544617,159.556717 216.775436,158.984146 
	C218.856522,158.615341 221.129044,158.011963 222.787537,156.794266 
	C231.330856,150.521606 240.044876,144.377991 245.785904,135.111084 
	C246.114029,134.581451 246.589630,134.143188 246.308716,134.475052 
	C248.450745,136.372406 250.139664,138.841980 252.354156,139.476105 
	C253.751709,139.876312 256.569275,137.965302 257.667114,136.353485 
	C268.250122,120.815987 278.945465,105.332672 288.798584,89.334923 
	C291.510895,84.931129 291.239624,78.774574 292.823212,73.570114 
	C294.993225,66.438324 297.592010,59.435272 300.080017,52.402870 
	C300.989655,49.831821 302.590790,49.269703 305.517303,49.723877 
	C320.465576,52.043705 322.365723,60.906395 320.443665,71.714630 
	C318.291016,83.819214 316.204651,95.935928 314.175446,108.061768 
	C313.825348,110.153755 313.903748,112.317451 313.763672,114.813873 
	C319.363281,113.985901 324.330353,108.887466 330.400848,114.023460 
	C326.465973,116.394547 322.907684,118.726585 319.176697,120.738319 
	C314.734283,123.133659 311.562042,125.693306 311.540833,131.680756 
	C311.518738,137.911774 309.785400,144.136719 308.792694,150.837616 
M283.004730,130.533096 
	C286.932617,129.024216 288.428772,126.252892 288.168976,122.004768 
	C287.855774,116.883713 288.094818,111.728889 288.094818,106.588684 
	C285.912048,107.650215 284.747589,108.991074 283.831238,110.484215 
	C281.140442,114.868713 278.276642,119.180595 276.019440,123.785072 
	C274.669067,126.539658 274.328674,129.789368 273.534302,132.816498 
	C276.472351,132.180450 279.410370,131.544388 283.004730,130.533096 
z"/>
<path fill="#F7BC46" opacity="1.000000" stroke="none" 
	d="
M358.389557,123.361221 
	C351.515594,132.126404 346.693939,141.961929 344.478912,152.822769 
	C343.090027,159.632843 347.895294,163.459412 354.632874,161.942307 
	C365.503693,159.494461 373.698730,152.855270 381.423340,145.336319 
	C386.146362,140.739059 389.593994,135.478546 391.938446,129.275009 
	C394.941528,121.328636 400.004120,114.750374 406.973755,109.767403 
	C413.410431,105.165466 420.206024,105.306076 427.672791,108.731430 
	C426.899078,116.807083 429.886322,125.408981 425.624115,133.636963 
	C424.339264,136.117233 423.056244,138.129639 419.959900,136.738220 
	C417.272186,135.530426 414.943726,133.951111 416.242981,130.277878 
	C417.045959,128.007751 417.622589,125.657585 417.324097,122.850075 
	C416.380615,123.918869 415.139648,124.843887 414.542236,126.079948 
	C410.857727,133.702911 407.221588,141.353363 403.804810,149.098541 
	C403.037506,150.837921 402.832520,153.024689 403.011078,154.945770 
	C403.622833,161.526840 406.456024,163.335541 412.799896,161.992538 
	C423.182495,159.794510 431.232513,153.707596 438.649139,146.647079 
	C443.466766,142.060822 447.877441,137.049911 452.584503,132.343323 
	C454.527740,130.400299 455.496643,128.741547 454.063843,125.849533 
	C452.842010,123.383339 452.464661,120.458672 451.941620,117.693710 
	C450.209900,108.539124 456.266571,104.592445 463.482788,102.483253 
	C465.273407,101.959900 467.938843,103.322952 469.833405,104.442749 
	C481.582733,111.387222 483.845734,122.876663 483.490845,135.105591 
	C483.370514,139.251678 484.565704,140.064987 488.087006,139.877655 
	C493.399139,139.595016 498.719513,139.453705 504.037933,139.309006 
	C506.641052,139.238174 507.482788,138.011322 508.111847,135.416382 
	C510.568359,125.283302 513.175171,115.164261 516.325256,105.230003 
	C518.264587,99.114052 524.838501,98.305412 529.450928,103.073669 
	C534.845093,108.650009 537.605042,114.377289 533.009460,122.151268 
	C529.732971,127.693916 527.630615,133.941589 525.139465,139.930847 
	C524.406616,141.692719 524.135315,143.646530 523.652466,145.512375 
	C524.186584,145.857101 524.720764,146.201828 525.254883,146.546570 
	C526.960815,144.284042 528.975586,142.189789 530.316895,139.728577 
	C535.007629,131.121262 539.478455,122.393845 544.005737,113.697937 
	C545.613586,110.609665 548.466309,108.931503 551.386414,110.261642 
	C553.455139,111.203957 555.509705,114.011803 555.965515,116.305794 
	C557.179260,122.415154 557.525330,128.696899 558.313843,135.786682 
	C560.623291,134.394974 562.432800,133.304535 565.200562,131.636642 
	C563.684021,136.246078 561.053894,139.072235 557.646423,138.786789 
	C554.423645,138.516800 550.335938,136.756439 548.559509,134.271332 
	C546.684509,131.648361 546.813293,127.410500 546.593384,123.845627 
	C546.422668,121.078705 547.062073,118.261810 546.279968,114.992622 
	C545.338623,116.700363 544.249634,118.344292 543.479553,120.126060 
	C537.873718,133.096146 532.414856,146.130539 526.705933,159.054657 
	C525.447021,161.904510 523.670959,164.655853 521.614258,166.996735 
	C517.124451,172.106949 509.999603,170.501999 508.040466,163.923615 
	C507.202789,161.110718 507.140320,158.028107 507.003601,155.055267 
	C506.837250,151.438156 506.964050,147.807587 506.964050,144.644073 
	C498.992950,145.168427 491.377319,145.499649 483.814301,146.317688 
	C482.391235,146.471603 480.548248,148.323792 479.975800,149.807693 
	C477.301880,156.739182 473.950409,163.067245 468.131409,167.983139 
	C463.363129,172.011353 457.996765,173.307999 452.317322,171.391937 
	C446.915680,169.569565 445.490936,164.554581 444.860840,159.378448 
	C444.661163,157.738373 444.387756,156.107254 442.925568,153.374603 
	C440.891022,155.836166 439.037201,158.478149 436.790894,160.728317 
	C426.632965,170.903656 414.647614,172.841309 401.474426,167.852448 
	C392.251038,164.359390 389.696045,161.093964 387.308716,150.902878 
	C384.401550,154.157150 381.803558,157.271469 378.990051,160.177078 
	C369.665802,169.806427 358.333893,172.793579 345.682129,168.829681 
	C331.770294,164.471039 327.037994,156.629929 329.220673,142.227249 
	C330.721771,132.322006 335.063324,123.457832 341.665741,115.939957 
	C348.872131,107.734329 357.350494,102.985878 368.972046,108.809700 
	C368.413483,116.778206 371.651245,125.393578 367.110870,133.671341 
	C365.764099,136.126678 364.549774,138.149963 361.448364,136.686752 
	C358.862946,135.466949 356.164642,134.198517 357.809296,130.349838 
	C358.520142,128.686340 358.774170,126.827599 359.483215,124.458954 
	C359.734741,123.404984 359.738708,122.949608 359.742676,122.494232 
	C359.291626,122.783226 358.840607,123.072227 358.389557,123.361221 
M458.106323,119.053146 
	C461.021118,124.187370 463.494324,129.648071 466.978760,134.361145 
	C470.257782,138.796356 476.450409,137.656296 476.659485,132.647980 
	C476.935669,126.031532 476.285461,119.039619 474.220184,112.810242 
	C473.248260,109.878639 467.932953,106.445572 464.785797,106.631187 
	C460.053864,106.910271 457.880524,111.697510 457.991425,116.731842 
	C458.002411,117.229370 458.015991,117.726830 458.106323,119.053146 
M462.072144,152.906860 
	C461.023071,156.223816 459.285400,159.594788 463.467682,163.627289 
	C466.818970,157.687531 469.863373,152.291718 473.353363,146.106140 
	C466.489136,144.691177 464.465515,148.482697 462.072144,152.906860 
M547.439453,113.888451 
	C547.543091,113.774773 547.724365,113.663826 547.728516,113.546669 
	C547.732605,113.429726 547.559204,113.306572 547.463623,113.186119 
	C547.359802,113.299667 547.255920,113.413216 547.439453,113.888451 
M418.469635,121.948151 
	C418.573669,121.838043 418.757294,121.729362 418.759277,121.617416 
	C418.761322,121.505859 418.581116,121.391014 418.480835,121.277626 
	C418.376587,121.387589 418.272339,121.497559 418.469635,121.948151 
z"/>
<path fill="#F7BC46" opacity="1.000000" stroke="none" 
	d="
M634.964722,192.922791 
	C631.796692,189.203629 632.880798,185.172577 635.079407,181.841644 
	C638.350830,176.885406 641.897461,171.918274 646.197815,167.884201 
	C651.181213,163.209366 652.668030,158.573517 649.558777,152.456696 
	C648.076233,149.540009 646.843079,146.496506 645.707214,143.976791 
	C639.011963,145.665009 632.825134,146.789139 626.997375,148.903091 
	C624.572693,149.782639 622.650024,152.576401 620.959412,154.843018 
	C617.021423,160.122849 613.496460,165.711700 609.534790,170.972519 
	C607.530945,173.633530 605.506470,173.356079 603.963135,170.090393 
	C603.234497,168.548431 601.724670,167.395447 600.731750,165.953995 
	C599.114197,163.605698 597.630249,161.165390 596.308228,158.193771 
	C596.785889,156.848068 597.045227,156.072495 597.585144,155.114258 
	C601.153015,153.037781 604.465515,151.186050 607.716370,149.231598 
	C609.231750,148.320480 611.408203,147.517166 611.949524,146.140060 
	C615.218506,137.822937 616.936462,129.212128 615.010559,119.983757 
	C607.911194,131.130234 601.788818,142.680023 596.576904,155.024292 
	C595.906921,156.132599 595.498291,157.069077 595.089722,158.005554 
	C590.940491,164.992264 585.993774,171.641113 582.852966,179.055023 
	C579.290955,187.463013 576.619690,196.422363 574.966370,205.400757 
	C573.947815,210.931946 571.358337,214.893295 567.888672,218.616196 
	C565.421936,221.262970 563.319336,218.886017 562.579895,216.873871 
	C561.282715,213.343918 560.261230,209.547806 560.049194,205.810699 
	C558.653748,181.213562 563.315308,157.446915 570.699341,134.154312 
	C574.463379,122.280746 578.836487,110.601387 582.816956,98.794693 
	C584.237244,94.581696 586.442078,94.055016 589.757080,96.742737 
	C597.197449,102.775139 598.092468,110.968216 596.265198,119.398285 
	C594.581421,127.166039 591.483643,134.617691 589.489197,142.332779 
	C588.776978,145.088013 589.472473,148.207199 589.525513,151.160263 
	C591.589722,149.118027 594.197205,147.394440 595.616821,144.974121 
	C599.978333,137.538208 603.762268,129.765854 608.019775,122.265686 
	C610.167053,118.482971 613.721619,116.497543 618.133606,117.478317 
	C622.785706,118.512497 624.107422,122.249046 624.478394,126.532486 
	C624.934998,131.805481 625.495911,137.069427 626.074341,142.976120 
	C629.008179,142.473068 631.575928,142.176849 634.071045,141.578156 
	C641.747131,139.736313 643.000732,138.017883 640.792725,130.705963 
	C637.137024,118.600006 642.597534,109.122353 649.029785,99.826736 
	C650.572388,97.597359 652.304810,97.597504 654.492615,99.266228 
	C660.537354,103.876839 662.175842,114.801971 657.570129,120.850830 
	C651.947510,128.235184 651.896179,131.397919 656.842957,139.512802 
	C658.916748,142.914871 660.844849,146.441437 662.450073,150.082947 
	C663.902344,153.377457 665.877625,153.474930 668.843689,152.332733 
	C678.746216,148.519424 686.365173,141.648102 693.604065,134.233521 
	C694.177368,133.646271 694.579895,132.892258 695.061829,132.215775 
	C695.473145,132.343948 695.884521,132.472137 696.295898,132.600311 
	C696.295898,134.160034 696.852173,136.026550 696.192566,137.222458 
	C694.135864,140.951401 692.234314,145.124985 689.145142,147.846283 
	C683.700195,152.642746 677.338501,156.384277 671.547791,160.812149 
	C670.013855,161.985077 668.070190,164.117889 668.167114,165.696121 
	C669.128784,181.348984 659.008789,190.030701 648.358948,198.869507 
	C646.686646,193.063004 643.114563,198.605896 640.366333,196.694580 
	C641.491516,194.444702 643.090942,192.450958 644.800598,190.556702 
	C649.310364,185.559937 651.968079,179.810226 651.984436,172.581985 
	C647.343628,175.609070 642.889465,178.829041 639.462646,182.911346 
	C637.199524,185.607346 636.412598,189.542450 634.964722,192.922791 
M607.381470,156.764267 
	C607.886902,155.667725 608.392334,154.571182 608.991028,153.272217 
	C602.961243,153.717865 601.464172,155.594666 603.608398,160.140305 
	C604.779602,159.164505 605.868286,158.257401 607.381470,156.764267 
z"/>
<path fill="#F7BC45" opacity="1.000000" stroke="none" 
	d="
M113.320938,98.141846 
	C109.914581,99.608101 106.831551,100.854897 103.893440,102.380745 
	C103.007156,102.841019 102.523232,104.076050 101.854988,104.956177 
	C102.836487,105.683647 103.780373,106.978783 104.805565,107.046692 
	C111.592293,107.496292 118.400612,107.609581 125.192657,107.995209 
	C127.474167,108.124756 129.728729,108.729118 131.995605,109.116455 
	C132.122742,109.713310 132.249878,110.310173 132.377029,110.907028 
	C128.739517,113.612427 125.326225,116.708519 121.421959,118.949089 
	C110.243675,125.364059 99.712608,132.569122 90.944794,142.100952 
	C88.927185,144.294373 87.008942,146.665253 85.497406,149.221954 
	C81.032303,156.774490 84.025719,162.788528 92.715271,162.957687 
	C108.858162,163.271957 124.852921,161.927994 140.807297,156.535110 
	C141.788971,158.299454 142.969666,160.421463 144.170532,162.579712 
	C136.046539,171.352066 125.966942,175.006683 114.728348,175.724442 
	C106.808044,176.230286 98.692657,177.253906 90.949501,176.112320 
	C79.724625,174.457413 71.440384,162.508209 72.441063,151.125137 
	C73.496689,139.116898 79.097046,129.706909 89.477531,123.279350 
	C93.289612,120.918915 97.074776,118.495247 100.709061,115.874191 
	C103.251717,114.040421 103.508797,112.272331 100.467819,110.125450 
	C90.356895,102.987274 88.835739,89.777832 97.689720,81.153229 
	C110.571518,68.605141 126.533020,66.227745 143.548508,69.588608 
	C145.613083,69.996407 147.835464,72.694130 148.803162,74.858780 
	C150.341400,78.299637 151.102341,82.144989 151.797791,85.892410 
	C152.871170,91.676460 146.644745,97.259735 140.011688,95.691742 
	C130.832794,93.521942 122.262001,94.935631 113.320938,98.141846 
z"/>
<path fill="#FFFBF5" opacity="0.000000" stroke="none" 
	d="
M635.068359,193.202545 
	C636.412598,189.542450 637.199524,185.607346 639.462646,182.911346 
	C642.889465,178.829041 647.343628,175.609070 651.984436,172.581985 
	C651.968079,179.810226 649.310364,185.559937 644.800598,190.556702 
	C643.090942,192.450958 641.491516,194.444702 639.965454,196.677994 
	C637.476013,197.178513 635.510071,196.480240 635.068359,193.202545 
z"/>
<path fill="#FFFCF7" opacity="0.000000" stroke="none" 
	d="
M597.304565,155.296936 
	C597.045227,156.072495 596.785889,156.848068 596.286987,157.816589 
	C596.047424,158.009552 595.568420,158.007889 595.329041,158.006714 
	C595.498291,157.069077 595.906921,156.132599 596.694580,155.134262 
	C597.073669,155.072403 597.304565,155.296936 597.304565,155.296936 
z"/>
<path fill="#FFFDF8" opacity="0.000000" stroke="none" 
	d="
M282.676575,130.720703 
	C279.410370,131.544388 276.472351,132.180450 273.534302,132.816498 
	C274.328674,129.789368 274.669067,126.539658 276.019440,123.785072 
	C278.276642,119.180595 281.140442,114.868713 283.831238,110.484215 
	C284.747589,108.991074 285.912048,107.650215 288.094818,106.588684 
	C288.094818,111.728889 287.855774,116.883713 288.168976,122.004768 
	C288.428772,126.252892 286.932617,129.024216 282.676575,130.720703 
z"/>
<path fill="#FFFEFB" opacity="0.000000" stroke="none" 
	d="
M458.067322,118.638733 
	C458.015991,117.726830 458.002411,117.229370 457.991425,116.731842 
	C457.880524,111.697510 460.053864,106.910271 464.785797,106.631187 
	C467.932953,106.445572 473.248260,109.878639 474.220184,112.810242 
	C476.285461,119.039619 476.935669,126.031532 476.659485,132.647980 
	C476.450409,137.656296 470.257782,138.796356 466.978760,134.361145 
	C463.494324,129.648071 461.021118,124.187370 458.067322,118.638733 
z"/>
<path fill="#FFFDF9" opacity="0.000000" stroke="none" 
	d="
M462.231201,152.548935 
	C464.465515,148.482697 466.489136,144.691177 473.353363,146.106140 
	C469.863373,152.291718 466.818970,157.687531 463.467682,163.627289 
	C459.285400,159.594788 461.023071,156.223816 462.231201,152.548935 
z"/>
<path fill="#FFFFFF" opacity="0.000000" stroke="none" 
	d="
M358.618347,123.608116 
	C358.840607,123.072227 359.291626,122.783226 359.742676,122.494232 
	C359.738708,122.949608 359.734741,123.404984 359.538727,124.083374 
	C359.180176,124.155922 359.013672,124.005470 358.618347,123.608116 
z"/>
<path fill="#FFFFFF" opacity="0.000000" stroke="none" 
	d="
M547.295776,113.707611 
	C547.255920,113.413216 547.359802,113.299667 547.463623,113.186127 
	C547.559204,113.306572 547.732605,113.429726 547.728516,113.546669 
	C547.724365,113.663826 547.543091,113.774773 547.295776,113.707611 
z"/>
<path fill="#FFFFFF" opacity="0.000000" stroke="none" 
	d="
M418.318848,121.777840 
	C418.272339,121.497559 418.376587,121.387589 418.480835,121.277618 
	C418.581116,121.391014 418.761322,121.505859 418.759277,121.617416 
	C418.757294,121.729362 418.573669,121.838043 418.318848,121.777840 
z"/>
<path fill="#FFFCF7" opacity="0.000000" stroke="none" 
	d="
M596.956055,154.962433 
	C601.788818,142.680023 607.911194,131.130234 615.010559,119.983757 
	C616.936462,129.212128 615.218506,137.822937 611.949524,146.140060 
	C611.408203,147.517166 609.231750,148.320480 607.716370,149.231598 
	C604.465515,151.186050 601.153015,153.037781 597.585144,155.114258 
	C597.304565,155.296936 597.073669,155.072403 596.956055,154.962433 
z"/>
<path fill="#FEF8EA" opacity="0.000000" stroke="none" 
	d="
M607.169250,157.057281 
	C605.868286,158.257401 604.779602,159.164505 603.608398,160.140305 
	C601.464172,155.594666 602.961243,153.717865 608.991028,153.272217 
	C608.392334,154.571182 607.886902,155.667725 607.169250,157.057281 
z"/>
</svg>